G75*
%MOIN*%
%OFA0B0*%
%FSLAX25Y25*%
%IPPOS*%
%LPD*%
%AMOC8*
5,1,8,0,0,1.08239X$1,22.5*
%
%ADD10C,0.00000*%
%ADD11C,0.07400*%
%ADD12OC8,0.05200*%
%ADD13C,0.05200*%
%ADD14C,0.05150*%
%ADD15C,0.11220*%
%ADD16C,0.05200*%
%ADD17C,0.05937*%
%ADD18C,0.01600*%
%ADD19C,0.03962*%
D10*
X0004919Y0007548D02*
X0004919Y0204398D01*
X0201769Y0204398D01*
X0201769Y0007548D01*
X0004919Y0007548D01*
D11*
X0017419Y0037548D03*
X0017419Y0057548D03*
X0009919Y0072548D03*
X0009919Y0082548D03*
X0009919Y0092548D03*
X0009919Y0102548D03*
X0009919Y0112548D03*
X0009919Y0122548D03*
X0009919Y0132548D03*
X0009919Y0142548D03*
X0014919Y0197548D03*
X0024919Y0197548D03*
X0034919Y0197548D03*
X0044919Y0197548D03*
X0054919Y0197548D03*
X0074919Y0192548D03*
X0094919Y0192548D03*
X0074919Y0097548D03*
X0074919Y0087548D03*
X0074919Y0077548D03*
X0196919Y0072548D03*
X0196919Y0082548D03*
X0196919Y0092548D03*
X0196919Y0102548D03*
X0196919Y0112548D03*
X0196919Y0122548D03*
X0196919Y0132548D03*
X0196919Y0142548D03*
D12*
X0139919Y0072548D03*
X0119919Y0022548D03*
X0119919Y0012548D03*
X0107419Y0017548D03*
X0099919Y0012548D03*
X0099919Y0022548D03*
X0079919Y0022548D03*
X0079919Y0012548D03*
X0069919Y0042548D03*
X0069919Y0052548D03*
X0044919Y0037548D03*
X0034919Y0037548D03*
X0034919Y0022548D03*
X0034919Y0012548D03*
X0049919Y0017548D03*
X0044919Y0077548D03*
X0034919Y0077548D03*
X0034919Y0162548D03*
X0034919Y0172548D03*
X0019919Y0177548D03*
X0009919Y0177548D03*
X0074919Y0172548D03*
X0074919Y0162548D03*
X0112419Y0185048D03*
X0112419Y0195048D03*
D13*
X0139919Y0092548D03*
X0069919Y0017548D03*
D14*
X0142045Y0017548D03*
X0149919Y0017548D03*
X0157793Y0017548D03*
X0164840Y0041249D03*
X0169565Y0044398D03*
X0164840Y0047548D03*
X0169565Y0050698D03*
X0164840Y0053847D03*
D15*
X0184919Y0061918D03*
X0184919Y0033178D03*
D16*
X0120944Y0040973D02*
X0115744Y0040973D01*
X0115744Y0050973D02*
X0120944Y0050973D01*
X0120944Y0060973D02*
X0115744Y0060973D01*
X0115744Y0070973D02*
X0120944Y0070973D01*
X0120944Y0080973D02*
X0115744Y0080973D01*
X0115744Y0090973D02*
X0120944Y0090973D01*
X0120944Y0100973D02*
X0115744Y0100973D01*
X0115744Y0110973D02*
X0120944Y0110973D01*
X0120944Y0120973D02*
X0115744Y0120973D01*
X0115744Y0130973D02*
X0120944Y0130973D01*
X0120944Y0140973D02*
X0115744Y0140973D01*
X0115744Y0150973D02*
X0120944Y0150973D01*
X0120944Y0160973D02*
X0115744Y0160973D01*
X0115744Y0170973D02*
X0120944Y0170973D01*
X0090944Y0170973D02*
X0085744Y0170973D01*
X0085744Y0160973D02*
X0090944Y0160973D01*
X0090944Y0150973D02*
X0085744Y0150973D01*
X0085744Y0140973D02*
X0090944Y0140973D01*
X0090944Y0130973D02*
X0085744Y0130973D01*
X0085744Y0120973D02*
X0090944Y0120973D01*
X0090944Y0110973D02*
X0085744Y0110973D01*
X0085744Y0100973D02*
X0090944Y0100973D01*
X0090944Y0090973D02*
X0085744Y0090973D01*
X0085744Y0080973D02*
X0090944Y0080973D01*
X0090944Y0070973D02*
X0085744Y0070973D01*
X0085744Y0060973D02*
X0090944Y0060973D01*
X0090944Y0050973D02*
X0085744Y0050973D01*
X0085744Y0040973D02*
X0090944Y0040973D01*
D17*
X0134171Y0017548D03*
X0165667Y0017548D03*
D18*
X0170213Y0015541D02*
X0196969Y0015541D01*
X0196969Y0017139D02*
X0170636Y0017139D01*
X0170636Y0016560D02*
X0170636Y0018536D01*
X0169879Y0020362D01*
X0168481Y0021760D01*
X0166655Y0022517D01*
X0164679Y0022517D01*
X0162853Y0021760D01*
X0161455Y0020362D01*
X0161453Y0020358D01*
X0160384Y0021426D01*
X0158703Y0022123D01*
X0156883Y0022123D01*
X0155202Y0021426D01*
X0153915Y0020139D01*
X0153856Y0019998D01*
X0153797Y0020139D01*
X0152719Y0021218D01*
X0152719Y0025168D01*
X0164225Y0036674D01*
X0165750Y0036674D01*
X0167432Y0037370D01*
X0168719Y0038657D01*
X0169202Y0039824D01*
X0170475Y0039824D01*
X0172156Y0040520D01*
X0173443Y0041807D01*
X0174139Y0043488D01*
X0174139Y0045308D01*
X0173443Y0046990D01*
X0172885Y0047548D01*
X0173443Y0048106D01*
X0174139Y0049788D01*
X0174139Y0051608D01*
X0173443Y0053289D01*
X0172156Y0054576D01*
X0171815Y0054717D01*
X0171815Y0056133D01*
X0171389Y0057163D01*
X0170601Y0057950D01*
X0168156Y0060396D01*
X0167127Y0060822D01*
X0162554Y0060822D01*
X0161525Y0060396D01*
X0149102Y0047973D01*
X0124450Y0047973D01*
X0124650Y0048173D01*
X0141401Y0048173D01*
X0142430Y0048599D01*
X0183579Y0089748D01*
X0191909Y0089748D01*
X0192087Y0089319D01*
X0193690Y0087716D01*
X0194095Y0087548D01*
X0193690Y0087380D01*
X0192087Y0085777D01*
X0191219Y0083682D01*
X0191219Y0081414D01*
X0192087Y0079319D01*
X0193690Y0077716D01*
X0194383Y0077429D01*
X0194036Y0077252D01*
X0193336Y0076743D01*
X0192724Y0076131D01*
X0192215Y0075431D01*
X0191822Y0074659D01*
X0191554Y0073836D01*
X0191419Y0072981D01*
X0191419Y0072748D01*
X0196719Y0072748D01*
X0196719Y0072348D01*
X0196969Y0072348D01*
X0196969Y0012348D01*
X0140805Y0012348D01*
X0141430Y0012973D01*
X0142955Y0012973D01*
X0144636Y0013670D01*
X0145923Y0014957D01*
X0145982Y0015098D01*
X0146041Y0014957D01*
X0147328Y0013670D01*
X0149009Y0012973D01*
X0150829Y0012973D01*
X0152510Y0013670D01*
X0153797Y0014957D01*
X0153856Y0015098D01*
X0153915Y0014957D01*
X0155202Y0013670D01*
X0156883Y0012973D01*
X0158703Y0012973D01*
X0160384Y0013670D01*
X0161453Y0014738D01*
X0161455Y0014734D01*
X0162853Y0013336D01*
X0164679Y0012580D01*
X0166655Y0012580D01*
X0168481Y0013336D01*
X0169879Y0014734D01*
X0170636Y0016560D01*
X0170552Y0018738D02*
X0196969Y0018738D01*
X0196969Y0020336D02*
X0169890Y0020336D01*
X0168060Y0021935D02*
X0196969Y0021935D01*
X0196969Y0023533D02*
X0152719Y0023533D01*
X0152719Y0021935D02*
X0156429Y0021935D01*
X0154111Y0020336D02*
X0153601Y0020336D01*
X0149919Y0017548D02*
X0149919Y0026328D01*
X0164840Y0041249D01*
X0161520Y0044398D02*
X0160962Y0043840D01*
X0160265Y0042159D01*
X0160265Y0040634D01*
X0147545Y0027914D01*
X0147119Y0026885D01*
X0147119Y0021218D01*
X0146041Y0020139D01*
X0145982Y0019998D01*
X0145923Y0020139D01*
X0144636Y0021426D01*
X0142955Y0022123D01*
X0141135Y0022123D01*
X0139454Y0021426D01*
X0138385Y0020358D01*
X0138383Y0020362D01*
X0136985Y0021760D01*
X0135159Y0022517D01*
X0133183Y0022517D01*
X0131357Y0021760D01*
X0129959Y0020362D01*
X0129202Y0018536D01*
X0129202Y0016560D01*
X0129704Y0015348D01*
X0123624Y0015348D01*
X0121824Y0017148D01*
X0119279Y0017148D01*
X0118279Y0018148D01*
X0119919Y0018148D01*
X0121742Y0018148D01*
X0124319Y0020725D01*
X0124319Y0022548D01*
X0119919Y0022548D01*
X0119919Y0018148D01*
X0119919Y0022548D01*
X0119919Y0022548D01*
X0115519Y0022548D01*
X0115519Y0020725D01*
X0116194Y0020051D01*
X0115476Y0020348D01*
X0111124Y0020348D01*
X0110219Y0021253D01*
X0110219Y0028888D01*
X0117704Y0036373D01*
X0121859Y0036373D01*
X0123550Y0037074D01*
X0124844Y0038368D01*
X0125544Y0040058D01*
X0125544Y0041888D01*
X0125343Y0042373D01*
X0150819Y0042373D01*
X0151848Y0042799D01*
X0160931Y0051883D01*
X0161099Y0051554D01*
X0161503Y0050997D01*
X0161662Y0050839D01*
X0160962Y0050139D01*
X0160265Y0048458D01*
X0160265Y0046638D01*
X0160962Y0044957D01*
X0161520Y0044398D01*
X0161436Y0044314D02*
X0153363Y0044314D01*
X0154961Y0045912D02*
X0160566Y0045912D01*
X0160265Y0047511D02*
X0156560Y0047511D01*
X0158158Y0049109D02*
X0160535Y0049109D01*
X0159757Y0050708D02*
X0161530Y0050708D01*
X0156633Y0055503D02*
X0149334Y0055503D01*
X0147736Y0053905D02*
X0155034Y0053905D01*
X0153435Y0052306D02*
X0146137Y0052306D01*
X0144539Y0050708D02*
X0151837Y0050708D01*
X0150238Y0049109D02*
X0142940Y0049109D01*
X0140844Y0050973D02*
X0182419Y0092548D01*
X0196919Y0092548D01*
X0191909Y0095348D02*
X0181862Y0095348D01*
X0180833Y0094922D01*
X0139684Y0053773D01*
X0124650Y0053773D01*
X0123550Y0054873D01*
X0121859Y0055573D01*
X0114829Y0055573D01*
X0113139Y0054873D01*
X0111845Y0053579D01*
X0111144Y0051888D01*
X0111144Y0050058D01*
X0111845Y0048368D01*
X0112364Y0047848D01*
X0104362Y0047848D01*
X0103333Y0047422D01*
X0102545Y0046634D01*
X0099684Y0043773D01*
X0094650Y0043773D01*
X0093550Y0044873D01*
X0091859Y0045573D01*
X0086904Y0045573D01*
X0087704Y0046373D01*
X0091859Y0046373D01*
X0093550Y0047074D01*
X0094844Y0048368D01*
X0095544Y0050058D01*
X0095544Y0051888D01*
X0094863Y0053532D01*
X0099793Y0058462D01*
X0100219Y0059491D01*
X0100219Y0101388D01*
X0111445Y0112614D01*
X0111144Y0111888D01*
X0111144Y0110058D01*
X0111845Y0108368D01*
X0113139Y0107074D01*
X0114829Y0106373D01*
X0121859Y0106373D01*
X0123550Y0107074D01*
X0124844Y0108368D01*
X0125544Y0110058D01*
X0125544Y0111888D01*
X0124844Y0113579D01*
X0123550Y0114873D01*
X0121859Y0115573D01*
X0114829Y0115573D01*
X0114103Y0115273D01*
X0115204Y0116373D01*
X0121859Y0116373D01*
X0123550Y0117074D01*
X0124844Y0118368D01*
X0125544Y0120058D01*
X0125544Y0121888D01*
X0124844Y0123579D01*
X0123550Y0124873D01*
X0121859Y0125573D01*
X0114829Y0125573D01*
X0113139Y0124873D01*
X0112039Y0123773D01*
X0102654Y0123773D01*
X0100219Y0126208D01*
X0100219Y0153888D01*
X0113326Y0166996D01*
X0114829Y0166373D01*
X0121859Y0166373D01*
X0123550Y0167074D01*
X0124844Y0168368D01*
X0125544Y0170058D01*
X0125544Y0171888D01*
X0124844Y0173579D01*
X0123550Y0174873D01*
X0121859Y0175573D01*
X0121144Y0175573D01*
X0121144Y0175682D01*
X0121199Y0175943D01*
X0121144Y0176234D01*
X0121144Y0176530D01*
X0121042Y0176776D01*
X0120993Y0177038D01*
X0120831Y0177286D01*
X0120718Y0177559D01*
X0120530Y0177748D01*
X0117012Y0183135D01*
X0117019Y0183143D01*
X0117019Y0186953D01*
X0114324Y0189648D01*
X0110514Y0189648D01*
X0107819Y0186953D01*
X0107819Y0183143D01*
X0110514Y0180448D01*
X0112078Y0180448D01*
X0115261Y0175573D01*
X0114829Y0175573D01*
X0113139Y0174873D01*
X0111845Y0173579D01*
X0111742Y0173330D01*
X0095833Y0157422D01*
X0095045Y0156634D01*
X0094619Y0155605D01*
X0094619Y0153804D01*
X0093550Y0154873D01*
X0091859Y0155573D01*
X0086904Y0155573D01*
X0087704Y0156373D01*
X0091859Y0156373D01*
X0093550Y0157074D01*
X0094844Y0158368D01*
X0095544Y0160058D01*
X0095544Y0161888D01*
X0094844Y0163579D01*
X0093550Y0164873D01*
X0091859Y0165573D01*
X0084829Y0165573D01*
X0083139Y0164873D01*
X0082692Y0164427D01*
X0082719Y0164491D01*
X0082719Y0167493D01*
X0083139Y0167074D01*
X0084829Y0166373D01*
X0091859Y0166373D01*
X0093550Y0167074D01*
X0094844Y0168368D01*
X0095544Y0170058D01*
X0095544Y0171888D01*
X0094844Y0173579D01*
X0093550Y0174873D01*
X0091859Y0175573D01*
X0084829Y0175573D01*
X0083139Y0174873D01*
X0082719Y0174453D01*
X0082719Y0175605D01*
X0082293Y0176634D01*
X0081505Y0177422D01*
X0077719Y0181208D01*
X0077719Y0187538D01*
X0078148Y0187716D01*
X0079751Y0189319D01*
X0080619Y0191414D01*
X0080619Y0193682D01*
X0079751Y0195777D01*
X0078148Y0197380D01*
X0076053Y0198248D01*
X0073785Y0198248D01*
X0071690Y0197380D01*
X0070087Y0195777D01*
X0069219Y0193682D01*
X0069219Y0191414D01*
X0070087Y0189319D01*
X0071690Y0187716D01*
X0072119Y0187538D01*
X0072119Y0179491D01*
X0072545Y0178462D01*
X0074059Y0176948D01*
X0073096Y0176948D01*
X0070519Y0174371D01*
X0070519Y0172548D01*
X0070519Y0170725D01*
X0073096Y0168148D01*
X0074919Y0168148D01*
X0076742Y0168148D01*
X0077119Y0168526D01*
X0077119Y0167848D01*
X0076862Y0167848D01*
X0075833Y0167422D01*
X0075559Y0167148D01*
X0073014Y0167148D01*
X0070319Y0164453D01*
X0070319Y0161908D01*
X0059940Y0151529D01*
X0059127Y0151529D01*
X0057664Y0150923D01*
X0056544Y0149803D01*
X0055938Y0148340D01*
X0055938Y0146756D01*
X0056521Y0145348D01*
X0014929Y0145348D01*
X0014751Y0145777D01*
X0013148Y0147380D01*
X0011053Y0148248D01*
X0009719Y0148248D01*
X0009719Y0172948D01*
X0011824Y0172948D01*
X0013222Y0174346D01*
X0015806Y0171762D01*
X0016593Y0170974D01*
X0017622Y0170548D01*
X0022959Y0170548D01*
X0030319Y0163188D01*
X0030319Y0160643D01*
X0033014Y0157948D01*
X0036824Y0157948D01*
X0039519Y0160643D01*
X0039519Y0164453D01*
X0036824Y0167148D01*
X0034279Y0167148D01*
X0033479Y0167948D01*
X0036824Y0167948D01*
X0039519Y0170643D01*
X0039519Y0174453D01*
X0036824Y0177148D01*
X0034279Y0177148D01*
X0031505Y0179922D01*
X0030476Y0180348D01*
X0023624Y0180348D01*
X0021824Y0182148D01*
X0020979Y0182148D01*
X0028279Y0189448D01*
X0037671Y0189448D01*
X0038700Y0189874D01*
X0039488Y0190662D01*
X0041616Y0192790D01*
X0041690Y0192716D01*
X0043785Y0191848D01*
X0046053Y0191848D01*
X0048148Y0192716D01*
X0049751Y0194319D01*
X0049919Y0194724D01*
X0050087Y0194319D01*
X0051690Y0192716D01*
X0053785Y0191848D01*
X0056053Y0191848D01*
X0058148Y0192716D01*
X0059751Y0194319D01*
X0060619Y0196414D01*
X0060619Y0198682D01*
X0060239Y0199598D01*
X0196969Y0199598D01*
X0196969Y0148248D01*
X0195785Y0148248D01*
X0195356Y0148070D01*
X0190080Y0153347D01*
X0189051Y0153773D01*
X0124650Y0153773D01*
X0123550Y0154873D01*
X0121859Y0155573D01*
X0114829Y0155573D01*
X0113139Y0154873D01*
X0111845Y0153579D01*
X0111144Y0151888D01*
X0111144Y0150058D01*
X0111845Y0148368D01*
X0113139Y0147074D01*
X0114829Y0146373D01*
X0121859Y0146373D01*
X0123550Y0147074D01*
X0124650Y0148173D01*
X0187334Y0148173D01*
X0191397Y0144111D01*
X0191219Y0143682D01*
X0191219Y0142208D01*
X0190080Y0143347D01*
X0189051Y0143773D01*
X0124650Y0143773D01*
X0123550Y0144873D01*
X0121859Y0145573D01*
X0114829Y0145573D01*
X0113139Y0144873D01*
X0111845Y0143579D01*
X0111144Y0141888D01*
X0111144Y0140058D01*
X0111845Y0138368D01*
X0113139Y0137074D01*
X0114829Y0136373D01*
X0121859Y0136373D01*
X0123550Y0137074D01*
X0124650Y0138173D01*
X0187334Y0138173D01*
X0191397Y0134111D01*
X0191219Y0133682D01*
X0191219Y0132208D01*
X0190080Y0133347D01*
X0189051Y0133773D01*
X0124650Y0133773D01*
X0123550Y0134873D01*
X0121859Y0135573D01*
X0114829Y0135573D01*
X0113139Y0134873D01*
X0111845Y0133579D01*
X0111144Y0131888D01*
X0111144Y0130058D01*
X0111845Y0128368D01*
X0113139Y0127074D01*
X0114829Y0126373D01*
X0121859Y0126373D01*
X0123550Y0127074D01*
X0124650Y0128173D01*
X0187334Y0128173D01*
X0191397Y0124111D01*
X0191219Y0123682D01*
X0191219Y0121414D01*
X0192087Y0119319D01*
X0193690Y0117716D01*
X0194095Y0117548D01*
X0193690Y0117380D01*
X0192087Y0115777D01*
X0191909Y0115348D01*
X0166862Y0115348D01*
X0165833Y0114922D01*
X0165045Y0114134D01*
X0144477Y0093565D01*
X0143819Y0095154D01*
X0142525Y0096448D01*
X0140834Y0097148D01*
X0139004Y0097148D01*
X0137313Y0096448D01*
X0136019Y0095154D01*
X0135448Y0093773D01*
X0124650Y0093773D01*
X0123550Y0094873D01*
X0121859Y0095573D01*
X0114829Y0095573D01*
X0113139Y0094873D01*
X0111845Y0093579D01*
X0111144Y0091888D01*
X0111144Y0090058D01*
X0111845Y0088368D01*
X0113139Y0087074D01*
X0114829Y0086373D01*
X0121859Y0086373D01*
X0123550Y0087074D01*
X0124650Y0088173D01*
X0138460Y0088173D01*
X0138902Y0087990D01*
X0124684Y0073773D01*
X0124650Y0073773D01*
X0123550Y0074873D01*
X0121859Y0075573D01*
X0114829Y0075573D01*
X0113139Y0074873D01*
X0111845Y0073579D01*
X0111144Y0071888D01*
X0111144Y0070058D01*
X0111845Y0068368D01*
X0113139Y0067074D01*
X0114829Y0066373D01*
X0121859Y0066373D01*
X0122585Y0066674D01*
X0121484Y0065573D01*
X0114829Y0065573D01*
X0113139Y0064873D01*
X0111845Y0063579D01*
X0111144Y0061888D01*
X0111144Y0060058D01*
X0111845Y0058368D01*
X0113139Y0057074D01*
X0114829Y0056373D01*
X0121859Y0056373D01*
X0123550Y0057074D01*
X0124844Y0058368D01*
X0125544Y0060058D01*
X0125544Y0061713D01*
X0135519Y0071688D01*
X0135519Y0070725D01*
X0138096Y0068148D01*
X0139919Y0068148D01*
X0141742Y0068148D01*
X0144319Y0070725D01*
X0144319Y0072548D01*
X0139919Y0072548D01*
X0139919Y0068148D01*
X0139919Y0072548D01*
X0139919Y0072548D01*
X0139919Y0072548D01*
X0144319Y0072548D01*
X0144319Y0074371D01*
X0141742Y0076948D01*
X0140779Y0076948D01*
X0163579Y0099748D01*
X0191909Y0099748D01*
X0192087Y0099319D01*
X0193690Y0097716D01*
X0194095Y0097548D01*
X0193690Y0097380D01*
X0192087Y0095777D01*
X0191909Y0095348D01*
X0191958Y0095466D02*
X0159297Y0095466D01*
X0157698Y0093868D02*
X0179779Y0093868D01*
X0178180Y0092269D02*
X0156100Y0092269D01*
X0154501Y0090671D02*
X0176582Y0090671D01*
X0174983Y0089072D02*
X0152903Y0089072D01*
X0151304Y0087474D02*
X0173385Y0087474D01*
X0171786Y0085875D02*
X0149706Y0085875D01*
X0148107Y0084277D02*
X0170188Y0084277D01*
X0168589Y0082678D02*
X0146509Y0082678D01*
X0144910Y0081080D02*
X0166991Y0081080D01*
X0165392Y0079481D02*
X0143312Y0079481D01*
X0141713Y0077883D02*
X0163794Y0077883D01*
X0162195Y0076284D02*
X0142406Y0076284D01*
X0144004Y0074686D02*
X0160597Y0074686D01*
X0158998Y0073087D02*
X0144319Y0073087D01*
X0144319Y0071488D02*
X0157400Y0071488D01*
X0155801Y0069890D02*
X0143483Y0069890D01*
X0141885Y0068291D02*
X0154203Y0068291D01*
X0152604Y0066693D02*
X0130524Y0066693D01*
X0132122Y0068291D02*
X0137953Y0068291D01*
X0139919Y0068291D02*
X0139919Y0068291D01*
X0139919Y0069890D02*
X0139919Y0069890D01*
X0139919Y0071488D02*
X0139919Y0071488D01*
X0136355Y0069890D02*
X0133721Y0069890D01*
X0135319Y0071488D02*
X0135519Y0071488D01*
X0128925Y0065094D02*
X0151006Y0065094D01*
X0149407Y0063496D02*
X0127327Y0063496D01*
X0125728Y0061897D02*
X0147809Y0061897D01*
X0146210Y0060299D02*
X0125544Y0060299D01*
X0124982Y0058700D02*
X0144612Y0058700D01*
X0143013Y0057102D02*
X0123578Y0057102D01*
X0122028Y0055503D02*
X0141415Y0055503D01*
X0139816Y0053905D02*
X0124518Y0053905D01*
X0118344Y0050973D02*
X0140844Y0050973D01*
X0150262Y0045173D02*
X0163111Y0058022D01*
X0166570Y0058022D01*
X0169015Y0055577D01*
X0169015Y0051247D01*
X0169565Y0050698D01*
X0172922Y0047511D02*
X0196969Y0047511D01*
X0196969Y0049109D02*
X0173858Y0049109D01*
X0174139Y0050708D02*
X0196969Y0050708D01*
X0196969Y0052306D02*
X0173850Y0052306D01*
X0172827Y0053905D02*
X0196969Y0053905D01*
X0196969Y0055503D02*
X0189267Y0055503D01*
X0189230Y0055466D02*
X0191371Y0057607D01*
X0192529Y0060404D01*
X0192529Y0063432D01*
X0191371Y0066229D01*
X0189230Y0068370D01*
X0186433Y0069528D01*
X0183405Y0069528D01*
X0180608Y0068370D01*
X0178467Y0066229D01*
X0177309Y0063432D01*
X0177309Y0060404D01*
X0178467Y0057607D01*
X0180608Y0055466D01*
X0183405Y0054308D01*
X0186433Y0054308D01*
X0189230Y0055466D01*
X0190865Y0057102D02*
X0196969Y0057102D01*
X0196969Y0058700D02*
X0191823Y0058700D01*
X0192486Y0060299D02*
X0196969Y0060299D01*
X0196969Y0061897D02*
X0192529Y0061897D01*
X0192503Y0063496D02*
X0196969Y0063496D01*
X0196969Y0065094D02*
X0191841Y0065094D01*
X0190907Y0066693D02*
X0196969Y0066693D01*
X0196719Y0067048D02*
X0196719Y0072348D01*
X0191419Y0072348D01*
X0191419Y0072115D01*
X0191554Y0071260D01*
X0191822Y0070437D01*
X0192215Y0069665D01*
X0192724Y0068965D01*
X0193336Y0068353D01*
X0194036Y0067844D01*
X0194808Y0067451D01*
X0195631Y0067183D01*
X0196486Y0067048D01*
X0196719Y0067048D01*
X0196719Y0068291D02*
X0196969Y0068291D01*
X0196969Y0069890D02*
X0196719Y0069890D01*
X0196719Y0071488D02*
X0196969Y0071488D01*
X0193421Y0068291D02*
X0189308Y0068291D01*
X0192101Y0069890D02*
X0163721Y0069890D01*
X0165319Y0071488D02*
X0191518Y0071488D01*
X0191436Y0073087D02*
X0166918Y0073087D01*
X0168516Y0074686D02*
X0191835Y0074686D01*
X0192877Y0076284D02*
X0170115Y0076284D01*
X0171713Y0077883D02*
X0193523Y0077883D01*
X0192020Y0079481D02*
X0173312Y0079481D01*
X0174910Y0081080D02*
X0191358Y0081080D01*
X0191219Y0082678D02*
X0176509Y0082678D01*
X0178107Y0084277D02*
X0191465Y0084277D01*
X0192185Y0085875D02*
X0179706Y0085875D01*
X0181304Y0087474D02*
X0193916Y0087474D01*
X0192334Y0089072D02*
X0182903Y0089072D01*
X0193375Y0097065D02*
X0160895Y0097065D01*
X0162494Y0098663D02*
X0192743Y0098663D01*
X0196919Y0102548D02*
X0162419Y0102548D01*
X0120844Y0060973D01*
X0118344Y0060973D01*
X0113673Y0065094D02*
X0100219Y0065094D01*
X0100219Y0063496D02*
X0111810Y0063496D01*
X0111148Y0061897D02*
X0100219Y0061897D01*
X0100219Y0060299D02*
X0111144Y0060299D01*
X0111707Y0058700D02*
X0099891Y0058700D01*
X0098433Y0057102D02*
X0113110Y0057102D01*
X0114661Y0055503D02*
X0096834Y0055503D01*
X0095236Y0053905D02*
X0112170Y0053905D01*
X0111317Y0052306D02*
X0095371Y0052306D01*
X0095544Y0050708D02*
X0111144Y0050708D01*
X0111537Y0049109D02*
X0095151Y0049109D01*
X0093987Y0047511D02*
X0103548Y0047511D01*
X0101823Y0045912D02*
X0087243Y0045912D01*
X0088344Y0050973D02*
X0079919Y0042548D01*
X0069919Y0042548D01*
X0069919Y0017548D01*
X0074919Y0017548D01*
X0079919Y0012548D01*
X0099919Y0012548D01*
X0102819Y0016153D02*
X0101824Y0017148D01*
X0098014Y0017148D01*
X0096214Y0015348D01*
X0083624Y0015348D01*
X0081824Y0017148D01*
X0079279Y0017148D01*
X0078279Y0018148D01*
X0079919Y0018148D01*
X0081742Y0018148D01*
X0084319Y0020725D01*
X0084319Y0022548D01*
X0079919Y0022548D01*
X0079919Y0018148D01*
X0079919Y0022548D01*
X0079919Y0022548D01*
X0075519Y0022548D01*
X0075519Y0020725D01*
X0076194Y0020051D01*
X0075476Y0020348D01*
X0073624Y0020348D01*
X0072719Y0021253D01*
X0072719Y0038843D01*
X0073624Y0039748D01*
X0080476Y0039748D01*
X0081156Y0040030D01*
X0081845Y0038368D01*
X0083139Y0037074D01*
X0084829Y0036373D01*
X0091859Y0036373D01*
X0093550Y0037074D01*
X0094650Y0038173D01*
X0101401Y0038173D01*
X0102430Y0038599D01*
X0106079Y0042248D01*
X0111293Y0042248D01*
X0111144Y0041888D01*
X0111144Y0040058D01*
X0111825Y0038414D01*
X0105045Y0031634D01*
X0104619Y0030605D01*
X0104619Y0021253D01*
X0104319Y0020953D01*
X0104319Y0022548D01*
X0099919Y0022548D01*
X0099919Y0018148D01*
X0101742Y0018148D01*
X0102819Y0019226D01*
X0102819Y0016153D01*
X0102819Y0017139D02*
X0101833Y0017139D01*
X0102331Y0018738D02*
X0102819Y0018738D01*
X0099919Y0018738D02*
X0099919Y0018738D01*
X0099919Y0018148D02*
X0098096Y0018148D01*
X0095519Y0020725D01*
X0095519Y0022548D01*
X0099919Y0022548D01*
X0099919Y0022548D01*
X0099919Y0018148D01*
X0098005Y0017139D02*
X0081833Y0017139D01*
X0082331Y0018738D02*
X0097507Y0018738D01*
X0095908Y0020336D02*
X0083930Y0020336D01*
X0084319Y0021935D02*
X0095519Y0021935D01*
X0095519Y0022548D02*
X0099919Y0022548D01*
X0099919Y0022548D01*
X0099919Y0022548D01*
X0099919Y0026948D01*
X0098096Y0026948D01*
X0095519Y0024371D01*
X0095519Y0022548D01*
X0095519Y0023533D02*
X0084319Y0023533D01*
X0084319Y0024371D02*
X0081742Y0026948D01*
X0079919Y0026948D01*
X0078096Y0026948D01*
X0075519Y0024371D01*
X0075519Y0022548D01*
X0079919Y0022548D01*
X0079919Y0022548D01*
X0079919Y0022548D01*
X0079919Y0026948D01*
X0079919Y0022548D01*
X0079919Y0022548D01*
X0084319Y0022548D01*
X0084319Y0024371D01*
X0083558Y0025132D02*
X0096280Y0025132D01*
X0097879Y0026730D02*
X0081959Y0026730D01*
X0079919Y0026730D02*
X0079919Y0026730D01*
X0079919Y0025132D02*
X0079919Y0025132D01*
X0079919Y0023533D02*
X0079919Y0023533D01*
X0079919Y0021935D02*
X0079919Y0021935D01*
X0079919Y0020336D02*
X0079919Y0020336D01*
X0079919Y0018738D02*
X0079919Y0018738D01*
X0075908Y0020336D02*
X0075505Y0020336D01*
X0075519Y0021935D02*
X0072719Y0021935D01*
X0072719Y0023533D02*
X0075519Y0023533D01*
X0076280Y0025132D02*
X0072719Y0025132D01*
X0072719Y0026730D02*
X0077879Y0026730D01*
X0072719Y0028329D02*
X0104619Y0028329D01*
X0104619Y0029927D02*
X0072719Y0029927D01*
X0072719Y0031526D02*
X0105000Y0031526D01*
X0106535Y0033124D02*
X0072719Y0033124D01*
X0072719Y0034723D02*
X0108134Y0034723D01*
X0109732Y0036321D02*
X0072719Y0036321D01*
X0072719Y0037920D02*
X0082292Y0037920D01*
X0081368Y0039518D02*
X0073395Y0039518D01*
X0073624Y0045348D02*
X0071824Y0047148D01*
X0068014Y0047148D01*
X0065319Y0044453D01*
X0065319Y0040643D01*
X0067119Y0038843D01*
X0067119Y0021253D01*
X0066019Y0020154D01*
X0065319Y0018463D01*
X0065319Y0016633D01*
X0066019Y0014942D01*
X0067313Y0013648D01*
X0069004Y0012948D01*
X0070834Y0012948D01*
X0072525Y0013648D01*
X0073624Y0014748D01*
X0073759Y0014748D01*
X0075319Y0013188D01*
X0075319Y0012348D01*
X0039519Y0012348D01*
X0039519Y0013188D01*
X0045519Y0019188D01*
X0045519Y0017548D01*
X0045519Y0015725D01*
X0048096Y0013148D01*
X0049919Y0013148D01*
X0051742Y0013148D01*
X0054319Y0015725D01*
X0054319Y0017548D01*
X0049919Y0017548D01*
X0049919Y0013148D01*
X0049919Y0017548D01*
X0049919Y0017548D01*
X0045519Y0017548D01*
X0049919Y0017548D01*
X0049919Y0017548D01*
X0049919Y0017548D01*
X0049919Y0021948D01*
X0048279Y0021948D01*
X0059793Y0033462D01*
X0060219Y0034491D01*
X0060219Y0048888D01*
X0065519Y0054188D01*
X0065519Y0052548D01*
X0065519Y0050725D01*
X0068096Y0048148D01*
X0069919Y0048148D01*
X0071742Y0048148D01*
X0074319Y0050725D01*
X0074319Y0052548D01*
X0069919Y0052548D01*
X0069919Y0048148D01*
X0069919Y0052548D01*
X0069919Y0052548D01*
X0065519Y0052548D01*
X0069919Y0052548D01*
X0069919Y0052548D01*
X0069919Y0052548D01*
X0069919Y0056948D01*
X0068279Y0056948D01*
X0071079Y0059748D01*
X0081273Y0059748D01*
X0081845Y0058368D01*
X0083139Y0057074D01*
X0084829Y0056373D01*
X0089784Y0056373D01*
X0088984Y0055573D01*
X0084829Y0055573D01*
X0083139Y0054873D01*
X0081845Y0053579D01*
X0081144Y0051888D01*
X0081144Y0050058D01*
X0081825Y0048414D01*
X0078759Y0045348D01*
X0073624Y0045348D01*
X0073060Y0045912D02*
X0079323Y0045912D01*
X0080922Y0047511D02*
X0060219Y0047511D01*
X0060219Y0045912D02*
X0066778Y0045912D01*
X0065319Y0044314D02*
X0060219Y0044314D01*
X0060219Y0042715D02*
X0065319Y0042715D01*
X0065319Y0041117D02*
X0060219Y0041117D01*
X0060219Y0039518D02*
X0066443Y0039518D01*
X0067119Y0037920D02*
X0060219Y0037920D01*
X0060219Y0036321D02*
X0067119Y0036321D01*
X0067119Y0034723D02*
X0060219Y0034723D01*
X0059455Y0033124D02*
X0067119Y0033124D01*
X0067119Y0031526D02*
X0057856Y0031526D01*
X0056258Y0029927D02*
X0067119Y0029927D01*
X0067119Y0028329D02*
X0054659Y0028329D01*
X0053061Y0026730D02*
X0067119Y0026730D01*
X0067119Y0025132D02*
X0051462Y0025132D01*
X0049864Y0023533D02*
X0067119Y0023533D01*
X0067119Y0021935D02*
X0051755Y0021935D01*
X0051742Y0021948D02*
X0049919Y0021948D01*
X0049919Y0017548D01*
X0049919Y0017548D01*
X0054319Y0017548D01*
X0054319Y0019371D01*
X0051742Y0021948D01*
X0049919Y0021935D02*
X0049919Y0021935D01*
X0049919Y0020336D02*
X0049919Y0020336D01*
X0049919Y0018738D02*
X0049919Y0018738D01*
X0049919Y0017139D02*
X0049919Y0017139D01*
X0049919Y0015541D02*
X0049919Y0015541D01*
X0049919Y0013942D02*
X0049919Y0013942D01*
X0047302Y0013942D02*
X0040273Y0013942D01*
X0041871Y0015541D02*
X0045704Y0015541D01*
X0045519Y0017139D02*
X0043470Y0017139D01*
X0045068Y0018738D02*
X0045519Y0018738D01*
X0039919Y0022548D02*
X0034919Y0022548D01*
X0038624Y0025348D02*
X0036824Y0027148D01*
X0033014Y0027148D01*
X0030319Y0024453D01*
X0030319Y0020643D01*
X0033014Y0017948D01*
X0036359Y0017948D01*
X0035559Y0017148D01*
X0033014Y0017148D01*
X0030319Y0014453D01*
X0030319Y0012348D01*
X0009719Y0012348D01*
X0009719Y0072348D01*
X0010119Y0072348D01*
X0010119Y0067048D01*
X0010352Y0067048D01*
X0011207Y0067183D01*
X0012030Y0067451D01*
X0012802Y0067844D01*
X0013502Y0068353D01*
X0014114Y0068965D01*
X0014623Y0069665D01*
X0015016Y0070437D01*
X0015284Y0071260D01*
X0015419Y0072115D01*
X0015419Y0072348D01*
X0010119Y0072348D01*
X0010119Y0072748D01*
X0015419Y0072748D01*
X0015419Y0072981D01*
X0015284Y0073836D01*
X0015016Y0074659D01*
X0014623Y0075431D01*
X0014114Y0076131D01*
X0013502Y0076743D01*
X0012802Y0077252D01*
X0012455Y0077429D01*
X0013148Y0077716D01*
X0014751Y0079319D01*
X0014929Y0079748D01*
X0028759Y0079748D01*
X0030319Y0078188D01*
X0030319Y0075643D01*
X0033014Y0072948D01*
X0036824Y0072948D01*
X0039519Y0075643D01*
X0039519Y0079453D01*
X0036824Y0082148D01*
X0034279Y0082148D01*
X0031505Y0084922D01*
X0030476Y0085348D01*
X0014929Y0085348D01*
X0014751Y0085777D01*
X0013148Y0087380D01*
X0012743Y0087548D01*
X0013148Y0087716D01*
X0014751Y0089319D01*
X0014929Y0089748D01*
X0038759Y0089748D01*
X0046359Y0082148D01*
X0043014Y0082148D01*
X0040319Y0079453D01*
X0040319Y0075643D01*
X0043014Y0072948D01*
X0045559Y0072948D01*
X0052119Y0066388D01*
X0052119Y0038708D01*
X0049319Y0035908D01*
X0049319Y0037548D01*
X0044919Y0037548D01*
X0044919Y0033148D01*
X0046559Y0033148D01*
X0038759Y0025348D01*
X0038624Y0025348D01*
X0037242Y0026730D02*
X0040141Y0026730D01*
X0041740Y0028329D02*
X0009719Y0028329D01*
X0009719Y0029927D02*
X0043338Y0029927D01*
X0044937Y0031526D02*
X0009719Y0031526D01*
X0009719Y0033124D02*
X0013782Y0033124D01*
X0014190Y0032716D02*
X0012587Y0034319D01*
X0011719Y0036414D01*
X0011719Y0038682D01*
X0012587Y0040777D01*
X0014190Y0042380D01*
X0016285Y0043248D01*
X0018553Y0043248D01*
X0020648Y0042380D01*
X0022251Y0040777D01*
X0022429Y0040348D01*
X0031214Y0040348D01*
X0033014Y0042148D01*
X0036824Y0042148D01*
X0039519Y0039453D01*
X0039519Y0035643D01*
X0036824Y0032948D01*
X0033014Y0032948D01*
X0031214Y0034748D01*
X0022429Y0034748D01*
X0022251Y0034319D01*
X0020648Y0032716D01*
X0018553Y0031848D01*
X0016285Y0031848D01*
X0014190Y0032716D01*
X0012420Y0034723D02*
X0009719Y0034723D01*
X0009719Y0036321D02*
X0011758Y0036321D01*
X0011719Y0037920D02*
X0009719Y0037920D01*
X0009719Y0039518D02*
X0012065Y0039518D01*
X0012927Y0041117D02*
X0009719Y0041117D01*
X0009719Y0042715D02*
X0014999Y0042715D01*
X0019839Y0042715D02*
X0052119Y0042715D01*
X0052119Y0041117D02*
X0047573Y0041117D01*
X0046742Y0041948D02*
X0044919Y0041948D01*
X0043096Y0041948D01*
X0040519Y0039371D01*
X0040519Y0037548D01*
X0040519Y0035725D01*
X0043096Y0033148D01*
X0044919Y0033148D01*
X0044919Y0037548D01*
X0044919Y0037548D01*
X0040519Y0037548D01*
X0044919Y0037548D01*
X0044919Y0037548D01*
X0044919Y0037548D01*
X0044919Y0041948D01*
X0044919Y0037548D01*
X0044919Y0037548D01*
X0049319Y0037548D01*
X0049319Y0039371D01*
X0046742Y0041948D01*
X0044919Y0041117D02*
X0044919Y0041117D01*
X0044919Y0039518D02*
X0044919Y0039518D01*
X0044919Y0037920D02*
X0044919Y0037920D01*
X0044919Y0036321D02*
X0044919Y0036321D01*
X0044919Y0034723D02*
X0044919Y0034723D01*
X0046535Y0033124D02*
X0037001Y0033124D01*
X0038599Y0034723D02*
X0041522Y0034723D01*
X0040519Y0036321D02*
X0039519Y0036321D01*
X0039519Y0037920D02*
X0040519Y0037920D01*
X0040667Y0039518D02*
X0039454Y0039518D01*
X0037856Y0041117D02*
X0042265Y0041117D01*
X0034919Y0037548D02*
X0017419Y0037548D01*
X0021056Y0033124D02*
X0032837Y0033124D01*
X0031239Y0034723D02*
X0022418Y0034723D01*
X0021911Y0041117D02*
X0031982Y0041117D01*
X0021002Y0053353D02*
X0020302Y0052844D01*
X0019530Y0052451D01*
X0018707Y0052183D01*
X0017852Y0052048D01*
X0017619Y0052048D01*
X0017619Y0057348D01*
X0017219Y0057348D01*
X0017219Y0052048D01*
X0016986Y0052048D01*
X0016131Y0052183D01*
X0015308Y0052451D01*
X0014536Y0052844D01*
X0013836Y0053353D01*
X0013224Y0053965D01*
X0012715Y0054665D01*
X0012322Y0055437D01*
X0012054Y0056260D01*
X0011919Y0057115D01*
X0011919Y0057348D01*
X0017219Y0057348D01*
X0017219Y0057748D01*
X0011919Y0057748D01*
X0011919Y0057981D01*
X0012054Y0058836D01*
X0012322Y0059659D01*
X0012715Y0060431D01*
X0013224Y0061131D01*
X0013836Y0061743D01*
X0014536Y0062252D01*
X0015308Y0062645D01*
X0016131Y0062913D01*
X0016986Y0063048D01*
X0017219Y0063048D01*
X0017219Y0057748D01*
X0017619Y0057748D01*
X0022919Y0057748D01*
X0022919Y0057981D01*
X0022784Y0058836D01*
X0022516Y0059659D01*
X0022123Y0060431D01*
X0021614Y0061131D01*
X0021002Y0061743D01*
X0020302Y0062252D01*
X0019530Y0062645D01*
X0018707Y0062913D01*
X0017852Y0063048D01*
X0017619Y0063048D01*
X0017619Y0057748D01*
X0017619Y0057348D01*
X0022919Y0057348D01*
X0022919Y0057115D01*
X0022784Y0056260D01*
X0022516Y0055437D01*
X0022123Y0054665D01*
X0021614Y0053965D01*
X0021002Y0053353D01*
X0021554Y0053905D02*
X0052119Y0053905D01*
X0052119Y0055503D02*
X0022538Y0055503D01*
X0022917Y0057102D02*
X0052119Y0057102D01*
X0052119Y0058700D02*
X0022805Y0058700D01*
X0022190Y0060299D02*
X0052119Y0060299D01*
X0052119Y0061897D02*
X0020790Y0061897D01*
X0017619Y0061897D02*
X0017219Y0061897D01*
X0017219Y0060299D02*
X0017619Y0060299D01*
X0017619Y0058700D02*
X0017219Y0058700D01*
X0017219Y0057102D02*
X0017619Y0057102D01*
X0017619Y0055503D02*
X0017219Y0055503D01*
X0017219Y0053905D02*
X0017619Y0053905D01*
X0017619Y0052306D02*
X0017219Y0052306D01*
X0015753Y0052306D02*
X0009719Y0052306D01*
X0009719Y0050708D02*
X0052119Y0050708D01*
X0052119Y0052306D02*
X0019085Y0052306D01*
X0013284Y0053905D02*
X0009719Y0053905D01*
X0009719Y0055503D02*
X0012300Y0055503D01*
X0011921Y0057102D02*
X0009719Y0057102D01*
X0009719Y0058700D02*
X0012033Y0058700D01*
X0012648Y0060299D02*
X0009719Y0060299D01*
X0009719Y0061897D02*
X0014048Y0061897D01*
X0009719Y0063496D02*
X0052119Y0063496D01*
X0052119Y0065094D02*
X0009719Y0065094D01*
X0009719Y0066693D02*
X0051814Y0066693D01*
X0050216Y0068291D02*
X0013417Y0068291D01*
X0014737Y0069890D02*
X0048617Y0069890D01*
X0047019Y0071488D02*
X0015320Y0071488D01*
X0015402Y0073087D02*
X0032875Y0073087D01*
X0031276Y0074686D02*
X0015003Y0074686D01*
X0013961Y0076284D02*
X0030319Y0076284D01*
X0030319Y0077883D02*
X0013315Y0077883D01*
X0014818Y0079481D02*
X0029026Y0079481D01*
X0029919Y0082548D02*
X0034919Y0077548D01*
X0038562Y0074686D02*
X0041276Y0074686D01*
X0040319Y0076284D02*
X0039519Y0076284D01*
X0039519Y0077883D02*
X0040319Y0077883D01*
X0040347Y0079481D02*
X0039491Y0079481D01*
X0037893Y0081080D02*
X0041945Y0081080D01*
X0044231Y0084277D02*
X0032150Y0084277D01*
X0033749Y0082678D02*
X0045829Y0082678D01*
X0042632Y0085875D02*
X0014653Y0085875D01*
X0012922Y0087474D02*
X0041034Y0087474D01*
X0039435Y0089072D02*
X0014504Y0089072D01*
X0009919Y0092548D02*
X0039919Y0092548D01*
X0069919Y0062548D01*
X0057419Y0050048D01*
X0057419Y0035048D01*
X0034919Y0012548D01*
X0031406Y0015541D02*
X0009719Y0015541D01*
X0009719Y0017139D02*
X0033005Y0017139D01*
X0032224Y0018738D02*
X0009719Y0018738D01*
X0009719Y0020336D02*
X0030626Y0020336D01*
X0030319Y0021935D02*
X0009719Y0021935D01*
X0009719Y0023533D02*
X0030319Y0023533D01*
X0030997Y0025132D02*
X0009719Y0025132D01*
X0009719Y0026730D02*
X0032596Y0026730D01*
X0039919Y0022548D02*
X0054919Y0037548D01*
X0054919Y0067548D01*
X0044919Y0077548D01*
X0042875Y0073087D02*
X0036963Y0073087D01*
X0029919Y0082548D02*
X0009919Y0082548D01*
X0009719Y0071488D02*
X0010119Y0071488D01*
X0010119Y0069890D02*
X0009719Y0069890D01*
X0009719Y0068291D02*
X0010119Y0068291D01*
X0009719Y0049109D02*
X0052119Y0049109D01*
X0052119Y0047511D02*
X0009719Y0047511D01*
X0009719Y0045912D02*
X0052119Y0045912D01*
X0052119Y0044314D02*
X0009719Y0044314D01*
X0009719Y0013942D02*
X0030319Y0013942D01*
X0052536Y0013942D02*
X0067020Y0013942D01*
X0065772Y0015541D02*
X0054134Y0015541D01*
X0054319Y0017139D02*
X0065319Y0017139D01*
X0065433Y0018738D02*
X0054319Y0018738D01*
X0053353Y0020336D02*
X0066202Y0020336D01*
X0072818Y0013942D02*
X0074565Y0013942D01*
X0083432Y0015541D02*
X0096406Y0015541D01*
X0099919Y0020336D02*
X0099919Y0020336D01*
X0099919Y0021935D02*
X0099919Y0021935D01*
X0099919Y0022548D02*
X0104319Y0022548D01*
X0104319Y0024371D01*
X0101742Y0026948D01*
X0099919Y0026948D01*
X0099919Y0022548D01*
X0099919Y0022548D01*
X0099919Y0023533D02*
X0099919Y0023533D01*
X0099919Y0025132D02*
X0099919Y0025132D01*
X0099919Y0026730D02*
X0099919Y0026730D01*
X0101959Y0026730D02*
X0104619Y0026730D01*
X0104619Y0025132D02*
X0103558Y0025132D01*
X0104319Y0023533D02*
X0104619Y0023533D01*
X0104619Y0021935D02*
X0104319Y0021935D01*
X0107419Y0017548D02*
X0114919Y0017548D01*
X0119919Y0012548D01*
X0137045Y0012548D01*
X0142045Y0017548D01*
X0140681Y0021935D02*
X0136564Y0021935D01*
X0131778Y0021935D02*
X0124319Y0021935D01*
X0124319Y0022548D02*
X0124319Y0024371D01*
X0121742Y0026948D01*
X0119919Y0026948D01*
X0118096Y0026948D01*
X0115519Y0024371D01*
X0115519Y0022548D01*
X0119919Y0022548D01*
X0119919Y0022548D01*
X0119919Y0022548D01*
X0119919Y0026948D01*
X0119919Y0022548D01*
X0119919Y0022548D01*
X0124319Y0022548D01*
X0124319Y0023533D02*
X0147119Y0023533D01*
X0147119Y0021935D02*
X0143409Y0021935D01*
X0145727Y0020336D02*
X0146237Y0020336D01*
X0147119Y0025132D02*
X0123558Y0025132D01*
X0121959Y0026730D02*
X0147119Y0026730D01*
X0147960Y0028329D02*
X0110219Y0028329D01*
X0110219Y0026730D02*
X0117879Y0026730D01*
X0119919Y0026730D02*
X0119919Y0026730D01*
X0119919Y0025132D02*
X0119919Y0025132D01*
X0119919Y0023533D02*
X0119919Y0023533D01*
X0119919Y0021935D02*
X0119919Y0021935D01*
X0119919Y0020336D02*
X0119919Y0020336D01*
X0119919Y0018738D02*
X0119919Y0018738D01*
X0121833Y0017139D02*
X0129202Y0017139D01*
X0129286Y0018738D02*
X0122331Y0018738D01*
X0123930Y0020336D02*
X0129948Y0020336D01*
X0129625Y0015541D02*
X0123432Y0015541D01*
X0115908Y0020336D02*
X0115505Y0020336D01*
X0115519Y0021935D02*
X0110219Y0021935D01*
X0110219Y0023533D02*
X0115519Y0023533D01*
X0116280Y0025132D02*
X0110219Y0025132D01*
X0111258Y0029927D02*
X0149559Y0029927D01*
X0151157Y0031526D02*
X0112856Y0031526D01*
X0114455Y0033124D02*
X0152756Y0033124D01*
X0154354Y0034723D02*
X0116053Y0034723D01*
X0117652Y0036321D02*
X0155953Y0036321D01*
X0157551Y0037920D02*
X0124396Y0037920D01*
X0125321Y0039518D02*
X0159150Y0039518D01*
X0160265Y0041117D02*
X0125544Y0041117D01*
X0118344Y0040973D02*
X0107419Y0030048D01*
X0107419Y0017548D01*
X0111331Y0037920D02*
X0094396Y0037920D01*
X0094109Y0044314D02*
X0100225Y0044314D01*
X0100844Y0040973D02*
X0104919Y0045048D01*
X0113879Y0045048D01*
X0114004Y0045173D01*
X0150262Y0045173D01*
X0151645Y0042715D02*
X0160496Y0042715D01*
X0163872Y0036321D02*
X0177984Y0036321D01*
X0178467Y0037489D02*
X0177309Y0034692D01*
X0177309Y0031664D01*
X0178467Y0028867D01*
X0180608Y0026726D01*
X0183405Y0025568D01*
X0186433Y0025568D01*
X0189230Y0026726D01*
X0191371Y0028867D01*
X0192529Y0031664D01*
X0192529Y0034692D01*
X0191371Y0037489D01*
X0189230Y0039630D01*
X0186433Y0040788D01*
X0183405Y0040788D01*
X0180608Y0039630D01*
X0178467Y0037489D01*
X0178898Y0037920D02*
X0167981Y0037920D01*
X0169075Y0039518D02*
X0180497Y0039518D01*
X0177322Y0034723D02*
X0162274Y0034723D01*
X0160675Y0033124D02*
X0177309Y0033124D01*
X0177366Y0031526D02*
X0159077Y0031526D01*
X0157478Y0029927D02*
X0178028Y0029927D01*
X0179006Y0028329D02*
X0155880Y0028329D01*
X0154281Y0026730D02*
X0180604Y0026730D01*
X0189234Y0026730D02*
X0196969Y0026730D01*
X0196969Y0025132D02*
X0152719Y0025132D01*
X0159157Y0021935D02*
X0163274Y0021935D01*
X0162246Y0013942D02*
X0160657Y0013942D01*
X0154929Y0013942D02*
X0152783Y0013942D01*
X0147055Y0013942D02*
X0144909Y0013942D01*
X0169088Y0013942D02*
X0196969Y0013942D01*
X0196969Y0028329D02*
X0190832Y0028329D01*
X0191810Y0029927D02*
X0196969Y0029927D01*
X0196969Y0031526D02*
X0192472Y0031526D01*
X0192529Y0033124D02*
X0196969Y0033124D01*
X0196969Y0034723D02*
X0192516Y0034723D01*
X0191854Y0036321D02*
X0196969Y0036321D01*
X0196969Y0037920D02*
X0190940Y0037920D01*
X0189341Y0039518D02*
X0196969Y0039518D01*
X0196969Y0041117D02*
X0172753Y0041117D01*
X0173819Y0042715D02*
X0196969Y0042715D01*
X0196969Y0044314D02*
X0174139Y0044314D01*
X0173889Y0045912D02*
X0196969Y0045912D01*
X0180571Y0055503D02*
X0171815Y0055503D01*
X0171414Y0057102D02*
X0178973Y0057102D01*
X0178015Y0058700D02*
X0169851Y0058700D01*
X0170601Y0057950D02*
X0170601Y0057950D01*
X0168252Y0060299D02*
X0177352Y0060299D01*
X0177309Y0061897D02*
X0155728Y0061897D01*
X0154130Y0060299D02*
X0161428Y0060299D01*
X0159830Y0058700D02*
X0152531Y0058700D01*
X0150933Y0057102D02*
X0158231Y0057102D01*
X0157327Y0063496D02*
X0177335Y0063496D01*
X0177997Y0065094D02*
X0158925Y0065094D01*
X0160524Y0066693D02*
X0178931Y0066693D01*
X0180530Y0068291D02*
X0162122Y0068291D01*
X0138344Y0090973D02*
X0139919Y0092548D01*
X0138344Y0090973D02*
X0118344Y0090973D01*
X0114571Y0095466D02*
X0100219Y0095466D01*
X0100219Y0093868D02*
X0112133Y0093868D01*
X0111302Y0092269D02*
X0100219Y0092269D01*
X0100219Y0090671D02*
X0111144Y0090671D01*
X0111553Y0089072D02*
X0100219Y0089072D01*
X0100219Y0087474D02*
X0112738Y0087474D01*
X0114055Y0085051D02*
X0113438Y0084736D01*
X0112878Y0084329D01*
X0112388Y0083840D01*
X0111981Y0083279D01*
X0111667Y0082662D01*
X0111453Y0082004D01*
X0111344Y0081320D01*
X0111344Y0080973D01*
X0111344Y0080627D01*
X0111453Y0079943D01*
X0111667Y0079284D01*
X0111981Y0078667D01*
X0112388Y0078107D01*
X0112878Y0077617D01*
X0113438Y0077210D01*
X0114055Y0076896D01*
X0114714Y0076682D01*
X0115398Y0076573D01*
X0118344Y0076573D01*
X0118344Y0080973D01*
X0118344Y0080973D01*
X0111344Y0080973D01*
X0118344Y0080973D01*
X0118344Y0080973D01*
X0118344Y0076573D01*
X0121290Y0076573D01*
X0121975Y0076682D01*
X0122633Y0076896D01*
X0123250Y0077210D01*
X0123811Y0077617D01*
X0124300Y0078107D01*
X0124707Y0078667D01*
X0125022Y0079284D01*
X0125236Y0079943D01*
X0125344Y0080627D01*
X0125344Y0080973D01*
X0118344Y0080973D01*
X0118344Y0080973D01*
X0118344Y0085373D01*
X0115398Y0085373D01*
X0114714Y0085265D01*
X0114055Y0085051D01*
X0112825Y0084277D02*
X0100219Y0084277D01*
X0100219Y0085875D02*
X0136786Y0085875D01*
X0135188Y0084277D02*
X0123863Y0084277D01*
X0123811Y0084329D02*
X0123250Y0084736D01*
X0122633Y0085051D01*
X0121975Y0085265D01*
X0121290Y0085373D01*
X0118344Y0085373D01*
X0118344Y0080973D01*
X0118344Y0080973D01*
X0125344Y0080973D01*
X0125344Y0081320D01*
X0125236Y0082004D01*
X0125022Y0082662D01*
X0124707Y0083279D01*
X0124300Y0083840D01*
X0123811Y0084329D01*
X0125014Y0082678D02*
X0133589Y0082678D01*
X0131991Y0081080D02*
X0125344Y0081080D01*
X0125086Y0079481D02*
X0130392Y0079481D01*
X0128794Y0077883D02*
X0124076Y0077883D01*
X0123737Y0074686D02*
X0125597Y0074686D01*
X0127195Y0076284D02*
X0100219Y0076284D01*
X0100219Y0074686D02*
X0112951Y0074686D01*
X0111641Y0073087D02*
X0100219Y0073087D01*
X0100219Y0071488D02*
X0111144Y0071488D01*
X0111214Y0069890D02*
X0100219Y0069890D01*
X0100219Y0068291D02*
X0111921Y0068291D01*
X0114057Y0066693D02*
X0100219Y0066693D01*
X0097419Y0060048D02*
X0088344Y0050973D01*
X0084661Y0055503D02*
X0073186Y0055503D01*
X0074319Y0054371D02*
X0071742Y0056948D01*
X0069919Y0056948D01*
X0069919Y0052548D01*
X0069919Y0052548D01*
X0074319Y0052548D01*
X0074319Y0054371D01*
X0074319Y0053905D02*
X0082170Y0053905D01*
X0081317Y0052306D02*
X0074319Y0052306D01*
X0074301Y0050708D02*
X0081144Y0050708D01*
X0081537Y0049109D02*
X0072703Y0049109D01*
X0069919Y0049109D02*
X0069919Y0049109D01*
X0069919Y0050708D02*
X0069919Y0050708D01*
X0069919Y0052306D02*
X0069919Y0052306D01*
X0069919Y0053905D02*
X0069919Y0053905D01*
X0069919Y0055503D02*
X0069919Y0055503D01*
X0068433Y0057102D02*
X0083110Y0057102D01*
X0081707Y0058700D02*
X0070031Y0058700D01*
X0069919Y0062548D02*
X0086769Y0062548D01*
X0088344Y0060973D01*
X0084919Y0067548D02*
X0088344Y0070973D01*
X0084919Y0067548D02*
X0069919Y0067548D01*
X0034919Y0102548D01*
X0009919Y0102548D01*
X0013872Y0106656D02*
X0084147Y0106656D01*
X0084829Y0106373D02*
X0091859Y0106373D01*
X0093550Y0107074D01*
X0094619Y0108143D01*
X0094619Y0103401D01*
X0094300Y0103840D01*
X0093811Y0104329D01*
X0093250Y0104736D01*
X0092633Y0105051D01*
X0091975Y0105265D01*
X0091290Y0105373D01*
X0088344Y0105373D01*
X0085398Y0105373D01*
X0084714Y0105265D01*
X0084055Y0105051D01*
X0083438Y0104736D01*
X0082878Y0104329D01*
X0082388Y0103840D01*
X0081981Y0103279D01*
X0081667Y0102662D01*
X0081453Y0102004D01*
X0081344Y0101320D01*
X0081344Y0100973D01*
X0081344Y0100627D01*
X0081388Y0100348D01*
X0079929Y0100348D01*
X0079751Y0100777D01*
X0078148Y0102380D01*
X0076053Y0103248D01*
X0073785Y0103248D01*
X0071690Y0102380D01*
X0070087Y0100777D01*
X0069219Y0098682D01*
X0069219Y0096414D01*
X0070087Y0094319D01*
X0071690Y0092716D01*
X0072383Y0092429D01*
X0072036Y0092252D01*
X0071336Y0091743D01*
X0070724Y0091131D01*
X0070215Y0090431D01*
X0069822Y0089659D01*
X0069554Y0088836D01*
X0069419Y0087981D01*
X0069419Y0087748D01*
X0074719Y0087748D01*
X0074719Y0087348D01*
X0069419Y0087348D01*
X0069419Y0087115D01*
X0069554Y0086260D01*
X0069822Y0085437D01*
X0070215Y0084665D01*
X0070724Y0083965D01*
X0071336Y0083353D01*
X0072036Y0082844D01*
X0072383Y0082667D01*
X0071690Y0082380D01*
X0070087Y0080777D01*
X0069219Y0078682D01*
X0069219Y0076414D01*
X0070087Y0074319D01*
X0071690Y0072716D01*
X0073785Y0071848D01*
X0076053Y0071848D01*
X0078148Y0072716D01*
X0079751Y0074319D01*
X0079929Y0074748D01*
X0083014Y0074748D01*
X0081845Y0073579D01*
X0081144Y0071888D01*
X0081144Y0070348D01*
X0071079Y0070348D01*
X0038900Y0102527D01*
X0038900Y0103340D01*
X0038294Y0104803D01*
X0037174Y0105923D01*
X0035711Y0106529D01*
X0034127Y0106529D01*
X0032664Y0105923D01*
X0032089Y0105348D01*
X0014929Y0105348D01*
X0014751Y0105777D01*
X0013148Y0107380D01*
X0012743Y0107548D01*
X0013148Y0107716D01*
X0014751Y0109319D01*
X0014929Y0109748D01*
X0081273Y0109748D01*
X0081845Y0108368D01*
X0083139Y0107074D01*
X0084829Y0106373D01*
X0084075Y0105057D02*
X0038040Y0105057D01*
X0038851Y0103459D02*
X0082111Y0103459D01*
X0081430Y0101860D02*
X0078668Y0101860D01*
X0081344Y0100973D02*
X0088344Y0100973D01*
X0088344Y0100973D01*
X0088344Y0096573D01*
X0086704Y0096573D01*
X0087704Y0095573D01*
X0091859Y0095573D01*
X0093550Y0094873D01*
X0094619Y0093804D01*
X0094619Y0098545D01*
X0094300Y0098107D01*
X0093811Y0097617D01*
X0093250Y0097210D01*
X0092633Y0096896D01*
X0091975Y0096682D01*
X0091290Y0096573D01*
X0088344Y0096573D01*
X0088344Y0100973D01*
X0081344Y0100973D01*
X0081769Y0097548D02*
X0088344Y0090973D01*
X0091859Y0086373D02*
X0093550Y0087074D01*
X0094619Y0088143D01*
X0094619Y0083804D01*
X0093550Y0084873D01*
X0091859Y0085573D01*
X0084829Y0085573D01*
X0083139Y0084873D01*
X0081845Y0083579D01*
X0081144Y0081888D01*
X0081144Y0080348D01*
X0079929Y0080348D01*
X0079751Y0080777D01*
X0078148Y0082380D01*
X0077455Y0082667D01*
X0077802Y0082844D01*
X0078502Y0083353D01*
X0079114Y0083965D01*
X0079623Y0084665D01*
X0080016Y0085437D01*
X0080284Y0086260D01*
X0080419Y0087115D01*
X0080419Y0087348D01*
X0075119Y0087348D01*
X0075119Y0087748D01*
X0080419Y0087748D01*
X0080419Y0087981D01*
X0080284Y0088836D01*
X0080016Y0089659D01*
X0079623Y0090431D01*
X0079114Y0091131D01*
X0078502Y0091743D01*
X0077802Y0092252D01*
X0077455Y0092429D01*
X0078148Y0092716D01*
X0079751Y0094319D01*
X0079929Y0094748D01*
X0080610Y0094748D01*
X0081825Y0093532D01*
X0081144Y0091888D01*
X0081144Y0090058D01*
X0081845Y0088368D01*
X0083139Y0087074D01*
X0084829Y0086373D01*
X0091859Y0086373D01*
X0093950Y0087474D02*
X0094619Y0087474D01*
X0094619Y0085875D02*
X0080158Y0085875D01*
X0079341Y0084277D02*
X0082542Y0084277D01*
X0081471Y0082678D02*
X0077476Y0082678D01*
X0079448Y0081080D02*
X0081144Y0081080D01*
X0084919Y0077548D02*
X0088344Y0080973D01*
X0084919Y0077548D02*
X0074919Y0077548D01*
X0069550Y0079481D02*
X0061946Y0079481D01*
X0063544Y0077883D02*
X0069219Y0077883D01*
X0069273Y0076284D02*
X0065143Y0076284D01*
X0066741Y0074686D02*
X0069935Y0074686D01*
X0071319Y0073087D02*
X0068340Y0073087D01*
X0069938Y0071488D02*
X0081144Y0071488D01*
X0081641Y0073087D02*
X0078519Y0073087D01*
X0079903Y0074686D02*
X0082951Y0074686D01*
X0072362Y0082678D02*
X0058749Y0082678D01*
X0060347Y0081080D02*
X0070390Y0081080D01*
X0070497Y0084277D02*
X0057150Y0084277D01*
X0055552Y0085875D02*
X0069680Y0085875D01*
X0069631Y0089072D02*
X0052355Y0089072D01*
X0053953Y0087474D02*
X0074719Y0087474D01*
X0075119Y0087474D02*
X0082738Y0087474D01*
X0081553Y0089072D02*
X0080207Y0089072D01*
X0079449Y0090671D02*
X0081144Y0090671D01*
X0081302Y0092269D02*
X0077768Y0092269D01*
X0079300Y0093868D02*
X0081490Y0093868D01*
X0081769Y0097548D02*
X0074919Y0097548D01*
X0069612Y0095466D02*
X0045961Y0095466D01*
X0047559Y0093868D02*
X0070538Y0093868D01*
X0072070Y0092269D02*
X0049158Y0092269D01*
X0050756Y0090671D02*
X0070389Y0090671D01*
X0069219Y0097065D02*
X0044362Y0097065D01*
X0042764Y0098663D02*
X0069219Y0098663D01*
X0069873Y0100262D02*
X0041165Y0100262D01*
X0039567Y0101860D02*
X0071170Y0101860D01*
X0081958Y0108254D02*
X0013686Y0108254D01*
X0009919Y0112548D02*
X0086769Y0112548D01*
X0088344Y0110973D01*
X0088344Y0105373D02*
X0088344Y0100973D01*
X0088344Y0100973D01*
X0088344Y0100973D01*
X0088344Y0105373D01*
X0088344Y0105057D02*
X0088344Y0105057D01*
X0088344Y0103459D02*
X0088344Y0103459D01*
X0088344Y0101860D02*
X0088344Y0101860D01*
X0088344Y0100262D02*
X0088344Y0100262D01*
X0088344Y0098663D02*
X0088344Y0098663D01*
X0088344Y0097065D02*
X0088344Y0097065D01*
X0092118Y0095466D02*
X0094619Y0095466D01*
X0094619Y0093868D02*
X0094555Y0093868D01*
X0094619Y0097065D02*
X0092965Y0097065D01*
X0097419Y0102548D02*
X0115844Y0120973D01*
X0118344Y0120973D01*
X0101494Y0120973D01*
X0097419Y0125048D01*
X0092809Y0125048D01*
X0092684Y0125173D01*
X0084794Y0125173D01*
X0077419Y0132548D01*
X0069919Y0132548D02*
X0088344Y0150973D01*
X0087540Y0156210D02*
X0094869Y0156210D01*
X0095833Y0157422D02*
X0095833Y0157422D01*
X0096219Y0157808D02*
X0094284Y0157808D01*
X0095274Y0159407D02*
X0097818Y0159407D01*
X0099416Y0161005D02*
X0095544Y0161005D01*
X0095248Y0162604D02*
X0101015Y0162604D01*
X0102613Y0164202D02*
X0094221Y0164202D01*
X0093876Y0167399D02*
X0105810Y0167399D01*
X0104212Y0165801D02*
X0082719Y0165801D01*
X0082719Y0167399D02*
X0082813Y0167399D01*
X0079919Y0165048D02*
X0077419Y0165048D01*
X0074919Y0162548D01*
X0059919Y0147548D01*
X0058849Y0151414D02*
X0009719Y0151414D01*
X0009719Y0149816D02*
X0056556Y0149816D01*
X0055938Y0148217D02*
X0011128Y0148217D01*
X0013910Y0146619D02*
X0055995Y0146619D01*
X0061424Y0153013D02*
X0009719Y0153013D01*
X0009719Y0154611D02*
X0063022Y0154611D01*
X0064621Y0156210D02*
X0009719Y0156210D01*
X0009719Y0157808D02*
X0066219Y0157808D01*
X0067818Y0159407D02*
X0038283Y0159407D01*
X0039519Y0161005D02*
X0069416Y0161005D01*
X0070319Y0162604D02*
X0039519Y0162604D01*
X0039519Y0164202D02*
X0070319Y0164202D01*
X0071666Y0165801D02*
X0038172Y0165801D01*
X0037874Y0168998D02*
X0072247Y0168998D01*
X0070648Y0170596D02*
X0039473Y0170596D01*
X0039519Y0172195D02*
X0070519Y0172195D01*
X0070519Y0172548D02*
X0074919Y0172548D01*
X0074919Y0168148D01*
X0074919Y0172548D01*
X0074919Y0172548D01*
X0074919Y0172548D01*
X0070519Y0172548D01*
X0070519Y0173793D02*
X0039519Y0173793D01*
X0038581Y0175392D02*
X0071540Y0175392D01*
X0074017Y0176990D02*
X0036982Y0176990D01*
X0032838Y0178589D02*
X0072493Y0178589D01*
X0072119Y0180187D02*
X0030864Y0180187D01*
X0029919Y0177548D02*
X0034919Y0172548D01*
X0034028Y0167399D02*
X0075810Y0167399D01*
X0074919Y0168998D02*
X0074919Y0168998D01*
X0074919Y0170596D02*
X0074919Y0170596D01*
X0074919Y0172195D02*
X0074919Y0172195D01*
X0079919Y0175048D02*
X0079919Y0165048D01*
X0088344Y0160973D02*
X0069919Y0142548D01*
X0009919Y0142548D01*
X0009919Y0132548D02*
X0069919Y0132548D01*
X0086769Y0122548D02*
X0088344Y0120973D01*
X0086769Y0122548D02*
X0009919Y0122548D01*
X0009719Y0159407D02*
X0031555Y0159407D01*
X0030319Y0161005D02*
X0009719Y0161005D01*
X0009719Y0162604D02*
X0030319Y0162604D01*
X0029305Y0164202D02*
X0009719Y0164202D01*
X0009719Y0165801D02*
X0027707Y0165801D01*
X0026108Y0167399D02*
X0009719Y0167399D01*
X0009719Y0168998D02*
X0024510Y0168998D01*
X0024119Y0173348D02*
X0018179Y0173348D01*
X0013979Y0177548D01*
X0012419Y0177548D01*
X0027119Y0192248D01*
X0037114Y0192248D01*
X0042414Y0197548D01*
X0044919Y0197548D01*
X0048407Y0192975D02*
X0051431Y0192975D01*
X0049981Y0194574D02*
X0049857Y0194574D01*
X0058407Y0192975D02*
X0069219Y0192975D01*
X0069234Y0191377D02*
X0040203Y0191377D01*
X0038469Y0189778D02*
X0069897Y0189778D01*
X0071226Y0188180D02*
X0027011Y0188180D01*
X0025412Y0186581D02*
X0072119Y0186581D01*
X0072119Y0184983D02*
X0023814Y0184983D01*
X0022215Y0183384D02*
X0072119Y0183384D01*
X0072119Y0181786D02*
X0022187Y0181786D01*
X0019919Y0177548D02*
X0029919Y0177548D01*
X0024119Y0173348D02*
X0034919Y0162548D01*
X0017506Y0170596D02*
X0009719Y0170596D01*
X0009719Y0172195D02*
X0015373Y0172195D01*
X0013774Y0173793D02*
X0012670Y0173793D01*
X0012419Y0177548D02*
X0009919Y0177548D01*
X0059857Y0194574D02*
X0069588Y0194574D01*
X0070482Y0196172D02*
X0060519Y0196172D01*
X0060619Y0197771D02*
X0072633Y0197771D01*
X0077205Y0197771D02*
X0093195Y0197771D01*
X0092808Y0197645D02*
X0092036Y0197252D01*
X0091336Y0196743D01*
X0090724Y0196131D01*
X0090215Y0195431D01*
X0089822Y0194659D01*
X0089554Y0193836D01*
X0089419Y0192981D01*
X0089419Y0192748D01*
X0094719Y0192748D01*
X0094719Y0192348D01*
X0095119Y0192348D01*
X0095119Y0187048D01*
X0095352Y0187048D01*
X0096207Y0187183D01*
X0097030Y0187451D01*
X0097802Y0187844D01*
X0098502Y0188353D01*
X0099114Y0188965D01*
X0099623Y0189665D01*
X0100016Y0190437D01*
X0100284Y0191260D01*
X0100419Y0192115D01*
X0100419Y0192348D01*
X0095119Y0192348D01*
X0095119Y0192748D01*
X0100419Y0192748D01*
X0100419Y0192981D01*
X0100284Y0193836D01*
X0100016Y0194659D01*
X0099623Y0195431D01*
X0099114Y0196131D01*
X0098502Y0196743D01*
X0097802Y0197252D01*
X0097030Y0197645D01*
X0096207Y0197913D01*
X0095352Y0198048D01*
X0095119Y0198048D01*
X0095119Y0192748D01*
X0094719Y0192748D01*
X0094719Y0198048D01*
X0094486Y0198048D01*
X0093631Y0197913D01*
X0092808Y0197645D01*
X0094719Y0197771D02*
X0095119Y0197771D01*
X0096643Y0197771D02*
X0108919Y0197771D01*
X0108019Y0196871D02*
X0108019Y0195048D01*
X0108019Y0193225D01*
X0110596Y0190648D01*
X0112419Y0190648D01*
X0114242Y0190648D01*
X0116819Y0193225D01*
X0116819Y0195048D01*
X0112419Y0195048D01*
X0112419Y0190648D01*
X0112419Y0195048D01*
X0112419Y0195048D01*
X0108019Y0195048D01*
X0112419Y0195048D01*
X0112419Y0195048D01*
X0112419Y0195048D01*
X0112419Y0199448D01*
X0110596Y0199448D01*
X0108019Y0196871D01*
X0108019Y0196172D02*
X0099073Y0196172D01*
X0100044Y0194574D02*
X0108019Y0194574D01*
X0108269Y0192975D02*
X0100419Y0192975D01*
X0100302Y0191377D02*
X0109868Y0191377D01*
X0109045Y0188180D02*
X0098264Y0188180D01*
X0099681Y0189778D02*
X0196969Y0189778D01*
X0196969Y0188180D02*
X0115793Y0188180D01*
X0117019Y0186581D02*
X0196969Y0186581D01*
X0196969Y0184983D02*
X0117019Y0184983D01*
X0117019Y0183384D02*
X0196969Y0183384D01*
X0196969Y0181786D02*
X0117893Y0181786D01*
X0118937Y0180187D02*
X0196969Y0180187D01*
X0196969Y0178589D02*
X0119980Y0178589D01*
X0121002Y0176990D02*
X0196969Y0176990D01*
X0196969Y0175392D02*
X0122297Y0175392D01*
X0124630Y0173793D02*
X0196969Y0173793D01*
X0196969Y0172195D02*
X0125417Y0172195D01*
X0125544Y0170596D02*
X0196969Y0170596D01*
X0196969Y0168998D02*
X0125105Y0168998D01*
X0123876Y0167399D02*
X0196969Y0167399D01*
X0196969Y0165801D02*
X0112131Y0165801D01*
X0112878Y0164329D02*
X0112388Y0163840D01*
X0111981Y0163279D01*
X0111667Y0162662D01*
X0111453Y0162004D01*
X0111344Y0161320D01*
X0111344Y0160973D01*
X0111344Y0160627D01*
X0111453Y0159943D01*
X0111667Y0159284D01*
X0111981Y0158667D01*
X0112388Y0158107D01*
X0112878Y0157617D01*
X0113438Y0157210D01*
X0114055Y0156896D01*
X0114714Y0156682D01*
X0115398Y0156573D01*
X0118344Y0156573D01*
X0118344Y0160973D01*
X0118344Y0160973D01*
X0111344Y0160973D01*
X0118344Y0160973D01*
X0118344Y0160973D01*
X0118344Y0156573D01*
X0121290Y0156573D01*
X0121975Y0156682D01*
X0122633Y0156896D01*
X0123250Y0157210D01*
X0123811Y0157617D01*
X0124300Y0158107D01*
X0124707Y0158667D01*
X0125022Y0159284D01*
X0125236Y0159943D01*
X0125344Y0160627D01*
X0125344Y0160973D01*
X0118344Y0160973D01*
X0118344Y0160973D01*
X0118344Y0165373D01*
X0115398Y0165373D01*
X0114714Y0165265D01*
X0114055Y0165051D01*
X0113438Y0164736D01*
X0112878Y0164329D01*
X0112751Y0164202D02*
X0110533Y0164202D01*
X0111648Y0162604D02*
X0108934Y0162604D01*
X0107336Y0161005D02*
X0111344Y0161005D01*
X0111627Y0159407D02*
X0105737Y0159407D01*
X0104139Y0157808D02*
X0112687Y0157808D01*
X0112877Y0154611D02*
X0100942Y0154611D01*
X0100219Y0153013D02*
X0111610Y0153013D01*
X0111144Y0151414D02*
X0100219Y0151414D01*
X0100219Y0149816D02*
X0111245Y0149816D01*
X0111995Y0148217D02*
X0100219Y0148217D01*
X0100219Y0146619D02*
X0114237Y0146619D01*
X0113494Y0145020D02*
X0100219Y0145020D01*
X0100219Y0143421D02*
X0111779Y0143421D01*
X0111144Y0141823D02*
X0100219Y0141823D01*
X0100219Y0140224D02*
X0111144Y0140224D01*
X0111737Y0138626D02*
X0100219Y0138626D01*
X0100219Y0137027D02*
X0113250Y0137027D01*
X0114481Y0135429D02*
X0100219Y0135429D01*
X0100219Y0133830D02*
X0112096Y0133830D01*
X0111287Y0132232D02*
X0100219Y0132232D01*
X0100219Y0130633D02*
X0111144Y0130633D01*
X0111568Y0129035D02*
X0100219Y0129035D01*
X0100219Y0127436D02*
X0112776Y0127436D01*
X0112505Y0124239D02*
X0102187Y0124239D01*
X0100589Y0125838D02*
X0189669Y0125838D01*
X0188071Y0127436D02*
X0123913Y0127436D01*
X0124183Y0124239D02*
X0191268Y0124239D01*
X0191219Y0122641D02*
X0125232Y0122641D01*
X0125544Y0121042D02*
X0191373Y0121042D01*
X0192035Y0119444D02*
X0125290Y0119444D01*
X0124322Y0117845D02*
X0193561Y0117845D01*
X0192557Y0116247D02*
X0115078Y0116247D01*
X0111144Y0111451D02*
X0110282Y0111451D01*
X0111229Y0109853D02*
X0108684Y0109853D01*
X0107085Y0108254D02*
X0111958Y0108254D01*
X0114147Y0106656D02*
X0105487Y0106656D01*
X0103888Y0105057D02*
X0113583Y0105057D01*
X0113139Y0104873D02*
X0111845Y0103579D01*
X0111144Y0101888D01*
X0111144Y0100058D01*
X0111845Y0098368D01*
X0113139Y0097074D01*
X0114829Y0096373D01*
X0121859Y0096373D01*
X0123550Y0097074D01*
X0124844Y0098368D01*
X0125544Y0100058D01*
X0125544Y0101888D01*
X0124844Y0103579D01*
X0123550Y0104873D01*
X0121859Y0105573D01*
X0114829Y0105573D01*
X0113139Y0104873D01*
X0111795Y0103459D02*
X0102289Y0103459D01*
X0100691Y0101860D02*
X0111144Y0101860D01*
X0111144Y0100262D02*
X0100219Y0100262D01*
X0100219Y0098663D02*
X0111722Y0098663D01*
X0113160Y0097065D02*
X0100219Y0097065D01*
X0097419Y0102548D02*
X0097419Y0060048D01*
X0100219Y0077883D02*
X0112612Y0077883D01*
X0111603Y0079481D02*
X0100219Y0079481D01*
X0100219Y0081080D02*
X0111344Y0081080D01*
X0111675Y0082678D02*
X0100219Y0082678D01*
X0094619Y0084277D02*
X0094146Y0084277D01*
X0097419Y0102548D02*
X0097419Y0125048D01*
X0097419Y0155048D01*
X0113344Y0170973D01*
X0118344Y0170973D01*
X0118344Y0175973D01*
X0112419Y0185048D01*
X0109176Y0181786D02*
X0077719Y0181786D01*
X0077719Y0183384D02*
X0107819Y0183384D01*
X0107819Y0184983D02*
X0077719Y0184983D01*
X0077719Y0186581D02*
X0107819Y0186581D01*
X0112419Y0191377D02*
X0112419Y0191377D01*
X0112419Y0192975D02*
X0112419Y0192975D01*
X0112419Y0194574D02*
X0112419Y0194574D01*
X0112419Y0195048D02*
X0116819Y0195048D01*
X0116819Y0196871D01*
X0114242Y0199448D01*
X0112419Y0199448D01*
X0112419Y0195048D01*
X0112419Y0195048D01*
X0112419Y0196172D02*
X0112419Y0196172D01*
X0112419Y0197771D02*
X0112419Y0197771D01*
X0112419Y0199369D02*
X0112419Y0199369D01*
X0110518Y0199369D02*
X0060334Y0199369D01*
X0074919Y0192548D02*
X0074919Y0180048D01*
X0079919Y0175048D01*
X0081937Y0176990D02*
X0114336Y0176990D01*
X0114391Y0175392D02*
X0092297Y0175392D01*
X0094630Y0173793D02*
X0112059Y0173793D01*
X0110606Y0172195D02*
X0095417Y0172195D01*
X0095544Y0170596D02*
X0109007Y0170596D01*
X0107409Y0168998D02*
X0095105Y0168998D01*
X0084391Y0175392D02*
X0082719Y0175392D01*
X0080338Y0178589D02*
X0113292Y0178589D01*
X0112249Y0180187D02*
X0078740Y0180187D01*
X0078612Y0188180D02*
X0091574Y0188180D01*
X0091336Y0188353D02*
X0092036Y0187844D01*
X0092808Y0187451D01*
X0093631Y0187183D01*
X0094486Y0187048D01*
X0094719Y0187048D01*
X0094719Y0192348D01*
X0089419Y0192348D01*
X0089419Y0192115D01*
X0089554Y0191260D01*
X0089822Y0190437D01*
X0090215Y0189665D01*
X0090724Y0188965D01*
X0091336Y0188353D01*
X0090157Y0189778D02*
X0079941Y0189778D01*
X0080604Y0191377D02*
X0089536Y0191377D01*
X0089419Y0192975D02*
X0080619Y0192975D01*
X0080250Y0194574D02*
X0089794Y0194574D01*
X0090765Y0196172D02*
X0079356Y0196172D01*
X0094719Y0196172D02*
X0095119Y0196172D01*
X0095119Y0194574D02*
X0094719Y0194574D01*
X0094719Y0192975D02*
X0095119Y0192975D01*
X0095119Y0191377D02*
X0094719Y0191377D01*
X0094719Y0189778D02*
X0095119Y0189778D01*
X0095119Y0188180D02*
X0094719Y0188180D01*
X0114970Y0191377D02*
X0196969Y0191377D01*
X0196969Y0192975D02*
X0116569Y0192975D01*
X0116819Y0194574D02*
X0196969Y0194574D01*
X0196969Y0196172D02*
X0116819Y0196172D01*
X0115919Y0197771D02*
X0196969Y0197771D01*
X0196969Y0199369D02*
X0114320Y0199369D01*
X0118344Y0165373D02*
X0118344Y0160973D01*
X0118344Y0160973D01*
X0125344Y0160973D01*
X0125344Y0161320D01*
X0125236Y0162004D01*
X0125022Y0162662D01*
X0124707Y0163279D01*
X0124300Y0163840D01*
X0123811Y0164329D01*
X0123250Y0164736D01*
X0122633Y0165051D01*
X0121975Y0165265D01*
X0121290Y0165373D01*
X0118344Y0165373D01*
X0118344Y0164202D02*
X0118344Y0164202D01*
X0118344Y0162604D02*
X0118344Y0162604D01*
X0118344Y0161005D02*
X0118344Y0161005D01*
X0118344Y0159407D02*
X0118344Y0159407D01*
X0118344Y0157808D02*
X0118344Y0157808D01*
X0124002Y0157808D02*
X0196969Y0157808D01*
X0196969Y0156210D02*
X0102540Y0156210D01*
X0094619Y0154611D02*
X0093812Y0154611D01*
X0118344Y0150973D02*
X0188494Y0150973D01*
X0196919Y0142548D01*
X0195710Y0148217D02*
X0195210Y0148217D01*
X0193611Y0149816D02*
X0196969Y0149816D01*
X0196969Y0151414D02*
X0192013Y0151414D01*
X0190414Y0153013D02*
X0196969Y0153013D01*
X0196969Y0154611D02*
X0123812Y0154611D01*
X0125062Y0159407D02*
X0196969Y0159407D01*
X0196969Y0161005D02*
X0125344Y0161005D01*
X0125041Y0162604D02*
X0196969Y0162604D01*
X0196969Y0164202D02*
X0123938Y0164202D01*
X0122451Y0146619D02*
X0188889Y0146619D01*
X0190487Y0145020D02*
X0123195Y0145020D01*
X0118344Y0140973D02*
X0188494Y0140973D01*
X0196919Y0132548D01*
X0191219Y0132232D02*
X0191195Y0132232D01*
X0191281Y0133830D02*
X0124592Y0133830D01*
X0122208Y0135429D02*
X0190078Y0135429D01*
X0188480Y0137027D02*
X0123439Y0137027D01*
X0118344Y0130973D02*
X0188494Y0130973D01*
X0196919Y0122548D01*
X0196919Y0112548D02*
X0167419Y0112548D01*
X0125844Y0070973D01*
X0118344Y0070973D01*
X0118344Y0077883D02*
X0118344Y0077883D01*
X0118344Y0079481D02*
X0118344Y0079481D01*
X0118344Y0081080D02*
X0118344Y0081080D01*
X0118344Y0082678D02*
X0118344Y0082678D01*
X0118344Y0084277D02*
X0118344Y0084277D01*
X0123950Y0087474D02*
X0138385Y0087474D01*
X0135487Y0093868D02*
X0124555Y0093868D01*
X0122118Y0095466D02*
X0136332Y0095466D01*
X0138803Y0097065D02*
X0123528Y0097065D01*
X0124966Y0098663D02*
X0149574Y0098663D01*
X0147976Y0097065D02*
X0141035Y0097065D01*
X0143506Y0095466D02*
X0146377Y0095466D01*
X0144779Y0093868D02*
X0144351Y0093868D01*
X0151173Y0100262D02*
X0125544Y0100262D01*
X0125544Y0101860D02*
X0152771Y0101860D01*
X0154370Y0103459D02*
X0124894Y0103459D01*
X0123105Y0105057D02*
X0155968Y0105057D01*
X0157567Y0106656D02*
X0122541Y0106656D01*
X0124731Y0108254D02*
X0159165Y0108254D01*
X0160764Y0109853D02*
X0125459Y0109853D01*
X0125544Y0111451D02*
X0162362Y0111451D01*
X0163961Y0113050D02*
X0125063Y0113050D01*
X0123775Y0114648D02*
X0165559Y0114648D01*
X0189900Y0143421D02*
X0191219Y0143421D01*
X0094619Y0106656D02*
X0092541Y0106656D01*
X0092614Y0105057D02*
X0094619Y0105057D01*
X0094577Y0103459D02*
X0094619Y0103459D01*
X0065519Y0053905D02*
X0065236Y0053905D01*
X0065519Y0052306D02*
X0063637Y0052306D01*
X0062039Y0050708D02*
X0065537Y0050708D01*
X0067135Y0049109D02*
X0060440Y0049109D01*
X0052119Y0039518D02*
X0049171Y0039518D01*
X0049319Y0037920D02*
X0051331Y0037920D01*
X0049732Y0036321D02*
X0049319Y0036321D01*
X0088344Y0040973D02*
X0100844Y0040973D01*
X0103349Y0039518D02*
X0111368Y0039518D01*
X0111144Y0041117D02*
X0104948Y0041117D01*
D19*
X0034919Y0102548D03*
X0077419Y0132548D03*
X0059919Y0147548D03*
X0063974Y0184713D03*
M02*
