G75*
%MOIN*%
%OFA0B0*%
%FSLAX25Y25*%
%IPPOS*%
%LPD*%
%AMOC8*
5,1,8,0,0,1.08239X$1,22.5*
%
%ADD10C,0.00000*%
%ADD11C,0.00500*%
%ADD12C,0.00400*%
%ADD13C,0.00800*%
%ADD14C,0.00600*%
%ADD15C,0.01000*%
%ADD16R,0.02000X0.10000*%
%ADD17R,0.10000X0.02000*%
%ADD18R,0.03400X0.02400*%
%ADD19R,0.02400X0.03400*%
%ADD20C,0.00700*%
%ADD21C,0.01600*%
D10*
X0004919Y0007548D02*
X0004919Y0204398D01*
X0201769Y0204398D01*
X0201769Y0007548D01*
X0004919Y0007548D01*
D11*
X0005169Y0010297D02*
X0005919Y0011047D01*
X0005919Y0014801D01*
X0003667Y0014801D01*
X0002917Y0014050D01*
X0002917Y0012549D01*
X0003667Y0011798D01*
X0005919Y0011798D01*
X0007521Y0011798D02*
X0007521Y0014801D01*
X0009022Y0014801D02*
X0007521Y0013299D01*
X0009022Y0014801D02*
X0009773Y0014801D01*
X0009756Y0016298D02*
X0006753Y0016298D01*
X0006753Y0020802D01*
X0011357Y0020802D02*
X0011357Y0016298D01*
X0014360Y0016298D01*
X0015961Y0016298D02*
X0018213Y0016298D01*
X0018964Y0017049D01*
X0018964Y0020051D01*
X0018213Y0020802D01*
X0015961Y0020802D01*
X0015961Y0016298D01*
X0016712Y0014801D02*
X0015961Y0014050D01*
X0015961Y0012549D01*
X0016712Y0011798D01*
X0018213Y0011798D01*
X0018964Y0013299D02*
X0015961Y0013299D01*
X0014360Y0013299D02*
X0011357Y0013299D01*
X0011357Y0012549D02*
X0011357Y0014050D01*
X0012108Y0014801D01*
X0013609Y0014801D01*
X0014360Y0014050D01*
X0014360Y0013299D01*
X0013609Y0011798D02*
X0012108Y0011798D01*
X0011357Y0012549D01*
X0011357Y0018550D02*
X0012858Y0018550D01*
X0014360Y0020802D02*
X0011357Y0020802D01*
X0016712Y0014801D02*
X0018213Y0014801D01*
X0018964Y0014050D01*
X0018964Y0013299D01*
X0020565Y0011798D02*
X0020565Y0014801D01*
X0022817Y0014801D01*
X0023568Y0014050D01*
X0023568Y0011798D01*
X0023568Y0016298D02*
X0020565Y0016298D01*
X0023568Y0019301D01*
X0023568Y0020051D01*
X0022817Y0020802D01*
X0021316Y0020802D01*
X0020565Y0020051D01*
X0005169Y0010297D02*
X0004418Y0010297D01*
X0009767Y0037798D02*
X0011352Y0037798D01*
X0011669Y0038115D01*
X0011669Y0038749D01*
X0011352Y0039066D01*
X0009767Y0039066D01*
X0010084Y0040008D02*
X0010401Y0040008D01*
X0010718Y0040325D01*
X0010718Y0040959D01*
X0011035Y0041276D01*
X0011352Y0041276D01*
X0011669Y0040959D01*
X0011669Y0040325D01*
X0011352Y0040008D01*
X0010084Y0040008D02*
X0009767Y0040325D01*
X0009767Y0040959D01*
X0010084Y0041276D01*
X0009767Y0042218D02*
X0011669Y0042218D01*
X0011669Y0043486D01*
X0011669Y0044428D02*
X0009767Y0044428D01*
X0009767Y0045378D01*
X0010084Y0045695D01*
X0010718Y0045695D01*
X0011035Y0045378D01*
X0011035Y0044428D01*
X0011035Y0045062D02*
X0011669Y0045695D01*
X0009767Y0043486D02*
X0009767Y0042218D01*
X0010718Y0042218D02*
X0010718Y0042852D01*
X0014919Y0045048D02*
X0014919Y0047548D01*
X0017419Y0050048D01*
X0017419Y0052548D01*
X0017419Y0045048D02*
X0017419Y0042548D01*
X0023267Y0040959D02*
X0023584Y0041276D01*
X0023901Y0041276D01*
X0024218Y0040959D01*
X0024218Y0040008D01*
X0024218Y0039066D02*
X0024535Y0038749D01*
X0024535Y0037798D01*
X0025169Y0037798D02*
X0023267Y0037798D01*
X0023267Y0038749D01*
X0023584Y0039066D01*
X0024218Y0039066D01*
X0023267Y0040008D02*
X0023267Y0040959D01*
X0023267Y0040008D02*
X0025169Y0040008D01*
X0025169Y0040959D01*
X0024852Y0041276D01*
X0024535Y0041276D01*
X0024218Y0040959D01*
X0032665Y0050399D02*
X0037169Y0050399D01*
X0037169Y0048898D02*
X0037169Y0051901D01*
X0036418Y0053502D02*
X0037169Y0054253D01*
X0037169Y0055754D01*
X0036418Y0056505D01*
X0033416Y0056505D01*
X0036418Y0053502D01*
X0033416Y0053502D01*
X0032665Y0054253D01*
X0032665Y0055754D01*
X0033416Y0056505D01*
X0032665Y0058106D02*
X0037169Y0058106D01*
X0035668Y0058106D02*
X0037169Y0060358D01*
X0035668Y0058106D02*
X0034166Y0060358D01*
X0042665Y0060358D02*
X0042665Y0058857D01*
X0043416Y0058106D01*
X0046418Y0058106D01*
X0043416Y0061108D01*
X0046418Y0061108D01*
X0047169Y0060358D01*
X0047169Y0058857D01*
X0046418Y0058106D01*
X0046418Y0056505D02*
X0047169Y0055754D01*
X0047169Y0054253D01*
X0046418Y0053502D01*
X0046418Y0051901D02*
X0047169Y0051150D01*
X0047169Y0049649D01*
X0046418Y0048898D01*
X0044917Y0050399D02*
X0044917Y0051150D01*
X0045668Y0051901D01*
X0046418Y0051901D01*
X0044917Y0051150D02*
X0044166Y0051901D01*
X0043416Y0051901D01*
X0042665Y0051150D01*
X0042665Y0049649D01*
X0043416Y0048898D01*
X0043416Y0053502D02*
X0042665Y0054253D01*
X0042665Y0055754D01*
X0043416Y0056505D01*
X0044166Y0056505D01*
X0044917Y0055754D01*
X0045668Y0056505D01*
X0046418Y0056505D01*
X0044917Y0055754D02*
X0044917Y0055003D01*
X0042665Y0060358D02*
X0043416Y0061108D01*
X0032665Y0050399D02*
X0034166Y0048898D01*
X0055253Y0032301D02*
X0056755Y0033802D01*
X0056755Y0029298D01*
X0058256Y0029298D02*
X0055253Y0029298D01*
X0059857Y0030049D02*
X0059857Y0033051D01*
X0060608Y0033802D01*
X0062109Y0033802D01*
X0062860Y0033051D01*
X0059857Y0030049D01*
X0060608Y0029298D01*
X0062109Y0029298D01*
X0062860Y0030049D01*
X0062860Y0033051D01*
X0064461Y0032301D02*
X0064461Y0030049D01*
X0065212Y0029298D01*
X0067464Y0029298D01*
X0067464Y0032301D01*
X0069065Y0031550D02*
X0070566Y0031550D01*
X0069065Y0029298D02*
X0069065Y0033802D01*
X0072068Y0033802D01*
X0076916Y0038798D02*
X0076165Y0039549D01*
X0076165Y0041050D01*
X0076916Y0041801D01*
X0079918Y0038798D01*
X0080669Y0039549D01*
X0080669Y0041050D01*
X0079918Y0041801D01*
X0076916Y0041801D01*
X0076916Y0038798D02*
X0079918Y0038798D01*
X0079918Y0043402D02*
X0079918Y0044153D01*
X0080669Y0044153D01*
X0080669Y0043402D01*
X0079918Y0043402D01*
X0080669Y0045704D02*
X0080669Y0048706D01*
X0080669Y0047205D02*
X0076165Y0047205D01*
X0077666Y0045704D01*
X0077666Y0050308D02*
X0079918Y0050308D01*
X0080669Y0051058D01*
X0080669Y0053310D01*
X0077666Y0053310D01*
X0078417Y0054912D02*
X0078417Y0056413D01*
X0076165Y0054912D02*
X0076165Y0057914D01*
X0076165Y0054912D02*
X0080669Y0054912D01*
X0081084Y0072798D02*
X0082352Y0072798D01*
X0082669Y0073115D01*
X0082669Y0073749D01*
X0082352Y0074066D01*
X0081084Y0074066D01*
X0080767Y0073749D01*
X0080767Y0073115D01*
X0081084Y0072798D01*
X0081084Y0075008D02*
X0081401Y0075008D01*
X0081718Y0075325D01*
X0081718Y0075959D01*
X0082035Y0076276D01*
X0082352Y0076276D01*
X0082669Y0075959D01*
X0082669Y0075325D01*
X0082352Y0075008D01*
X0081084Y0075008D02*
X0080767Y0075325D01*
X0080767Y0075959D01*
X0081084Y0076276D01*
X0081084Y0077218D02*
X0082352Y0077218D01*
X0082669Y0077535D01*
X0082669Y0078169D01*
X0082352Y0078486D01*
X0081084Y0078486D02*
X0080767Y0078169D01*
X0080767Y0077535D01*
X0081084Y0077218D01*
X0069169Y0077218D02*
X0067267Y0077218D01*
X0067267Y0076276D02*
X0069169Y0076276D01*
X0069169Y0075008D02*
X0067267Y0075008D01*
X0067901Y0075642D01*
X0067267Y0076276D01*
X0068218Y0077218D02*
X0068218Y0078486D01*
X0067267Y0078486D02*
X0069169Y0078486D01*
X0069169Y0079428D02*
X0069169Y0080695D01*
X0069169Y0079428D02*
X0068852Y0079428D01*
X0067584Y0080695D01*
X0067267Y0080695D01*
X0067267Y0079428D01*
X0067584Y0074066D02*
X0067901Y0074066D01*
X0068218Y0073749D01*
X0068218Y0073115D01*
X0067901Y0072798D01*
X0067584Y0072798D01*
X0067267Y0073115D01*
X0067267Y0073749D01*
X0067584Y0074066D01*
X0068218Y0073749D02*
X0068535Y0074066D01*
X0068852Y0074066D01*
X0069169Y0073749D01*
X0069169Y0073115D01*
X0068852Y0072798D01*
X0068535Y0072798D01*
X0068218Y0073115D01*
X0087669Y0032302D02*
X0089170Y0030801D01*
X0090672Y0032302D01*
X0090672Y0027798D01*
X0092273Y0027798D02*
X0092273Y0032302D01*
X0094525Y0032302D01*
X0095275Y0031551D01*
X0095275Y0030050D01*
X0094525Y0029299D01*
X0092273Y0029299D01*
X0093419Y0025794D02*
X0093419Y0009302D01*
X0090669Y0009549D02*
X0090669Y0011050D01*
X0089918Y0011801D01*
X0086916Y0011801D01*
X0089918Y0008798D01*
X0090669Y0009549D01*
X0089918Y0008798D02*
X0086916Y0008798D01*
X0086165Y0009549D01*
X0086165Y0011050D01*
X0086916Y0011801D01*
X0089918Y0013402D02*
X0089918Y0014153D01*
X0090669Y0014153D01*
X0090669Y0013402D01*
X0089918Y0013402D01*
X0090669Y0015704D02*
X0090669Y0018706D01*
X0090669Y0017205D02*
X0086165Y0017205D01*
X0087666Y0015704D01*
X0087666Y0020308D02*
X0089918Y0020308D01*
X0090669Y0021058D01*
X0090669Y0023310D01*
X0087666Y0023310D01*
X0088417Y0024912D02*
X0088417Y0026413D01*
X0087669Y0027798D02*
X0087669Y0032302D01*
X0086165Y0027914D02*
X0086165Y0024912D01*
X0090669Y0024912D01*
X0096877Y0028549D02*
X0096877Y0031551D01*
X0097627Y0032302D01*
X0099129Y0032302D01*
X0099879Y0031551D01*
X0101481Y0030801D02*
X0102982Y0032302D01*
X0102982Y0027798D01*
X0101481Y0027798D02*
X0104483Y0027798D01*
X0106085Y0027798D02*
X0106085Y0028549D01*
X0109087Y0031551D01*
X0109087Y0032302D01*
X0106085Y0032302D01*
X0110689Y0031551D02*
X0110689Y0028549D01*
X0113691Y0031551D01*
X0113691Y0028549D01*
X0112941Y0027798D01*
X0111439Y0027798D01*
X0110689Y0028549D01*
X0110689Y0031551D02*
X0111439Y0032302D01*
X0112941Y0032302D01*
X0113691Y0031551D01*
X0115293Y0031551D02*
X0116043Y0032302D01*
X0117544Y0032302D01*
X0118295Y0031551D01*
X0118295Y0030801D01*
X0115293Y0027798D01*
X0118295Y0027798D01*
X0126165Y0027914D02*
X0126165Y0024912D01*
X0130669Y0024912D01*
X0130669Y0023310D02*
X0127666Y0023310D01*
X0128417Y0024912D02*
X0128417Y0026413D01*
X0130669Y0023310D02*
X0130669Y0021058D01*
X0129918Y0020308D01*
X0127666Y0020308D01*
X0126165Y0017205D02*
X0130669Y0017205D01*
X0130669Y0015704D02*
X0130669Y0018706D01*
X0127666Y0015704D02*
X0126165Y0017205D01*
X0129918Y0014153D02*
X0130669Y0014153D01*
X0130669Y0013402D01*
X0129918Y0013402D01*
X0129918Y0014153D01*
X0129918Y0011801D02*
X0126916Y0011801D01*
X0129918Y0008798D01*
X0130669Y0009549D01*
X0130669Y0011050D01*
X0129918Y0011801D01*
X0126916Y0011801D02*
X0126165Y0011050D01*
X0126165Y0009549D01*
X0126916Y0008798D01*
X0129918Y0008798D01*
X0109952Y0020644D02*
X0109874Y0020888D01*
X0109789Y0021130D01*
X0109699Y0021369D01*
X0109603Y0021607D01*
X0109501Y0021842D01*
X0109393Y0022075D01*
X0109280Y0022305D01*
X0109161Y0022532D01*
X0109037Y0022756D01*
X0108907Y0022977D01*
X0108772Y0023194D01*
X0108631Y0023409D01*
X0108485Y0023620D01*
X0108335Y0023827D01*
X0108179Y0024030D01*
X0108018Y0024230D01*
X0107853Y0024426D01*
X0107683Y0024617D01*
X0107508Y0024805D01*
X0107328Y0024988D01*
X0107145Y0025166D01*
X0106956Y0025341D01*
X0106764Y0025510D01*
X0106568Y0025675D01*
X0106367Y0025835D01*
X0106163Y0025989D01*
X0105955Y0026139D01*
X0105744Y0026284D01*
X0105529Y0026424D01*
X0105311Y0026558D01*
X0105089Y0026687D01*
X0104865Y0026810D01*
X0104637Y0026928D01*
X0104407Y0027041D01*
X0104174Y0027147D01*
X0103938Y0027248D01*
X0103700Y0027344D01*
X0103460Y0027433D01*
X0103218Y0027516D01*
X0102973Y0027594D01*
X0102727Y0027665D01*
X0102479Y0027731D01*
X0102230Y0027790D01*
X0101980Y0027844D01*
X0101728Y0027891D01*
X0101475Y0027932D01*
X0101221Y0027967D01*
X0100966Y0027996D01*
X0100711Y0028018D01*
X0100455Y0028034D01*
X0100199Y0028044D01*
X0099943Y0028048D01*
X0099686Y0028045D01*
X0099430Y0028037D01*
X0099174Y0028022D01*
X0098919Y0028000D01*
X0098919Y0026421D01*
X0099129Y0027798D02*
X0097627Y0027798D01*
X0096877Y0028549D01*
X0099129Y0027798D02*
X0099879Y0028549D01*
X0098919Y0018675D02*
X0098919Y0016421D01*
X0093419Y0025794D02*
X0093618Y0025947D01*
X0093820Y0026095D01*
X0094025Y0026238D01*
X0094234Y0026376D01*
X0094446Y0026509D01*
X0094661Y0026637D01*
X0094879Y0026759D01*
X0095100Y0026877D01*
X0095324Y0026989D01*
X0095550Y0027096D01*
X0095779Y0027197D01*
X0096010Y0027293D01*
X0096244Y0027384D01*
X0096479Y0027469D01*
X0096717Y0027548D01*
X0096956Y0027621D01*
X0097197Y0027689D01*
X0097439Y0027751D01*
X0097683Y0027807D01*
X0097929Y0027858D01*
X0098175Y0027902D01*
X0098422Y0027941D01*
X0098670Y0027973D01*
X0098919Y0028000D01*
X0109952Y0014452D02*
X0109874Y0014210D01*
X0109790Y0013970D01*
X0109701Y0013732D01*
X0109605Y0013496D01*
X0109504Y0013262D01*
X0109398Y0013031D01*
X0109285Y0012803D01*
X0109168Y0012577D01*
X0109045Y0012354D01*
X0108916Y0012135D01*
X0108782Y0011918D01*
X0108643Y0011705D01*
X0108499Y0011495D01*
X0108350Y0011289D01*
X0108196Y0011087D01*
X0108037Y0010888D01*
X0107873Y0010693D01*
X0107704Y0010502D01*
X0107531Y0010316D01*
X0107354Y0010133D01*
X0107172Y0009955D01*
X0106986Y0009782D01*
X0106795Y0009613D01*
X0106601Y0009449D01*
X0106403Y0009289D01*
X0106201Y0009134D01*
X0105995Y0008985D01*
X0105786Y0008840D01*
X0105573Y0008700D01*
X0105357Y0008566D01*
X0105137Y0008437D01*
X0104915Y0008313D01*
X0104690Y0008194D01*
X0104462Y0008082D01*
X0104231Y0007974D01*
X0103998Y0007873D01*
X0103762Y0007777D01*
X0103524Y0007686D01*
X0103284Y0007602D01*
X0103042Y0007523D01*
X0102798Y0007450D01*
X0102552Y0007384D01*
X0102305Y0007323D01*
X0102057Y0007268D01*
X0101807Y0007219D01*
X0101556Y0007176D01*
X0101304Y0007140D01*
X0101052Y0007109D01*
X0100798Y0007085D01*
X0100545Y0007067D01*
X0100290Y0007055D01*
X0100036Y0007049D01*
X0099781Y0007049D01*
X0099527Y0007055D01*
X0099273Y0007068D01*
X0099019Y0007087D01*
X0098766Y0007112D01*
X0098513Y0007143D01*
X0098261Y0007180D01*
X0098011Y0007223D01*
X0097761Y0007272D01*
X0097512Y0007327D01*
X0097265Y0007389D01*
X0097020Y0007456D01*
X0096776Y0007529D01*
X0096534Y0007608D01*
X0096295Y0007693D01*
X0096057Y0007784D01*
X0095821Y0007881D01*
X0095588Y0007983D01*
X0095358Y0008091D01*
X0095130Y0008204D01*
X0094905Y0008323D01*
X0094683Y0008447D01*
X0094464Y0008576D01*
X0094248Y0008711D01*
X0094035Y0008851D01*
X0093826Y0008997D01*
X0093621Y0009147D01*
X0093419Y0009302D01*
X0098919Y0008675D02*
X0098919Y0007096D01*
X0152666Y0070382D02*
X0151165Y0071884D01*
X0155669Y0071884D01*
X0155669Y0073385D02*
X0155669Y0070382D01*
X0154918Y0074986D02*
X0151916Y0074986D01*
X0151165Y0075737D01*
X0151165Y0077238D01*
X0151916Y0077989D01*
X0154918Y0074986D01*
X0155669Y0075737D01*
X0155669Y0077238D01*
X0154918Y0077989D01*
X0151916Y0077989D01*
X0152666Y0079590D02*
X0154918Y0079590D01*
X0155669Y0080341D01*
X0155669Y0082593D01*
X0152666Y0082593D01*
X0153417Y0084194D02*
X0153417Y0085695D01*
X0151165Y0084194D02*
X0151165Y0087197D01*
X0151165Y0084194D02*
X0155669Y0084194D01*
X0062484Y0160298D02*
X0060232Y0161799D01*
X0062484Y0163301D01*
X0060232Y0164802D02*
X0060232Y0160298D01*
X0058631Y0161049D02*
X0057880Y0160298D01*
X0056379Y0160298D01*
X0055628Y0161049D01*
X0058631Y0164051D01*
X0058631Y0161049D01*
X0058631Y0164051D02*
X0057880Y0164802D01*
X0056379Y0164802D01*
X0055628Y0164051D01*
X0055628Y0161049D01*
X0054027Y0160298D02*
X0051025Y0160298D01*
X0052526Y0160298D02*
X0052526Y0164802D01*
X0051025Y0163301D01*
X0051008Y0170298D02*
X0050257Y0171049D01*
X0051008Y0170298D02*
X0052509Y0170298D01*
X0053260Y0171049D01*
X0053260Y0171799D01*
X0052509Y0172550D01*
X0051758Y0172550D01*
X0052509Y0172550D02*
X0053260Y0173301D01*
X0053260Y0174051D01*
X0052509Y0174802D01*
X0051008Y0174802D01*
X0050257Y0174051D01*
X0054861Y0174051D02*
X0055612Y0174802D01*
X0057113Y0174802D01*
X0057864Y0174051D01*
X0057864Y0173301D01*
X0057113Y0172550D01*
X0057864Y0171799D01*
X0057864Y0171049D01*
X0057113Y0170298D01*
X0055612Y0170298D01*
X0054861Y0171049D01*
X0056362Y0172550D02*
X0057113Y0172550D01*
X0059465Y0171049D02*
X0059465Y0174051D01*
X0060216Y0174802D01*
X0061717Y0174802D01*
X0062468Y0174051D01*
X0059465Y0171049D01*
X0060216Y0170298D01*
X0061717Y0170298D01*
X0062468Y0171049D01*
X0062468Y0174051D01*
X0059919Y0187548D02*
X0049919Y0187548D01*
X0054919Y0192548D01*
X0059919Y0187548D01*
X0059458Y0188009D02*
X0050380Y0188009D01*
X0050879Y0188508D02*
X0058959Y0188508D01*
X0058461Y0189006D02*
X0051377Y0189006D01*
X0051876Y0189505D02*
X0057962Y0189505D01*
X0057464Y0190003D02*
X0052374Y0190003D01*
X0052873Y0190502D02*
X0056965Y0190502D01*
X0056467Y0191000D02*
X0053371Y0191000D01*
X0053870Y0191499D02*
X0055968Y0191499D01*
X0055470Y0191997D02*
X0054368Y0191997D01*
X0054867Y0192496D02*
X0054971Y0192496D01*
X0044227Y0189983D02*
X0044227Y0189666D01*
X0043910Y0189349D01*
X0044227Y0189032D01*
X0044227Y0188715D01*
X0043910Y0188398D01*
X0043276Y0188398D01*
X0042959Y0188715D01*
X0043593Y0189349D02*
X0043910Y0189349D01*
X0044227Y0189983D02*
X0043910Y0190300D01*
X0043276Y0190300D01*
X0042959Y0189983D01*
X0042017Y0190300D02*
X0040749Y0190300D01*
X0041383Y0190300D02*
X0041383Y0188398D01*
X0039910Y0188398D02*
X0039276Y0188398D01*
X0039593Y0188398D02*
X0039593Y0190300D01*
X0039276Y0190300D02*
X0039910Y0190300D01*
X0038334Y0190300D02*
X0037066Y0189032D01*
X0037383Y0189349D02*
X0038334Y0188398D01*
X0037066Y0188398D02*
X0037066Y0190300D01*
X0036124Y0189983D02*
X0035807Y0190300D01*
X0035173Y0190300D01*
X0034856Y0189983D01*
X0034856Y0188715D01*
X0035173Y0188398D01*
X0035807Y0188398D01*
X0036124Y0188715D01*
X0034017Y0188398D02*
X0033383Y0188398D01*
X0033700Y0188398D02*
X0033700Y0190300D01*
X0033383Y0190300D02*
X0034017Y0190300D01*
X0032441Y0189983D02*
X0032441Y0189349D01*
X0032124Y0189032D01*
X0031173Y0189032D01*
X0031173Y0188398D02*
X0031173Y0190300D01*
X0032124Y0190300D01*
X0032441Y0189983D01*
X0025482Y0166302D02*
X0025482Y0161798D01*
X0023981Y0161798D02*
X0026983Y0161798D01*
X0023981Y0164801D02*
X0025482Y0166302D01*
X0022379Y0165551D02*
X0022379Y0162549D01*
X0021629Y0161798D01*
X0019377Y0161798D01*
X0019377Y0166302D01*
X0021629Y0166302D01*
X0022379Y0165551D01*
X0017775Y0166302D02*
X0014773Y0166302D01*
X0014773Y0161798D01*
X0017775Y0161798D01*
X0016274Y0164050D02*
X0014773Y0164050D01*
X0013172Y0161798D02*
X0010169Y0161798D01*
X0010169Y0166302D01*
X0010169Y0159301D02*
X0010169Y0156298D01*
X0010169Y0157799D02*
X0011670Y0159301D01*
X0012421Y0159301D01*
X0014006Y0158550D02*
X0014756Y0159301D01*
X0016258Y0159301D01*
X0017008Y0158550D01*
X0017008Y0157799D01*
X0014006Y0157799D01*
X0014006Y0157049D02*
X0014006Y0158550D01*
X0014006Y0157049D02*
X0014756Y0156298D01*
X0016258Y0156298D01*
X0018610Y0157049D02*
X0019360Y0156298D01*
X0021612Y0156298D01*
X0021612Y0160802D01*
X0021612Y0159301D02*
X0019360Y0159301D01*
X0018610Y0158550D01*
X0018610Y0157049D01*
X0075169Y0184798D02*
X0075169Y0186700D01*
X0076120Y0186700D01*
X0076437Y0186383D01*
X0076437Y0185749D01*
X0076120Y0185432D01*
X0075169Y0185432D01*
X0077379Y0185749D02*
X0078330Y0185749D01*
X0078647Y0185432D01*
X0078647Y0185115D01*
X0078330Y0184798D01*
X0077379Y0184798D01*
X0077379Y0186700D01*
X0078330Y0186700D01*
X0078647Y0186383D01*
X0078647Y0186066D01*
X0078330Y0185749D01*
X0079919Y0192548D02*
X0082419Y0192548D01*
X0082419Y0195048D02*
X0084919Y0195048D01*
X0087419Y0192548D01*
X0089919Y0192548D01*
X0084642Y0198298D02*
X0084642Y0200200D01*
X0084009Y0200200D02*
X0085276Y0200200D01*
X0083066Y0200200D02*
X0081799Y0200200D01*
X0081799Y0198298D01*
X0083066Y0198298D01*
X0082433Y0199249D02*
X0081799Y0199249D01*
X0080857Y0198932D02*
X0080857Y0198615D01*
X0080540Y0198298D01*
X0079906Y0198298D01*
X0079589Y0198615D01*
X0079906Y0199249D02*
X0080540Y0199249D01*
X0080857Y0198932D01*
X0080857Y0199883D02*
X0080540Y0200200D01*
X0079906Y0200200D01*
X0079589Y0199883D01*
X0079589Y0199566D01*
X0079906Y0199249D01*
X0078647Y0200200D02*
X0077379Y0200200D01*
X0077379Y0198298D01*
X0078647Y0198298D01*
X0078013Y0199249D02*
X0077379Y0199249D01*
X0076437Y0199249D02*
X0076120Y0198932D01*
X0075169Y0198932D01*
X0075803Y0198932D02*
X0076437Y0198298D01*
X0076437Y0199249D02*
X0076437Y0199883D01*
X0076120Y0200200D01*
X0075169Y0200200D01*
X0075169Y0198298D01*
X0101165Y0197412D02*
X0101165Y0200414D01*
X0103417Y0198913D02*
X0103417Y0197412D01*
X0102666Y0195810D02*
X0105669Y0195810D01*
X0105669Y0193558D01*
X0104918Y0192808D01*
X0102666Y0192808D01*
X0105669Y0191206D02*
X0105669Y0188204D01*
X0105669Y0189705D02*
X0101165Y0189705D01*
X0102666Y0188204D01*
X0104918Y0186653D02*
X0105669Y0186653D01*
X0105669Y0185902D01*
X0104918Y0185902D01*
X0104918Y0186653D01*
X0104918Y0184301D02*
X0101916Y0184301D01*
X0104918Y0181298D01*
X0105669Y0182049D01*
X0105669Y0183550D01*
X0104918Y0184301D01*
X0101916Y0184301D02*
X0101165Y0183550D01*
X0101165Y0182049D01*
X0101916Y0181298D01*
X0104918Y0181298D01*
X0119678Y0193716D02*
X0120696Y0192698D01*
X0122731Y0192698D01*
X0123748Y0193716D01*
X0123748Y0197786D01*
X0122731Y0198803D01*
X0120696Y0198803D01*
X0119678Y0197786D01*
X0119678Y0193716D01*
X0125756Y0192698D02*
X0127791Y0192698D01*
X0126773Y0192698D02*
X0126773Y0198803D01*
X0125756Y0198803D01*
X0130825Y0196768D02*
X0132860Y0196768D01*
X0133877Y0195751D01*
X0133877Y0192698D01*
X0130825Y0192698D01*
X0129807Y0193716D01*
X0130825Y0194733D01*
X0133877Y0194733D01*
X0134876Y0188903D02*
X0133858Y0187886D01*
X0133858Y0186868D01*
X0134876Y0185851D01*
X0136911Y0185851D01*
X0137929Y0184833D01*
X0137929Y0183816D01*
X0136911Y0182798D01*
X0134876Y0182798D01*
X0133858Y0183816D01*
X0134876Y0188903D02*
X0136911Y0188903D01*
X0137929Y0187886D01*
X0139936Y0186868D02*
X0142988Y0186868D01*
X0144006Y0185851D01*
X0144006Y0183816D01*
X0142988Y0182798D01*
X0139936Y0182798D01*
X0139936Y0180763D02*
X0139936Y0186868D01*
X0146013Y0186868D02*
X0146013Y0182798D01*
X0146013Y0184833D02*
X0148048Y0186868D01*
X0149065Y0186868D01*
X0151077Y0186868D02*
X0152095Y0186868D01*
X0152095Y0182798D01*
X0153112Y0182798D02*
X0151077Y0182798D01*
X0155129Y0182798D02*
X0155129Y0186868D01*
X0158181Y0186868D01*
X0159199Y0185851D01*
X0159199Y0182798D01*
X0161206Y0183816D02*
X0162223Y0182798D01*
X0165276Y0182798D01*
X0165276Y0181780D02*
X0165276Y0186868D01*
X0162223Y0186868D01*
X0161206Y0185851D01*
X0161206Y0183816D01*
X0163241Y0180763D02*
X0164258Y0180763D01*
X0165276Y0181780D01*
X0173360Y0182798D02*
X0177430Y0186868D01*
X0177430Y0187886D01*
X0176413Y0188903D01*
X0174378Y0188903D01*
X0173360Y0187886D01*
X0171348Y0192698D02*
X0169313Y0192698D01*
X0168296Y0193716D01*
X0168296Y0195751D01*
X0169313Y0196768D01*
X0171348Y0196768D01*
X0172366Y0195751D01*
X0172366Y0193716D01*
X0171348Y0192698D01*
X0174373Y0193716D02*
X0175391Y0192698D01*
X0176408Y0193716D01*
X0177426Y0192698D01*
X0178443Y0193716D01*
X0178443Y0196768D01*
X0180450Y0195751D02*
X0181468Y0196768D01*
X0184520Y0196768D01*
X0183503Y0194733D02*
X0181468Y0194733D01*
X0180450Y0195751D01*
X0180450Y0192698D02*
X0183503Y0192698D01*
X0184520Y0193716D01*
X0183503Y0194733D01*
X0186527Y0194733D02*
X0189580Y0196768D01*
X0192609Y0196768D02*
X0194644Y0196768D01*
X0195662Y0195751D01*
X0195662Y0192698D01*
X0192609Y0192698D01*
X0191592Y0193716D01*
X0192609Y0194733D01*
X0195662Y0194733D01*
X0195662Y0188903D02*
X0191592Y0188903D01*
X0187550Y0188903D02*
X0187550Y0182798D01*
X0185515Y0182798D02*
X0189585Y0182798D01*
X0191592Y0182798D02*
X0191592Y0183816D01*
X0195662Y0187886D01*
X0195662Y0188903D01*
X0189580Y0192698D02*
X0186527Y0194733D01*
X0186527Y0192698D02*
X0186527Y0198803D01*
X0187550Y0188903D02*
X0185515Y0186868D01*
X0183508Y0187886D02*
X0183508Y0183816D01*
X0182490Y0182798D01*
X0180455Y0182798D01*
X0179437Y0183816D01*
X0183508Y0187886D01*
X0182490Y0188903D01*
X0180455Y0188903D01*
X0179437Y0187886D01*
X0179437Y0183816D01*
X0177430Y0182798D02*
X0173360Y0182798D01*
X0174373Y0193716D02*
X0174373Y0196768D01*
X0166289Y0195751D02*
X0166289Y0192698D01*
X0166289Y0195751D02*
X0165271Y0196768D01*
X0162219Y0196768D01*
X0162219Y0192698D01*
X0160202Y0192698D02*
X0158167Y0192698D01*
X0159185Y0192698D02*
X0159185Y0196768D01*
X0158167Y0196768D01*
X0159185Y0198803D02*
X0159185Y0199821D01*
X0155133Y0198803D02*
X0155133Y0192698D01*
X0154116Y0192698D02*
X0156151Y0192698D01*
X0152109Y0192698D02*
X0149056Y0192698D01*
X0148039Y0193716D01*
X0149056Y0194733D01*
X0152109Y0194733D01*
X0152109Y0195751D02*
X0152109Y0192698D01*
X0152095Y0189921D02*
X0152095Y0188903D01*
X0152109Y0195751D02*
X0151091Y0196768D01*
X0149056Y0196768D01*
X0146032Y0198803D02*
X0141961Y0194733D01*
X0142979Y0195751D02*
X0146032Y0192698D01*
X0141961Y0192698D02*
X0141961Y0198803D01*
X0154116Y0198803D02*
X0155133Y0198803D01*
X0105669Y0197412D02*
X0101165Y0197412D01*
D12*
X0179873Y0144460D02*
X0179873Y0140356D01*
X0181925Y0140356D01*
X0182609Y0141040D01*
X0182609Y0141724D01*
X0181925Y0142408D01*
X0179873Y0142408D01*
X0179873Y0144460D02*
X0181925Y0144460D01*
X0182609Y0143776D01*
X0182609Y0143092D01*
X0181925Y0142408D01*
X0184017Y0143092D02*
X0185385Y0144460D01*
X0185385Y0140356D01*
X0184017Y0140356D02*
X0186753Y0140356D01*
X0188161Y0141040D02*
X0188844Y0140356D01*
X0190212Y0140356D01*
X0190896Y0141040D01*
X0190896Y0142408D01*
X0190212Y0143092D01*
X0189528Y0143092D01*
X0188161Y0142408D01*
X0188161Y0144460D01*
X0190896Y0144460D01*
X0190212Y0134460D02*
X0188161Y0132408D01*
X0190896Y0132408D01*
X0190212Y0130356D02*
X0190212Y0134460D01*
X0185385Y0134460D02*
X0185385Y0130356D01*
X0184017Y0130356D02*
X0186753Y0130356D01*
X0184017Y0133092D02*
X0185385Y0134460D01*
X0182609Y0133776D02*
X0182609Y0133092D01*
X0181925Y0132408D01*
X0179873Y0132408D01*
X0179873Y0130356D02*
X0181925Y0130356D01*
X0182609Y0131040D01*
X0182609Y0131724D01*
X0181925Y0132408D01*
X0182609Y0133776D02*
X0181925Y0134460D01*
X0179873Y0134460D01*
X0179873Y0130356D01*
X0179873Y0124460D02*
X0181925Y0124460D01*
X0182609Y0123776D01*
X0182609Y0123092D01*
X0181925Y0122408D01*
X0179873Y0122408D01*
X0179873Y0120356D02*
X0181925Y0120356D01*
X0182609Y0121040D01*
X0182609Y0121724D01*
X0181925Y0122408D01*
X0184017Y0123092D02*
X0185385Y0124460D01*
X0185385Y0120356D01*
X0184017Y0120356D02*
X0186753Y0120356D01*
X0188161Y0121040D02*
X0188844Y0120356D01*
X0190212Y0120356D01*
X0190896Y0121040D01*
X0190896Y0121724D01*
X0190212Y0122408D01*
X0189528Y0122408D01*
X0190212Y0122408D02*
X0190896Y0123092D01*
X0190896Y0123776D01*
X0190212Y0124460D01*
X0188844Y0124460D01*
X0188161Y0123776D01*
X0179873Y0124460D02*
X0179873Y0120356D01*
X0184017Y0114460D02*
X0186069Y0114460D01*
X0186753Y0113776D01*
X0186753Y0113092D01*
X0186069Y0112408D01*
X0184017Y0112408D01*
X0184017Y0110356D02*
X0186069Y0110356D01*
X0186753Y0111040D01*
X0186753Y0111724D01*
X0186069Y0112408D01*
X0188161Y0113092D02*
X0188161Y0113776D01*
X0188844Y0114460D01*
X0190212Y0114460D01*
X0190896Y0113776D01*
X0190896Y0111040D01*
X0190212Y0110356D01*
X0188844Y0110356D01*
X0188161Y0111040D01*
X0188844Y0112408D02*
X0190896Y0112408D01*
X0188844Y0112408D02*
X0188161Y0113092D01*
X0184017Y0114460D02*
X0184017Y0110356D01*
X0184017Y0104460D02*
X0186069Y0104460D01*
X0186753Y0103776D01*
X0186753Y0103092D01*
X0186069Y0102408D01*
X0184017Y0102408D01*
X0184017Y0100356D02*
X0186069Y0100356D01*
X0186753Y0101040D01*
X0186753Y0101724D01*
X0186069Y0102408D01*
X0188161Y0101724D02*
X0188844Y0102408D01*
X0190212Y0102408D01*
X0190896Y0101724D01*
X0190896Y0101040D01*
X0190212Y0100356D01*
X0188844Y0100356D01*
X0188161Y0101040D01*
X0188161Y0101724D01*
X0188844Y0102408D02*
X0188161Y0103092D01*
X0188161Y0103776D01*
X0188844Y0104460D01*
X0190212Y0104460D01*
X0190896Y0103776D01*
X0190896Y0103092D01*
X0190212Y0102408D01*
X0184017Y0100356D02*
X0184017Y0104460D01*
X0184017Y0094460D02*
X0186069Y0094460D01*
X0186753Y0093776D01*
X0186753Y0093092D01*
X0186069Y0092408D01*
X0184017Y0092408D01*
X0184017Y0090356D02*
X0186069Y0090356D01*
X0186753Y0091040D01*
X0186753Y0091724D01*
X0186069Y0092408D01*
X0188161Y0091040D02*
X0188161Y0090356D01*
X0188161Y0091040D02*
X0190896Y0093776D01*
X0190896Y0094460D01*
X0188161Y0094460D01*
X0184017Y0094460D02*
X0184017Y0090356D01*
X0184017Y0084460D02*
X0184017Y0082408D01*
X0185385Y0083092D01*
X0186069Y0083092D01*
X0186753Y0082408D01*
X0186753Y0081040D01*
X0186069Y0080356D01*
X0184701Y0080356D01*
X0184017Y0081040D01*
X0182609Y0082408D02*
X0179873Y0082408D01*
X0181241Y0083776D02*
X0181241Y0081040D01*
X0184017Y0084460D02*
X0186753Y0084460D01*
X0188161Y0084460D02*
X0188161Y0081724D01*
X0189528Y0080356D01*
X0190896Y0081724D01*
X0190896Y0084460D01*
X0190212Y0074460D02*
X0188161Y0074460D01*
X0188161Y0070356D01*
X0190212Y0070356D01*
X0190896Y0071040D01*
X0190896Y0073776D01*
X0190212Y0074460D01*
X0186753Y0074460D02*
X0186753Y0070356D01*
X0184017Y0074460D01*
X0184017Y0070356D01*
X0182609Y0071040D02*
X0182609Y0072408D01*
X0181241Y0072408D01*
X0179873Y0071040D02*
X0180557Y0070356D01*
X0181925Y0070356D01*
X0182609Y0071040D01*
X0179873Y0071040D02*
X0179873Y0073776D01*
X0180557Y0074460D01*
X0181925Y0074460D01*
X0182609Y0073776D01*
X0152462Y0031978D02*
X0149393Y0031978D01*
X0149393Y0027374D01*
X0152462Y0027374D01*
X0150928Y0029676D02*
X0149393Y0029676D01*
X0147858Y0028141D02*
X0147858Y0031211D01*
X0147091Y0031978D01*
X0144789Y0031978D01*
X0144789Y0027374D01*
X0147091Y0027374D01*
X0147858Y0028141D01*
X0143254Y0027374D02*
X0141720Y0027374D01*
X0142487Y0027374D02*
X0142487Y0031978D01*
X0141720Y0031978D02*
X0143254Y0031978D01*
X0140185Y0027374D02*
X0137116Y0027374D01*
X0137116Y0031978D01*
X0135581Y0031211D02*
X0134814Y0031978D01*
X0133279Y0031978D01*
X0132512Y0031211D01*
X0132512Y0030443D01*
X0133279Y0029676D01*
X0134814Y0029676D01*
X0135581Y0028909D01*
X0135581Y0028141D01*
X0134814Y0027374D01*
X0133279Y0027374D01*
X0132512Y0028141D01*
X0042461Y0100248D02*
X0041093Y0101616D01*
X0041777Y0101616D02*
X0039725Y0101616D01*
X0039725Y0100248D02*
X0039725Y0104352D01*
X0041777Y0104352D01*
X0042461Y0103668D01*
X0042461Y0102300D01*
X0041777Y0101616D01*
X0038318Y0100248D02*
X0035582Y0100248D01*
X0035582Y0104352D01*
X0038318Y0104352D01*
X0036950Y0102300D02*
X0035582Y0102300D01*
X0034174Y0101616D02*
X0034174Y0100932D01*
X0033490Y0100248D01*
X0032122Y0100248D01*
X0031438Y0100932D01*
X0030031Y0100932D02*
X0030031Y0104352D01*
X0031438Y0103668D02*
X0031438Y0102984D01*
X0032122Y0102300D01*
X0033490Y0102300D01*
X0034174Y0101616D01*
X0034174Y0103668D02*
X0033490Y0104352D01*
X0032122Y0104352D01*
X0031438Y0103668D01*
X0030031Y0100932D02*
X0029347Y0100248D01*
X0027979Y0100248D01*
X0027295Y0100932D01*
X0027295Y0104352D01*
X0025887Y0104352D02*
X0023151Y0100248D01*
X0021060Y0100248D02*
X0021060Y0104352D01*
X0019008Y0102300D01*
X0021743Y0102300D01*
X0017600Y0102984D02*
X0016916Y0102300D01*
X0014864Y0102300D01*
X0014864Y0100248D02*
X0014864Y0104352D01*
X0016916Y0104352D01*
X0017600Y0103668D01*
X0017600Y0102984D01*
X0016916Y0102300D02*
X0017600Y0101616D01*
X0017600Y0100932D01*
X0016916Y0100248D01*
X0014864Y0100248D01*
X0015376Y0094352D02*
X0014008Y0092984D01*
X0014008Y0090248D01*
X0014008Y0092300D02*
X0016743Y0092300D01*
X0016743Y0092984D02*
X0015376Y0094352D01*
X0016743Y0092984D02*
X0016743Y0090248D01*
X0018151Y0092300D02*
X0020887Y0092300D01*
X0020203Y0090248D02*
X0020203Y0094352D01*
X0018151Y0092300D01*
X0022295Y0090248D02*
X0025031Y0094352D01*
X0026438Y0094352D02*
X0026438Y0090248D01*
X0029174Y0090248D01*
X0030582Y0090248D02*
X0033318Y0090248D01*
X0034725Y0090248D02*
X0036777Y0090248D01*
X0037461Y0090932D01*
X0037461Y0093668D01*
X0036777Y0094352D01*
X0034725Y0094352D01*
X0034725Y0090248D01*
X0031950Y0092300D02*
X0030582Y0092300D01*
X0030582Y0094352D02*
X0030582Y0090248D01*
X0030582Y0094352D02*
X0033318Y0094352D01*
X0028027Y0084352D02*
X0028711Y0083668D01*
X0028711Y0082984D01*
X0028027Y0082300D01*
X0028711Y0081616D01*
X0028711Y0080932D01*
X0028027Y0080248D01*
X0026659Y0080248D01*
X0025975Y0080932D01*
X0024568Y0081616D02*
X0024568Y0084352D01*
X0025975Y0083668D02*
X0026659Y0084352D01*
X0028027Y0084352D01*
X0028027Y0082300D02*
X0027343Y0082300D01*
X0024568Y0081616D02*
X0023200Y0080248D01*
X0021832Y0081616D01*
X0021832Y0084352D01*
X0020424Y0083668D02*
X0020424Y0082984D01*
X0019740Y0082300D01*
X0020424Y0081616D01*
X0020424Y0080932D01*
X0019740Y0080248D01*
X0018372Y0080248D01*
X0017688Y0080932D01*
X0019056Y0082300D02*
X0019740Y0082300D01*
X0020424Y0083668D02*
X0019740Y0084352D01*
X0018372Y0084352D01*
X0017688Y0083668D01*
X0016281Y0082300D02*
X0013545Y0082300D01*
X0014913Y0083668D02*
X0014913Y0080932D01*
X0018372Y0074352D02*
X0017688Y0073668D01*
X0017688Y0070932D01*
X0018372Y0070248D01*
X0019740Y0070248D01*
X0020424Y0070932D01*
X0020424Y0072300D01*
X0019056Y0072300D01*
X0020424Y0073668D02*
X0019740Y0074352D01*
X0018372Y0074352D01*
X0021832Y0074352D02*
X0024568Y0070248D01*
X0024568Y0074352D01*
X0025975Y0074352D02*
X0028027Y0074352D01*
X0028711Y0073668D01*
X0028711Y0070932D01*
X0028027Y0070248D01*
X0025975Y0070248D01*
X0025975Y0074352D01*
X0021832Y0074352D02*
X0021832Y0070248D01*
X0020527Y0110248D02*
X0019159Y0110248D01*
X0018475Y0110932D01*
X0017068Y0110932D02*
X0017068Y0111616D01*
X0016384Y0112300D01*
X0014332Y0112300D01*
X0014332Y0110248D02*
X0014332Y0114352D01*
X0016384Y0114352D01*
X0017068Y0113668D01*
X0017068Y0112984D01*
X0016384Y0112300D01*
X0017068Y0110932D02*
X0016384Y0110248D01*
X0014332Y0110248D01*
X0018475Y0113668D02*
X0019159Y0114352D01*
X0020527Y0114352D01*
X0021211Y0113668D01*
X0021211Y0112984D01*
X0020527Y0112300D01*
X0021211Y0111616D01*
X0021211Y0110932D01*
X0020527Y0110248D01*
X0020527Y0112300D02*
X0019843Y0112300D01*
X0018475Y0120248D02*
X0021211Y0122984D01*
X0021211Y0123668D01*
X0020527Y0124352D01*
X0019159Y0124352D01*
X0018475Y0123668D01*
X0017068Y0123668D02*
X0016384Y0124352D01*
X0014332Y0124352D01*
X0014332Y0120248D01*
X0016384Y0120248D01*
X0017068Y0120932D01*
X0017068Y0121616D01*
X0016384Y0122300D01*
X0014332Y0122300D01*
X0016384Y0122300D02*
X0017068Y0122984D01*
X0017068Y0123668D01*
X0018475Y0120248D02*
X0021211Y0120248D01*
X0021211Y0130248D02*
X0018475Y0130248D01*
X0019843Y0130248D02*
X0019843Y0134352D01*
X0018475Y0132984D01*
X0017068Y0132984D02*
X0017068Y0130248D01*
X0017068Y0132300D02*
X0014332Y0132300D01*
X0014332Y0132984D02*
X0015700Y0134352D01*
X0017068Y0132984D01*
X0014332Y0132984D02*
X0014332Y0130248D01*
X0014017Y0140356D02*
X0014017Y0143092D01*
X0015385Y0144460D01*
X0016753Y0143092D01*
X0016753Y0140356D01*
X0018161Y0141040D02*
X0020896Y0143776D01*
X0020896Y0141040D01*
X0020212Y0140356D01*
X0018844Y0140356D01*
X0018161Y0141040D01*
X0018161Y0143776D01*
X0018844Y0144460D01*
X0020212Y0144460D01*
X0020896Y0143776D01*
X0016753Y0142408D02*
X0014017Y0142408D01*
D13*
X0069919Y0100048D02*
X0069919Y0075048D01*
X0072419Y0072548D01*
X0077419Y0072548D01*
X0079919Y0075048D01*
X0079919Y0100048D01*
X0077419Y0102548D01*
X0072419Y0102548D01*
X0069919Y0100048D01*
X0027419Y0060048D02*
X0027419Y0035048D01*
X0019919Y0032548D01*
X0014919Y0032548D01*
X0007419Y0035048D01*
X0007419Y0060048D01*
X0014919Y0062548D01*
X0019919Y0062548D01*
X0027419Y0060048D01*
X0072419Y0182548D02*
X0069919Y0190048D01*
X0069919Y0195048D01*
X0072419Y0202548D01*
X0097419Y0202548D01*
X0099919Y0195048D01*
X0099919Y0190048D01*
X0097419Y0182548D01*
X0072419Y0182548D01*
D14*
X0066419Y0177048D02*
X0064919Y0177048D01*
X0064419Y0176548D01*
X0045419Y0176548D01*
X0044919Y0177048D01*
X0043419Y0177048D01*
X0043359Y0177046D01*
X0043298Y0177041D01*
X0043239Y0177032D01*
X0043180Y0177019D01*
X0043121Y0177003D01*
X0043064Y0176983D01*
X0043009Y0176960D01*
X0042954Y0176933D01*
X0042902Y0176904D01*
X0042851Y0176871D01*
X0042802Y0176835D01*
X0042756Y0176797D01*
X0042712Y0176755D01*
X0042670Y0176711D01*
X0042632Y0176665D01*
X0042596Y0176616D01*
X0042563Y0176565D01*
X0042534Y0176513D01*
X0042507Y0176458D01*
X0042484Y0176403D01*
X0042464Y0176346D01*
X0042448Y0176287D01*
X0042435Y0176228D01*
X0042426Y0176169D01*
X0042421Y0176108D01*
X0042419Y0176048D01*
X0042419Y0169048D01*
X0042421Y0168988D01*
X0042426Y0168927D01*
X0042435Y0168868D01*
X0042448Y0168809D01*
X0042464Y0168750D01*
X0042484Y0168693D01*
X0042507Y0168638D01*
X0042534Y0168583D01*
X0042563Y0168531D01*
X0042596Y0168480D01*
X0042632Y0168431D01*
X0042670Y0168385D01*
X0042712Y0168341D01*
X0042756Y0168299D01*
X0042802Y0168261D01*
X0042851Y0168225D01*
X0042902Y0168192D01*
X0042954Y0168163D01*
X0043009Y0168136D01*
X0043064Y0168113D01*
X0043121Y0168093D01*
X0043180Y0168077D01*
X0043239Y0168064D01*
X0043298Y0168055D01*
X0043359Y0168050D01*
X0043419Y0168048D01*
X0044919Y0168048D01*
X0045419Y0168548D01*
X0064419Y0168548D01*
X0064919Y0168048D01*
X0066419Y0168048D01*
X0066419Y0167048D02*
X0064919Y0167048D01*
X0064419Y0166548D01*
X0045419Y0166548D01*
X0044919Y0167048D01*
X0043419Y0167048D01*
X0043359Y0167046D01*
X0043298Y0167041D01*
X0043239Y0167032D01*
X0043180Y0167019D01*
X0043121Y0167003D01*
X0043064Y0166983D01*
X0043009Y0166960D01*
X0042954Y0166933D01*
X0042902Y0166904D01*
X0042851Y0166871D01*
X0042802Y0166835D01*
X0042756Y0166797D01*
X0042712Y0166755D01*
X0042670Y0166711D01*
X0042632Y0166665D01*
X0042596Y0166616D01*
X0042563Y0166565D01*
X0042534Y0166513D01*
X0042507Y0166458D01*
X0042484Y0166403D01*
X0042464Y0166346D01*
X0042448Y0166287D01*
X0042435Y0166228D01*
X0042426Y0166169D01*
X0042421Y0166108D01*
X0042419Y0166048D01*
X0042419Y0159048D01*
X0042421Y0158988D01*
X0042426Y0158927D01*
X0042435Y0158868D01*
X0042448Y0158809D01*
X0042464Y0158750D01*
X0042484Y0158693D01*
X0042507Y0158638D01*
X0042534Y0158583D01*
X0042563Y0158531D01*
X0042596Y0158480D01*
X0042632Y0158431D01*
X0042670Y0158385D01*
X0042712Y0158341D01*
X0042756Y0158299D01*
X0042802Y0158261D01*
X0042851Y0158225D01*
X0042902Y0158192D01*
X0042954Y0158163D01*
X0043009Y0158136D01*
X0043064Y0158113D01*
X0043121Y0158093D01*
X0043180Y0158077D01*
X0043239Y0158064D01*
X0043298Y0158055D01*
X0043359Y0158050D01*
X0043419Y0158048D01*
X0044919Y0158048D01*
X0045419Y0158548D01*
X0064419Y0158548D01*
X0064919Y0158048D01*
X0066419Y0158048D01*
X0066479Y0158050D01*
X0066540Y0158055D01*
X0066599Y0158064D01*
X0066658Y0158077D01*
X0066717Y0158093D01*
X0066774Y0158113D01*
X0066829Y0158136D01*
X0066884Y0158163D01*
X0066936Y0158192D01*
X0066987Y0158225D01*
X0067036Y0158261D01*
X0067082Y0158299D01*
X0067126Y0158341D01*
X0067168Y0158385D01*
X0067206Y0158431D01*
X0067242Y0158480D01*
X0067275Y0158531D01*
X0067304Y0158583D01*
X0067331Y0158638D01*
X0067354Y0158693D01*
X0067374Y0158750D01*
X0067390Y0158809D01*
X0067403Y0158868D01*
X0067412Y0158927D01*
X0067417Y0158988D01*
X0067419Y0159048D01*
X0067419Y0166048D01*
X0067417Y0166108D01*
X0067412Y0166169D01*
X0067403Y0166228D01*
X0067390Y0166287D01*
X0067374Y0166346D01*
X0067354Y0166403D01*
X0067331Y0166458D01*
X0067304Y0166513D01*
X0067275Y0166565D01*
X0067242Y0166616D01*
X0067206Y0166665D01*
X0067168Y0166711D01*
X0067126Y0166755D01*
X0067082Y0166797D01*
X0067036Y0166835D01*
X0066987Y0166871D01*
X0066936Y0166904D01*
X0066884Y0166933D01*
X0066829Y0166960D01*
X0066774Y0166983D01*
X0066717Y0167003D01*
X0066658Y0167019D01*
X0066599Y0167032D01*
X0066540Y0167041D01*
X0066479Y0167046D01*
X0066419Y0167048D01*
X0066419Y0168048D02*
X0066479Y0168050D01*
X0066540Y0168055D01*
X0066599Y0168064D01*
X0066658Y0168077D01*
X0066717Y0168093D01*
X0066774Y0168113D01*
X0066829Y0168136D01*
X0066884Y0168163D01*
X0066936Y0168192D01*
X0066987Y0168225D01*
X0067036Y0168261D01*
X0067082Y0168299D01*
X0067126Y0168341D01*
X0067168Y0168385D01*
X0067206Y0168431D01*
X0067242Y0168480D01*
X0067275Y0168531D01*
X0067304Y0168583D01*
X0067331Y0168638D01*
X0067354Y0168693D01*
X0067374Y0168750D01*
X0067390Y0168809D01*
X0067403Y0168868D01*
X0067412Y0168927D01*
X0067417Y0168988D01*
X0067419Y0169048D01*
X0067419Y0176048D01*
X0067417Y0176108D01*
X0067412Y0176169D01*
X0067403Y0176228D01*
X0067390Y0176287D01*
X0067374Y0176346D01*
X0067354Y0176403D01*
X0067331Y0176458D01*
X0067304Y0176513D01*
X0067275Y0176565D01*
X0067242Y0176616D01*
X0067206Y0176665D01*
X0067168Y0176711D01*
X0067126Y0176755D01*
X0067082Y0176797D01*
X0067036Y0176835D01*
X0066987Y0176871D01*
X0066936Y0176904D01*
X0066884Y0176933D01*
X0066829Y0176960D01*
X0066774Y0176983D01*
X0066717Y0177003D01*
X0066658Y0177019D01*
X0066599Y0177032D01*
X0066540Y0177041D01*
X0066479Y0177046D01*
X0066419Y0177048D01*
X0093344Y0175973D02*
X0098344Y0175973D01*
X0098346Y0175833D01*
X0098352Y0175693D01*
X0098362Y0175553D01*
X0098375Y0175413D01*
X0098393Y0175274D01*
X0098415Y0175135D01*
X0098440Y0174998D01*
X0098469Y0174860D01*
X0098502Y0174724D01*
X0098539Y0174589D01*
X0098580Y0174455D01*
X0098625Y0174322D01*
X0098673Y0174190D01*
X0098725Y0174060D01*
X0098780Y0173931D01*
X0098839Y0173804D01*
X0098902Y0173678D01*
X0098968Y0173554D01*
X0099037Y0173433D01*
X0099110Y0173313D01*
X0099187Y0173195D01*
X0099266Y0173080D01*
X0099349Y0172966D01*
X0099435Y0172856D01*
X0099524Y0172747D01*
X0099616Y0172641D01*
X0099711Y0172538D01*
X0099808Y0172437D01*
X0099909Y0172340D01*
X0100012Y0172245D01*
X0100118Y0172153D01*
X0100227Y0172064D01*
X0100337Y0171978D01*
X0100451Y0171895D01*
X0100566Y0171816D01*
X0100684Y0171739D01*
X0100804Y0171666D01*
X0100925Y0171597D01*
X0101049Y0171531D01*
X0101175Y0171468D01*
X0101302Y0171409D01*
X0101431Y0171354D01*
X0101561Y0171302D01*
X0101693Y0171254D01*
X0101826Y0171209D01*
X0101960Y0171168D01*
X0102095Y0171131D01*
X0102231Y0171098D01*
X0102369Y0171069D01*
X0102506Y0171044D01*
X0102645Y0171022D01*
X0102784Y0171004D01*
X0102924Y0170991D01*
X0103064Y0170981D01*
X0103204Y0170975D01*
X0103344Y0170973D01*
X0103484Y0170975D01*
X0103624Y0170981D01*
X0103764Y0170991D01*
X0103904Y0171004D01*
X0104043Y0171022D01*
X0104182Y0171044D01*
X0104319Y0171069D01*
X0104457Y0171098D01*
X0104593Y0171131D01*
X0104728Y0171168D01*
X0104862Y0171209D01*
X0104995Y0171254D01*
X0105127Y0171302D01*
X0105257Y0171354D01*
X0105386Y0171409D01*
X0105513Y0171468D01*
X0105639Y0171531D01*
X0105763Y0171597D01*
X0105884Y0171666D01*
X0106004Y0171739D01*
X0106122Y0171816D01*
X0106237Y0171895D01*
X0106351Y0171978D01*
X0106461Y0172064D01*
X0106570Y0172153D01*
X0106676Y0172245D01*
X0106779Y0172340D01*
X0106880Y0172437D01*
X0106977Y0172538D01*
X0107072Y0172641D01*
X0107164Y0172747D01*
X0107253Y0172856D01*
X0107339Y0172966D01*
X0107422Y0173080D01*
X0107501Y0173195D01*
X0107578Y0173313D01*
X0107651Y0173433D01*
X0107720Y0173554D01*
X0107786Y0173678D01*
X0107849Y0173804D01*
X0107908Y0173931D01*
X0107963Y0174060D01*
X0108015Y0174190D01*
X0108063Y0174322D01*
X0108108Y0174455D01*
X0108149Y0174589D01*
X0108186Y0174724D01*
X0108219Y0174860D01*
X0108248Y0174998D01*
X0108273Y0175135D01*
X0108295Y0175274D01*
X0108313Y0175413D01*
X0108326Y0175553D01*
X0108336Y0175693D01*
X0108342Y0175833D01*
X0108344Y0175973D01*
X0113344Y0175973D01*
X0113344Y0035973D01*
X0093344Y0035973D01*
X0093344Y0175473D01*
X0107419Y0181548D02*
X0107419Y0198548D01*
X0107421Y0198608D01*
X0107426Y0198669D01*
X0107435Y0198728D01*
X0107448Y0198787D01*
X0107464Y0198846D01*
X0107484Y0198903D01*
X0107507Y0198958D01*
X0107534Y0199013D01*
X0107563Y0199065D01*
X0107596Y0199116D01*
X0107632Y0199165D01*
X0107670Y0199211D01*
X0107712Y0199255D01*
X0107756Y0199297D01*
X0107802Y0199335D01*
X0107851Y0199371D01*
X0107902Y0199404D01*
X0107954Y0199433D01*
X0108009Y0199460D01*
X0108064Y0199483D01*
X0108121Y0199503D01*
X0108180Y0199519D01*
X0108239Y0199532D01*
X0108298Y0199541D01*
X0108359Y0199546D01*
X0108419Y0199548D01*
X0116419Y0199548D01*
X0116479Y0199546D01*
X0116540Y0199541D01*
X0116599Y0199532D01*
X0116658Y0199519D01*
X0116717Y0199503D01*
X0116774Y0199483D01*
X0116829Y0199460D01*
X0116884Y0199433D01*
X0116936Y0199404D01*
X0116987Y0199371D01*
X0117036Y0199335D01*
X0117082Y0199297D01*
X0117126Y0199255D01*
X0117168Y0199211D01*
X0117206Y0199165D01*
X0117242Y0199116D01*
X0117275Y0199065D01*
X0117304Y0199013D01*
X0117331Y0198958D01*
X0117354Y0198903D01*
X0117374Y0198846D01*
X0117390Y0198787D01*
X0117403Y0198728D01*
X0117412Y0198669D01*
X0117417Y0198608D01*
X0117419Y0198548D01*
X0117419Y0181548D01*
X0117417Y0181488D01*
X0117412Y0181427D01*
X0117403Y0181368D01*
X0117390Y0181309D01*
X0117374Y0181250D01*
X0117354Y0181193D01*
X0117331Y0181138D01*
X0117304Y0181083D01*
X0117275Y0181031D01*
X0117242Y0180980D01*
X0117206Y0180931D01*
X0117168Y0180885D01*
X0117126Y0180841D01*
X0117082Y0180799D01*
X0117036Y0180761D01*
X0116987Y0180725D01*
X0116936Y0180692D01*
X0116884Y0180663D01*
X0116829Y0180636D01*
X0116774Y0180613D01*
X0116717Y0180593D01*
X0116658Y0180577D01*
X0116599Y0180564D01*
X0116540Y0180555D01*
X0116479Y0180550D01*
X0116419Y0180548D01*
X0108419Y0180548D01*
X0108359Y0180550D01*
X0108298Y0180555D01*
X0108239Y0180564D01*
X0108180Y0180577D01*
X0108121Y0180593D01*
X0108064Y0180613D01*
X0108009Y0180636D01*
X0107954Y0180663D01*
X0107902Y0180692D01*
X0107851Y0180725D01*
X0107802Y0180761D01*
X0107756Y0180799D01*
X0107712Y0180841D01*
X0107670Y0180885D01*
X0107632Y0180931D01*
X0107596Y0180980D01*
X0107563Y0181031D01*
X0107534Y0181083D01*
X0107507Y0181138D01*
X0107484Y0181193D01*
X0107464Y0181250D01*
X0107448Y0181309D01*
X0107435Y0181368D01*
X0107426Y0181427D01*
X0107421Y0181488D01*
X0107419Y0181548D01*
X0112419Y0188548D02*
X0112419Y0189048D01*
X0112419Y0191048D02*
X0112419Y0191548D01*
X0133419Y0097048D02*
X0146419Y0097048D01*
X0149419Y0094048D01*
X0149419Y0069548D01*
X0149417Y0069472D01*
X0149411Y0069396D01*
X0149402Y0069321D01*
X0149388Y0069246D01*
X0149371Y0069172D01*
X0149350Y0069099D01*
X0149326Y0069027D01*
X0149297Y0068956D01*
X0149266Y0068887D01*
X0149231Y0068820D01*
X0149192Y0068755D01*
X0149150Y0068691D01*
X0149105Y0068630D01*
X0149057Y0068571D01*
X0149006Y0068515D01*
X0148952Y0068461D01*
X0148896Y0068410D01*
X0148837Y0068362D01*
X0148776Y0068317D01*
X0148712Y0068275D01*
X0148647Y0068236D01*
X0148580Y0068201D01*
X0148511Y0068170D01*
X0148440Y0068141D01*
X0148368Y0068117D01*
X0148295Y0068096D01*
X0148221Y0068079D01*
X0148146Y0068065D01*
X0148071Y0068056D01*
X0147995Y0068050D01*
X0147919Y0068048D01*
X0131919Y0068048D01*
X0131843Y0068050D01*
X0131767Y0068056D01*
X0131692Y0068065D01*
X0131617Y0068079D01*
X0131543Y0068096D01*
X0131470Y0068117D01*
X0131398Y0068141D01*
X0131327Y0068170D01*
X0131258Y0068201D01*
X0131191Y0068236D01*
X0131126Y0068275D01*
X0131062Y0068317D01*
X0131001Y0068362D01*
X0130942Y0068410D01*
X0130886Y0068461D01*
X0130832Y0068515D01*
X0130781Y0068571D01*
X0130733Y0068630D01*
X0130688Y0068691D01*
X0130646Y0068755D01*
X0130607Y0068820D01*
X0130572Y0068887D01*
X0130541Y0068956D01*
X0130512Y0069027D01*
X0130488Y0069099D01*
X0130467Y0069172D01*
X0130450Y0069246D01*
X0130436Y0069321D01*
X0130427Y0069396D01*
X0130421Y0069472D01*
X0130419Y0069548D01*
X0130419Y0094048D01*
X0133419Y0097048D01*
X0139919Y0088548D02*
X0139919Y0085048D01*
X0144719Y0085048D01*
X0144719Y0083048D01*
X0135119Y0083048D01*
X0135119Y0085048D01*
X0139919Y0085048D01*
X0144019Y0089548D02*
X0146519Y0089548D01*
X0145319Y0088248D02*
X0145319Y0090848D01*
X0139919Y0080048D02*
X0139919Y0076548D01*
X0123919Y0027048D02*
X0115919Y0027048D01*
X0115859Y0027046D01*
X0115798Y0027041D01*
X0115739Y0027032D01*
X0115680Y0027019D01*
X0115621Y0027003D01*
X0115564Y0026983D01*
X0115509Y0026960D01*
X0115454Y0026933D01*
X0115402Y0026904D01*
X0115351Y0026871D01*
X0115302Y0026835D01*
X0115256Y0026797D01*
X0115212Y0026755D01*
X0115170Y0026711D01*
X0115132Y0026665D01*
X0115096Y0026616D01*
X0115063Y0026565D01*
X0115034Y0026513D01*
X0115007Y0026458D01*
X0114984Y0026403D01*
X0114964Y0026346D01*
X0114948Y0026287D01*
X0114935Y0026228D01*
X0114926Y0026169D01*
X0114921Y0026108D01*
X0114919Y0026048D01*
X0114919Y0009048D01*
X0114921Y0008988D01*
X0114926Y0008927D01*
X0114935Y0008868D01*
X0114948Y0008809D01*
X0114964Y0008750D01*
X0114984Y0008693D01*
X0115007Y0008638D01*
X0115034Y0008583D01*
X0115063Y0008531D01*
X0115096Y0008480D01*
X0115132Y0008431D01*
X0115170Y0008385D01*
X0115212Y0008341D01*
X0115256Y0008299D01*
X0115302Y0008261D01*
X0115351Y0008225D01*
X0115402Y0008192D01*
X0115454Y0008163D01*
X0115509Y0008136D01*
X0115564Y0008113D01*
X0115621Y0008093D01*
X0115680Y0008077D01*
X0115739Y0008064D01*
X0115798Y0008055D01*
X0115859Y0008050D01*
X0115919Y0008048D01*
X0123919Y0008048D01*
X0123979Y0008050D01*
X0124040Y0008055D01*
X0124099Y0008064D01*
X0124158Y0008077D01*
X0124217Y0008093D01*
X0124274Y0008113D01*
X0124329Y0008136D01*
X0124384Y0008163D01*
X0124436Y0008192D01*
X0124487Y0008225D01*
X0124536Y0008261D01*
X0124582Y0008299D01*
X0124626Y0008341D01*
X0124668Y0008385D01*
X0124706Y0008431D01*
X0124742Y0008480D01*
X0124775Y0008531D01*
X0124804Y0008583D01*
X0124831Y0008638D01*
X0124854Y0008693D01*
X0124874Y0008750D01*
X0124890Y0008809D01*
X0124903Y0008868D01*
X0124912Y0008927D01*
X0124917Y0008988D01*
X0124919Y0009048D01*
X0124919Y0026048D01*
X0124917Y0026108D01*
X0124912Y0026169D01*
X0124903Y0026228D01*
X0124890Y0026287D01*
X0124874Y0026346D01*
X0124854Y0026403D01*
X0124831Y0026458D01*
X0124804Y0026513D01*
X0124775Y0026565D01*
X0124742Y0026616D01*
X0124706Y0026665D01*
X0124668Y0026711D01*
X0124626Y0026755D01*
X0124582Y0026797D01*
X0124536Y0026835D01*
X0124487Y0026871D01*
X0124436Y0026904D01*
X0124384Y0026933D01*
X0124329Y0026960D01*
X0124274Y0026983D01*
X0124217Y0027003D01*
X0124158Y0027019D01*
X0124099Y0027032D01*
X0124040Y0027041D01*
X0123979Y0027046D01*
X0123919Y0027048D01*
X0119919Y0019048D02*
X0119919Y0018548D01*
X0119919Y0016548D02*
X0119919Y0016048D01*
X0084919Y0009048D02*
X0084919Y0026048D01*
X0084917Y0026108D01*
X0084912Y0026169D01*
X0084903Y0026228D01*
X0084890Y0026287D01*
X0084874Y0026346D01*
X0084854Y0026403D01*
X0084831Y0026458D01*
X0084804Y0026513D01*
X0084775Y0026565D01*
X0084742Y0026616D01*
X0084706Y0026665D01*
X0084668Y0026711D01*
X0084626Y0026755D01*
X0084582Y0026797D01*
X0084536Y0026835D01*
X0084487Y0026871D01*
X0084436Y0026904D01*
X0084384Y0026933D01*
X0084329Y0026960D01*
X0084274Y0026983D01*
X0084217Y0027003D01*
X0084158Y0027019D01*
X0084099Y0027032D01*
X0084040Y0027041D01*
X0083979Y0027046D01*
X0083919Y0027048D01*
X0075919Y0027048D01*
X0075859Y0027046D01*
X0075798Y0027041D01*
X0075739Y0027032D01*
X0075680Y0027019D01*
X0075621Y0027003D01*
X0075564Y0026983D01*
X0075509Y0026960D01*
X0075454Y0026933D01*
X0075402Y0026904D01*
X0075351Y0026871D01*
X0075302Y0026835D01*
X0075256Y0026797D01*
X0075212Y0026755D01*
X0075170Y0026711D01*
X0075132Y0026665D01*
X0075096Y0026616D01*
X0075063Y0026565D01*
X0075034Y0026513D01*
X0075007Y0026458D01*
X0074984Y0026403D01*
X0074964Y0026346D01*
X0074948Y0026287D01*
X0074935Y0026228D01*
X0074926Y0026169D01*
X0074921Y0026108D01*
X0074919Y0026048D01*
X0074919Y0009048D01*
X0074921Y0008988D01*
X0074926Y0008927D01*
X0074935Y0008868D01*
X0074948Y0008809D01*
X0074964Y0008750D01*
X0074984Y0008693D01*
X0075007Y0008638D01*
X0075034Y0008583D01*
X0075063Y0008531D01*
X0075096Y0008480D01*
X0075132Y0008431D01*
X0075170Y0008385D01*
X0075212Y0008341D01*
X0075256Y0008299D01*
X0075302Y0008261D01*
X0075351Y0008225D01*
X0075402Y0008192D01*
X0075454Y0008163D01*
X0075509Y0008136D01*
X0075564Y0008113D01*
X0075621Y0008093D01*
X0075680Y0008077D01*
X0075739Y0008064D01*
X0075798Y0008055D01*
X0075859Y0008050D01*
X0075919Y0008048D01*
X0083919Y0008048D01*
X0083979Y0008050D01*
X0084040Y0008055D01*
X0084099Y0008064D01*
X0084158Y0008077D01*
X0084217Y0008093D01*
X0084274Y0008113D01*
X0084329Y0008136D01*
X0084384Y0008163D01*
X0084436Y0008192D01*
X0084487Y0008225D01*
X0084536Y0008261D01*
X0084582Y0008299D01*
X0084626Y0008341D01*
X0084668Y0008385D01*
X0084706Y0008431D01*
X0084742Y0008480D01*
X0084775Y0008531D01*
X0084804Y0008583D01*
X0084831Y0008638D01*
X0084854Y0008693D01*
X0084874Y0008750D01*
X0084890Y0008809D01*
X0084903Y0008868D01*
X0084912Y0008927D01*
X0084917Y0008988D01*
X0084919Y0009048D01*
X0079919Y0016048D02*
X0079919Y0016548D01*
X0079919Y0018548D02*
X0079919Y0019048D01*
X0074419Y0024048D02*
X0074419Y0011048D01*
X0071419Y0008048D01*
X0046919Y0008048D01*
X0046843Y0008050D01*
X0046767Y0008056D01*
X0046692Y0008065D01*
X0046617Y0008079D01*
X0046543Y0008096D01*
X0046470Y0008117D01*
X0046398Y0008141D01*
X0046327Y0008170D01*
X0046258Y0008201D01*
X0046191Y0008236D01*
X0046126Y0008275D01*
X0046062Y0008317D01*
X0046001Y0008362D01*
X0045942Y0008410D01*
X0045886Y0008461D01*
X0045832Y0008515D01*
X0045781Y0008571D01*
X0045733Y0008630D01*
X0045688Y0008691D01*
X0045646Y0008755D01*
X0045607Y0008820D01*
X0045572Y0008887D01*
X0045541Y0008956D01*
X0045512Y0009027D01*
X0045488Y0009099D01*
X0045467Y0009172D01*
X0045450Y0009246D01*
X0045436Y0009321D01*
X0045427Y0009396D01*
X0045421Y0009472D01*
X0045419Y0009548D01*
X0045419Y0025548D01*
X0045421Y0025624D01*
X0045427Y0025700D01*
X0045436Y0025775D01*
X0045450Y0025850D01*
X0045467Y0025924D01*
X0045488Y0025997D01*
X0045512Y0026069D01*
X0045541Y0026140D01*
X0045572Y0026209D01*
X0045607Y0026276D01*
X0045646Y0026341D01*
X0045688Y0026405D01*
X0045733Y0026466D01*
X0045781Y0026525D01*
X0045832Y0026581D01*
X0045886Y0026635D01*
X0045942Y0026686D01*
X0046001Y0026734D01*
X0046062Y0026779D01*
X0046126Y0026821D01*
X0046191Y0026860D01*
X0046258Y0026895D01*
X0046327Y0026926D01*
X0046398Y0026955D01*
X0046470Y0026979D01*
X0046543Y0027000D01*
X0046617Y0027017D01*
X0046692Y0027031D01*
X0046767Y0027040D01*
X0046843Y0027046D01*
X0046919Y0027048D01*
X0071419Y0027048D01*
X0074419Y0024048D01*
X0065919Y0017548D02*
X0062419Y0017548D01*
X0062419Y0012748D01*
X0060419Y0012748D01*
X0060419Y0022348D01*
X0062419Y0022348D01*
X0062419Y0017548D01*
X0057419Y0017548D02*
X0053919Y0017548D01*
X0065619Y0012148D02*
X0068219Y0012148D01*
X0066919Y0010948D02*
X0066919Y0013448D01*
X0065919Y0038048D02*
X0073919Y0038048D01*
X0073979Y0038050D01*
X0074040Y0038055D01*
X0074099Y0038064D01*
X0074158Y0038077D01*
X0074217Y0038093D01*
X0074274Y0038113D01*
X0074329Y0038136D01*
X0074384Y0038163D01*
X0074436Y0038192D01*
X0074487Y0038225D01*
X0074536Y0038261D01*
X0074582Y0038299D01*
X0074626Y0038341D01*
X0074668Y0038385D01*
X0074706Y0038431D01*
X0074742Y0038480D01*
X0074775Y0038531D01*
X0074804Y0038583D01*
X0074831Y0038638D01*
X0074854Y0038693D01*
X0074874Y0038750D01*
X0074890Y0038809D01*
X0074903Y0038868D01*
X0074912Y0038927D01*
X0074917Y0038988D01*
X0074919Y0039048D01*
X0074919Y0056048D01*
X0074917Y0056108D01*
X0074912Y0056169D01*
X0074903Y0056228D01*
X0074890Y0056287D01*
X0074874Y0056346D01*
X0074854Y0056403D01*
X0074831Y0056458D01*
X0074804Y0056513D01*
X0074775Y0056565D01*
X0074742Y0056616D01*
X0074706Y0056665D01*
X0074668Y0056711D01*
X0074626Y0056755D01*
X0074582Y0056797D01*
X0074536Y0056835D01*
X0074487Y0056871D01*
X0074436Y0056904D01*
X0074384Y0056933D01*
X0074329Y0056960D01*
X0074274Y0056983D01*
X0074217Y0057003D01*
X0074158Y0057019D01*
X0074099Y0057032D01*
X0074040Y0057041D01*
X0073979Y0057046D01*
X0073919Y0057048D01*
X0065919Y0057048D01*
X0065859Y0057046D01*
X0065798Y0057041D01*
X0065739Y0057032D01*
X0065680Y0057019D01*
X0065621Y0057003D01*
X0065564Y0056983D01*
X0065509Y0056960D01*
X0065454Y0056933D01*
X0065402Y0056904D01*
X0065351Y0056871D01*
X0065302Y0056835D01*
X0065256Y0056797D01*
X0065212Y0056755D01*
X0065170Y0056711D01*
X0065132Y0056665D01*
X0065096Y0056616D01*
X0065063Y0056565D01*
X0065034Y0056513D01*
X0065007Y0056458D01*
X0064984Y0056403D01*
X0064964Y0056346D01*
X0064948Y0056287D01*
X0064935Y0056228D01*
X0064926Y0056169D01*
X0064921Y0056108D01*
X0064919Y0056048D01*
X0064919Y0039048D01*
X0064921Y0038988D01*
X0064926Y0038927D01*
X0064935Y0038868D01*
X0064948Y0038809D01*
X0064964Y0038750D01*
X0064984Y0038693D01*
X0065007Y0038638D01*
X0065034Y0038583D01*
X0065063Y0038531D01*
X0065096Y0038480D01*
X0065132Y0038431D01*
X0065170Y0038385D01*
X0065212Y0038341D01*
X0065256Y0038299D01*
X0065302Y0038261D01*
X0065351Y0038225D01*
X0065402Y0038192D01*
X0065454Y0038163D01*
X0065509Y0038136D01*
X0065564Y0038113D01*
X0065621Y0038093D01*
X0065680Y0038077D01*
X0065739Y0038064D01*
X0065798Y0038055D01*
X0065859Y0038050D01*
X0065919Y0038048D01*
X0069919Y0046048D02*
X0069919Y0046548D01*
X0069919Y0048548D02*
X0069919Y0049048D01*
X0049419Y0047548D02*
X0049419Y0046048D01*
X0049417Y0045988D01*
X0049412Y0045927D01*
X0049403Y0045868D01*
X0049390Y0045809D01*
X0049374Y0045750D01*
X0049354Y0045693D01*
X0049331Y0045638D01*
X0049304Y0045583D01*
X0049275Y0045531D01*
X0049242Y0045480D01*
X0049206Y0045431D01*
X0049168Y0045385D01*
X0049126Y0045341D01*
X0049082Y0045299D01*
X0049036Y0045261D01*
X0048987Y0045225D01*
X0048936Y0045192D01*
X0048884Y0045163D01*
X0048829Y0045136D01*
X0048774Y0045113D01*
X0048717Y0045093D01*
X0048658Y0045077D01*
X0048599Y0045064D01*
X0048540Y0045055D01*
X0048479Y0045050D01*
X0048419Y0045048D01*
X0041419Y0045048D01*
X0041359Y0045050D01*
X0041298Y0045055D01*
X0041239Y0045064D01*
X0041180Y0045077D01*
X0041121Y0045093D01*
X0041064Y0045113D01*
X0041009Y0045136D01*
X0040954Y0045163D01*
X0040902Y0045192D01*
X0040851Y0045225D01*
X0040802Y0045261D01*
X0040756Y0045299D01*
X0040712Y0045341D01*
X0040670Y0045385D01*
X0040632Y0045431D01*
X0040596Y0045480D01*
X0040563Y0045531D01*
X0040534Y0045583D01*
X0040507Y0045638D01*
X0040484Y0045693D01*
X0040464Y0045750D01*
X0040448Y0045809D01*
X0040435Y0045868D01*
X0040426Y0045927D01*
X0040421Y0045988D01*
X0040419Y0046048D01*
X0040419Y0047548D01*
X0040919Y0048048D01*
X0040919Y0067048D01*
X0040419Y0067548D01*
X0040419Y0069048D01*
X0039419Y0069048D02*
X0039419Y0067548D01*
X0038919Y0067048D01*
X0038919Y0048048D01*
X0039419Y0047548D01*
X0039419Y0046048D01*
X0039417Y0045988D01*
X0039412Y0045927D01*
X0039403Y0045868D01*
X0039390Y0045809D01*
X0039374Y0045750D01*
X0039354Y0045693D01*
X0039331Y0045638D01*
X0039304Y0045583D01*
X0039275Y0045531D01*
X0039242Y0045480D01*
X0039206Y0045431D01*
X0039168Y0045385D01*
X0039126Y0045341D01*
X0039082Y0045299D01*
X0039036Y0045261D01*
X0038987Y0045225D01*
X0038936Y0045192D01*
X0038884Y0045163D01*
X0038829Y0045136D01*
X0038774Y0045113D01*
X0038717Y0045093D01*
X0038658Y0045077D01*
X0038599Y0045064D01*
X0038540Y0045055D01*
X0038479Y0045050D01*
X0038419Y0045048D01*
X0031419Y0045048D01*
X0031359Y0045050D01*
X0031298Y0045055D01*
X0031239Y0045064D01*
X0031180Y0045077D01*
X0031121Y0045093D01*
X0031064Y0045113D01*
X0031009Y0045136D01*
X0030954Y0045163D01*
X0030902Y0045192D01*
X0030851Y0045225D01*
X0030802Y0045261D01*
X0030756Y0045299D01*
X0030712Y0045341D01*
X0030670Y0045385D01*
X0030632Y0045431D01*
X0030596Y0045480D01*
X0030563Y0045531D01*
X0030534Y0045583D01*
X0030507Y0045638D01*
X0030484Y0045693D01*
X0030464Y0045750D01*
X0030448Y0045809D01*
X0030435Y0045868D01*
X0030426Y0045927D01*
X0030421Y0045988D01*
X0030419Y0046048D01*
X0030419Y0047548D01*
X0030919Y0048048D01*
X0030919Y0067048D01*
X0030419Y0067548D01*
X0030419Y0069048D01*
X0030421Y0069108D01*
X0030426Y0069169D01*
X0030435Y0069228D01*
X0030448Y0069287D01*
X0030464Y0069346D01*
X0030484Y0069403D01*
X0030507Y0069458D01*
X0030534Y0069513D01*
X0030563Y0069565D01*
X0030596Y0069616D01*
X0030632Y0069665D01*
X0030670Y0069711D01*
X0030712Y0069755D01*
X0030756Y0069797D01*
X0030802Y0069835D01*
X0030851Y0069871D01*
X0030902Y0069904D01*
X0030954Y0069933D01*
X0031009Y0069960D01*
X0031064Y0069983D01*
X0031121Y0070003D01*
X0031180Y0070019D01*
X0031239Y0070032D01*
X0031298Y0070041D01*
X0031359Y0070046D01*
X0031419Y0070048D01*
X0038419Y0070048D01*
X0038479Y0070046D01*
X0038540Y0070041D01*
X0038599Y0070032D01*
X0038658Y0070019D01*
X0038717Y0070003D01*
X0038774Y0069983D01*
X0038829Y0069960D01*
X0038884Y0069933D01*
X0038936Y0069904D01*
X0038987Y0069871D01*
X0039036Y0069835D01*
X0039082Y0069797D01*
X0039126Y0069755D01*
X0039168Y0069711D01*
X0039206Y0069665D01*
X0039242Y0069616D01*
X0039275Y0069565D01*
X0039304Y0069513D01*
X0039331Y0069458D01*
X0039354Y0069403D01*
X0039374Y0069346D01*
X0039390Y0069287D01*
X0039403Y0069228D01*
X0039412Y0069169D01*
X0039417Y0069108D01*
X0039419Y0069048D01*
X0040419Y0069048D02*
X0040421Y0069108D01*
X0040426Y0069169D01*
X0040435Y0069228D01*
X0040448Y0069287D01*
X0040464Y0069346D01*
X0040484Y0069403D01*
X0040507Y0069458D01*
X0040534Y0069513D01*
X0040563Y0069565D01*
X0040596Y0069616D01*
X0040632Y0069665D01*
X0040670Y0069711D01*
X0040712Y0069755D01*
X0040756Y0069797D01*
X0040802Y0069835D01*
X0040851Y0069871D01*
X0040902Y0069904D01*
X0040954Y0069933D01*
X0041009Y0069960D01*
X0041064Y0069983D01*
X0041121Y0070003D01*
X0041180Y0070019D01*
X0041239Y0070032D01*
X0041298Y0070041D01*
X0041359Y0070046D01*
X0041419Y0070048D01*
X0048419Y0070048D01*
X0048479Y0070046D01*
X0048540Y0070041D01*
X0048599Y0070032D01*
X0048658Y0070019D01*
X0048717Y0070003D01*
X0048774Y0069983D01*
X0048829Y0069960D01*
X0048884Y0069933D01*
X0048936Y0069904D01*
X0048987Y0069871D01*
X0049036Y0069835D01*
X0049082Y0069797D01*
X0049126Y0069755D01*
X0049168Y0069711D01*
X0049206Y0069665D01*
X0049242Y0069616D01*
X0049275Y0069565D01*
X0049304Y0069513D01*
X0049331Y0069458D01*
X0049354Y0069403D01*
X0049374Y0069346D01*
X0049390Y0069287D01*
X0049403Y0069228D01*
X0049412Y0069169D01*
X0049417Y0069108D01*
X0049419Y0069048D01*
X0049419Y0067548D01*
X0048919Y0067048D01*
X0048919Y0048048D01*
X0049419Y0047548D01*
X0040919Y0017548D02*
X0040917Y0017396D01*
X0040911Y0017245D01*
X0040902Y0017094D01*
X0040888Y0016942D01*
X0040871Y0016792D01*
X0040850Y0016642D01*
X0040825Y0016492D01*
X0040797Y0016343D01*
X0040764Y0016195D01*
X0040728Y0016048D01*
X0040689Y0015901D01*
X0040645Y0015756D01*
X0040598Y0015612D01*
X0040547Y0015469D01*
X0040493Y0015328D01*
X0040435Y0015187D01*
X0040374Y0015049D01*
X0040309Y0014912D01*
X0040240Y0014776D01*
X0040169Y0014643D01*
X0040094Y0014511D01*
X0040015Y0014381D01*
X0039934Y0014254D01*
X0039849Y0014128D01*
X0039761Y0014004D01*
X0039670Y0013883D01*
X0039576Y0013764D01*
X0039478Y0013648D01*
X0039378Y0013534D01*
X0039276Y0013422D01*
X0039170Y0013314D01*
X0039062Y0013208D01*
X0038951Y0013104D01*
X0038837Y0013004D01*
X0038721Y0012906D01*
X0038602Y0012812D01*
X0028919Y0017548D02*
X0028921Y0017702D01*
X0028927Y0017856D01*
X0028937Y0018010D01*
X0028951Y0018164D01*
X0028968Y0018317D01*
X0028990Y0018469D01*
X0029016Y0018621D01*
X0029045Y0018773D01*
X0029079Y0018923D01*
X0029116Y0019073D01*
X0029157Y0019221D01*
X0029202Y0019369D01*
X0029251Y0019515D01*
X0029303Y0019660D01*
X0029359Y0019803D01*
X0029419Y0019946D01*
X0029482Y0020086D01*
X0029549Y0020225D01*
X0029620Y0020362D01*
X0029694Y0020497D01*
X0029771Y0020630D01*
X0029852Y0020762D01*
X0029936Y0020891D01*
X0030024Y0021018D01*
X0030115Y0021142D01*
X0030208Y0021264D01*
X0030306Y0021384D01*
X0030406Y0021501D01*
X0030509Y0021616D01*
X0030615Y0021728D01*
X0030723Y0021837D01*
X0030835Y0021943D01*
X0030949Y0022047D01*
X0031066Y0022147D01*
X0031185Y0022245D01*
X0031307Y0022339D01*
X0031432Y0022430D01*
X0028919Y0017548D02*
X0028921Y0017398D01*
X0028927Y0017247D01*
X0028936Y0017097D01*
X0028949Y0016948D01*
X0028966Y0016798D01*
X0028987Y0016649D01*
X0029011Y0016501D01*
X0029039Y0016353D01*
X0029071Y0016206D01*
X0029106Y0016060D01*
X0029146Y0015915D01*
X0029188Y0015771D01*
X0029235Y0015628D01*
X0029285Y0015486D01*
X0029338Y0015345D01*
X0029395Y0015206D01*
X0029455Y0015068D01*
X0029519Y0014932D01*
X0029586Y0014798D01*
X0029657Y0014665D01*
X0029731Y0014534D01*
X0029808Y0014405D01*
X0029889Y0014278D01*
X0029972Y0014153D01*
X0030059Y0014030D01*
X0030148Y0013909D01*
X0030241Y0013791D01*
X0030337Y0013675D01*
X0030435Y0013561D01*
X0030536Y0013450D01*
X0030641Y0013341D01*
X0030747Y0013236D01*
X0030857Y0013132D01*
X0030969Y0013032D01*
X0031083Y0012934D01*
X0031200Y0012840D01*
X0031319Y0012748D01*
X0040919Y0017548D02*
X0040917Y0017700D01*
X0040911Y0017851D01*
X0040902Y0018002D01*
X0040888Y0018154D01*
X0040871Y0018304D01*
X0040850Y0018454D01*
X0040825Y0018604D01*
X0040797Y0018753D01*
X0040764Y0018901D01*
X0040728Y0019048D01*
X0040689Y0019195D01*
X0040645Y0019340D01*
X0040598Y0019484D01*
X0040547Y0019627D01*
X0040493Y0019768D01*
X0040435Y0019909D01*
X0040374Y0020047D01*
X0040309Y0020184D01*
X0040240Y0020320D01*
X0040169Y0020453D01*
X0040094Y0020585D01*
X0040015Y0020715D01*
X0039934Y0020842D01*
X0039849Y0020968D01*
X0039761Y0021092D01*
X0039670Y0021213D01*
X0039576Y0021332D01*
X0039478Y0021448D01*
X0039378Y0021562D01*
X0039276Y0021674D01*
X0039170Y0021782D01*
X0039062Y0021888D01*
X0038951Y0021992D01*
X0038837Y0022092D01*
X0038721Y0022190D01*
X0038602Y0022284D01*
X0014919Y0171548D02*
X0014767Y0171550D01*
X0014616Y0171556D01*
X0014465Y0171565D01*
X0014313Y0171579D01*
X0014163Y0171596D01*
X0014013Y0171617D01*
X0013863Y0171642D01*
X0013714Y0171670D01*
X0013566Y0171703D01*
X0013419Y0171739D01*
X0013272Y0171778D01*
X0013127Y0171822D01*
X0012983Y0171869D01*
X0012840Y0171920D01*
X0012699Y0171974D01*
X0012558Y0172032D01*
X0012420Y0172093D01*
X0012283Y0172158D01*
X0012147Y0172227D01*
X0012014Y0172298D01*
X0011882Y0172373D01*
X0011752Y0172452D01*
X0011625Y0172533D01*
X0011499Y0172618D01*
X0011375Y0172706D01*
X0011254Y0172797D01*
X0011135Y0172891D01*
X0011019Y0172989D01*
X0010905Y0173089D01*
X0010793Y0173191D01*
X0010685Y0173297D01*
X0010579Y0173405D01*
X0010475Y0173516D01*
X0010375Y0173630D01*
X0010277Y0173746D01*
X0010183Y0173865D01*
X0014919Y0183548D02*
X0015073Y0183546D01*
X0015227Y0183540D01*
X0015381Y0183530D01*
X0015535Y0183516D01*
X0015688Y0183499D01*
X0015840Y0183477D01*
X0015992Y0183451D01*
X0016144Y0183422D01*
X0016294Y0183388D01*
X0016444Y0183351D01*
X0016592Y0183310D01*
X0016740Y0183265D01*
X0016886Y0183216D01*
X0017031Y0183164D01*
X0017174Y0183108D01*
X0017317Y0183048D01*
X0017457Y0182985D01*
X0017596Y0182918D01*
X0017733Y0182847D01*
X0017868Y0182773D01*
X0018001Y0182696D01*
X0018133Y0182615D01*
X0018262Y0182531D01*
X0018389Y0182443D01*
X0018513Y0182352D01*
X0018635Y0182259D01*
X0018755Y0182161D01*
X0018872Y0182061D01*
X0018987Y0181958D01*
X0019099Y0181852D01*
X0019208Y0181744D01*
X0019314Y0181632D01*
X0019418Y0181518D01*
X0019518Y0181401D01*
X0019616Y0181282D01*
X0019710Y0181160D01*
X0019801Y0181035D01*
X0014919Y0183548D02*
X0014769Y0183546D01*
X0014618Y0183540D01*
X0014468Y0183531D01*
X0014319Y0183518D01*
X0014169Y0183501D01*
X0014020Y0183480D01*
X0013872Y0183456D01*
X0013724Y0183428D01*
X0013577Y0183396D01*
X0013431Y0183361D01*
X0013286Y0183321D01*
X0013142Y0183279D01*
X0012999Y0183232D01*
X0012857Y0183182D01*
X0012716Y0183129D01*
X0012577Y0183072D01*
X0012439Y0183012D01*
X0012303Y0182948D01*
X0012169Y0182881D01*
X0012036Y0182810D01*
X0011905Y0182736D01*
X0011776Y0182659D01*
X0011649Y0182578D01*
X0011524Y0182495D01*
X0011401Y0182408D01*
X0011280Y0182319D01*
X0011162Y0182226D01*
X0011046Y0182130D01*
X0010932Y0182032D01*
X0010821Y0181931D01*
X0010712Y0181826D01*
X0010607Y0181720D01*
X0010503Y0181610D01*
X0010403Y0181498D01*
X0010305Y0181384D01*
X0010211Y0181267D01*
X0010119Y0181148D01*
X0014919Y0171548D02*
X0015071Y0171550D01*
X0015222Y0171556D01*
X0015373Y0171565D01*
X0015525Y0171579D01*
X0015675Y0171596D01*
X0015825Y0171617D01*
X0015975Y0171642D01*
X0016124Y0171670D01*
X0016272Y0171703D01*
X0016419Y0171739D01*
X0016566Y0171778D01*
X0016711Y0171822D01*
X0016855Y0171869D01*
X0016998Y0171920D01*
X0017139Y0171974D01*
X0017280Y0172032D01*
X0017418Y0172093D01*
X0017555Y0172158D01*
X0017691Y0172227D01*
X0017824Y0172298D01*
X0017956Y0172373D01*
X0018086Y0172452D01*
X0018213Y0172533D01*
X0018339Y0172618D01*
X0018463Y0172706D01*
X0018584Y0172797D01*
X0018703Y0172891D01*
X0018819Y0172989D01*
X0018933Y0173089D01*
X0019045Y0173191D01*
X0019153Y0173297D01*
X0019259Y0173405D01*
X0019363Y0173516D01*
X0019463Y0173630D01*
X0019561Y0173746D01*
X0019655Y0173865D01*
D15*
X0014919Y0185548D02*
X0014727Y0185546D01*
X0014535Y0185539D01*
X0014343Y0185527D01*
X0014151Y0185511D01*
X0013960Y0185490D01*
X0013770Y0185465D01*
X0013580Y0185435D01*
X0013391Y0185401D01*
X0013203Y0185362D01*
X0013016Y0185318D01*
X0012830Y0185270D01*
X0012645Y0185218D01*
X0012461Y0185161D01*
X0012279Y0185100D01*
X0012099Y0185034D01*
X0011920Y0184964D01*
X0011742Y0184890D01*
X0011567Y0184812D01*
X0011393Y0184729D01*
X0011222Y0184642D01*
X0011053Y0184552D01*
X0010886Y0184457D01*
X0010721Y0184358D01*
X0010558Y0184255D01*
X0010399Y0184148D01*
X0010241Y0184038D01*
X0010087Y0183924D01*
X0009935Y0183806D01*
X0009786Y0183684D01*
X0009640Y0183559D01*
X0009498Y0183431D01*
X0009358Y0183299D01*
X0009221Y0183164D01*
X0009088Y0183025D01*
X0008958Y0182884D01*
X0008832Y0182739D01*
X0008709Y0182591D01*
X0008590Y0182441D01*
X0008474Y0182287D01*
X0008362Y0182131D01*
X0008254Y0181972D01*
X0008149Y0181811D01*
X0008049Y0181647D01*
X0007953Y0181481D01*
X0007860Y0181313D01*
X0007973Y0173579D02*
X0008072Y0173410D01*
X0008176Y0173244D01*
X0008283Y0173080D01*
X0008394Y0172919D01*
X0008509Y0172761D01*
X0008628Y0172606D01*
X0008751Y0172453D01*
X0008877Y0172304D01*
X0009007Y0172158D01*
X0009141Y0172015D01*
X0009278Y0171875D01*
X0009418Y0171739D01*
X0009562Y0171606D01*
X0009709Y0171477D01*
X0009859Y0171351D01*
X0010012Y0171230D01*
X0010168Y0171111D01*
X0010327Y0170997D01*
X0010488Y0170887D01*
X0010653Y0170781D01*
X0010819Y0170678D01*
X0010989Y0170580D01*
X0011160Y0170486D01*
X0011334Y0170396D01*
X0011510Y0170311D01*
X0011688Y0170229D01*
X0011868Y0170153D01*
X0012050Y0170080D01*
X0012233Y0170012D01*
X0012418Y0169949D01*
X0012605Y0169890D01*
X0012793Y0169836D01*
X0012982Y0169786D01*
X0013172Y0169741D01*
X0013364Y0169701D01*
X0013556Y0169665D01*
X0013749Y0169634D01*
X0013943Y0169608D01*
X0014138Y0169586D01*
X0014333Y0169570D01*
X0014528Y0169558D01*
X0014724Y0169550D01*
X0014919Y0169548D01*
X0015112Y0169550D01*
X0015305Y0169557D01*
X0015497Y0169569D01*
X0015690Y0169585D01*
X0015882Y0169606D01*
X0016073Y0169632D01*
X0016263Y0169662D01*
X0016453Y0169697D01*
X0016642Y0169736D01*
X0016830Y0169780D01*
X0017017Y0169828D01*
X0017203Y0169881D01*
X0017387Y0169938D01*
X0017570Y0170000D01*
X0017751Y0170066D01*
X0017931Y0170137D01*
X0018109Y0170211D01*
X0018285Y0170290D01*
X0018459Y0170374D01*
X0018631Y0170461D01*
X0018801Y0170553D01*
X0018968Y0170649D01*
X0019134Y0170748D01*
X0019297Y0170852D01*
X0019457Y0170959D01*
X0019614Y0171071D01*
X0019769Y0171186D01*
X0019921Y0171305D01*
X0020070Y0171427D01*
X0020217Y0171553D01*
X0020360Y0171683D01*
X0020500Y0171816D01*
X0020636Y0171952D01*
X0020770Y0172092D01*
X0020899Y0172234D01*
X0021026Y0172380D01*
X0021065Y0182670D02*
X0020938Y0182818D01*
X0020808Y0182963D01*
X0020675Y0183104D01*
X0020538Y0183243D01*
X0020398Y0183378D01*
X0020254Y0183509D01*
X0020107Y0183637D01*
X0019958Y0183762D01*
X0019805Y0183883D01*
X0019650Y0184000D01*
X0019491Y0184113D01*
X0019330Y0184222D01*
X0019166Y0184327D01*
X0019000Y0184429D01*
X0018831Y0184526D01*
X0018661Y0184619D01*
X0018487Y0184708D01*
X0018312Y0184793D01*
X0018135Y0184873D01*
X0017956Y0184949D01*
X0017775Y0185021D01*
X0017592Y0185088D01*
X0017408Y0185151D01*
X0017222Y0185209D01*
X0017035Y0185263D01*
X0016847Y0185312D01*
X0016657Y0185357D01*
X0016467Y0185397D01*
X0016275Y0185432D01*
X0016083Y0185463D01*
X0015890Y0185489D01*
X0015696Y0185510D01*
X0015502Y0185527D01*
X0015308Y0185539D01*
X0015114Y0185546D01*
X0014919Y0185548D01*
X0109419Y0189048D02*
X0112419Y0189048D01*
X0115419Y0189048D01*
X0115419Y0191048D02*
X0112419Y0191048D01*
X0109419Y0191048D01*
X0072919Y0048548D02*
X0069919Y0048548D01*
X0066919Y0048548D01*
X0066919Y0046548D02*
X0069919Y0046548D01*
X0072919Y0046548D01*
X0076919Y0018548D02*
X0079919Y0018548D01*
X0082919Y0018548D01*
X0082919Y0016548D02*
X0079919Y0016548D01*
X0076919Y0016548D01*
X0116919Y0016548D02*
X0119919Y0016548D01*
X0122919Y0016548D01*
X0122919Y0018548D02*
X0119919Y0018548D01*
X0116919Y0018548D01*
X0031154Y0010489D02*
X0030986Y0010582D01*
X0030820Y0010678D01*
X0030656Y0010778D01*
X0030495Y0010883D01*
X0030336Y0010991D01*
X0030180Y0011103D01*
X0030026Y0011219D01*
X0029876Y0011338D01*
X0029728Y0011461D01*
X0029583Y0011587D01*
X0029442Y0011717D01*
X0029303Y0011850D01*
X0029168Y0011987D01*
X0029036Y0012127D01*
X0028908Y0012269D01*
X0028783Y0012415D01*
X0028661Y0012564D01*
X0028543Y0012716D01*
X0028429Y0012870D01*
X0028319Y0013028D01*
X0028212Y0013187D01*
X0028109Y0013350D01*
X0028010Y0013515D01*
X0027915Y0013682D01*
X0027825Y0013851D01*
X0027738Y0014022D01*
X0027655Y0014196D01*
X0027577Y0014371D01*
X0027503Y0014549D01*
X0027433Y0014728D01*
X0027367Y0014908D01*
X0027306Y0015090D01*
X0027249Y0015274D01*
X0027197Y0015459D01*
X0027149Y0015645D01*
X0027105Y0015832D01*
X0027066Y0016020D01*
X0027032Y0016209D01*
X0027002Y0016399D01*
X0026977Y0016589D01*
X0026956Y0016780D01*
X0026940Y0016972D01*
X0026928Y0017164D01*
X0026921Y0017356D01*
X0026919Y0017548D01*
X0038888Y0010602D02*
X0039057Y0010701D01*
X0039223Y0010805D01*
X0039387Y0010912D01*
X0039548Y0011023D01*
X0039706Y0011138D01*
X0039861Y0011257D01*
X0040014Y0011380D01*
X0040163Y0011506D01*
X0040309Y0011636D01*
X0040452Y0011770D01*
X0040592Y0011907D01*
X0040728Y0012047D01*
X0040861Y0012191D01*
X0040990Y0012338D01*
X0041116Y0012488D01*
X0041237Y0012641D01*
X0041356Y0012797D01*
X0041470Y0012956D01*
X0041580Y0013117D01*
X0041686Y0013282D01*
X0041789Y0013448D01*
X0041887Y0013618D01*
X0041981Y0013789D01*
X0042071Y0013963D01*
X0042156Y0014139D01*
X0042238Y0014317D01*
X0042314Y0014497D01*
X0042387Y0014679D01*
X0042455Y0014862D01*
X0042518Y0015047D01*
X0042577Y0015234D01*
X0042631Y0015422D01*
X0042681Y0015611D01*
X0042726Y0015801D01*
X0042766Y0015993D01*
X0042802Y0016185D01*
X0042833Y0016378D01*
X0042859Y0016572D01*
X0042881Y0016767D01*
X0042897Y0016962D01*
X0042909Y0017157D01*
X0042917Y0017353D01*
X0042919Y0017548D01*
X0042917Y0017741D01*
X0042910Y0017934D01*
X0042898Y0018126D01*
X0042882Y0018319D01*
X0042861Y0018511D01*
X0042835Y0018702D01*
X0042805Y0018892D01*
X0042770Y0019082D01*
X0042731Y0019271D01*
X0042687Y0019459D01*
X0042639Y0019646D01*
X0042586Y0019832D01*
X0042529Y0020016D01*
X0042467Y0020199D01*
X0042401Y0020380D01*
X0042330Y0020560D01*
X0042256Y0020738D01*
X0042177Y0020914D01*
X0042093Y0021088D01*
X0042006Y0021260D01*
X0041914Y0021430D01*
X0041818Y0021597D01*
X0041719Y0021763D01*
X0041615Y0021926D01*
X0041508Y0022086D01*
X0041396Y0022243D01*
X0041281Y0022398D01*
X0041162Y0022550D01*
X0041040Y0022699D01*
X0040914Y0022846D01*
X0040784Y0022989D01*
X0040651Y0023129D01*
X0040515Y0023265D01*
X0040375Y0023399D01*
X0040233Y0023528D01*
X0040087Y0023655D01*
X0029797Y0023694D02*
X0029649Y0023567D01*
X0029504Y0023437D01*
X0029363Y0023304D01*
X0029224Y0023167D01*
X0029089Y0023027D01*
X0028958Y0022883D01*
X0028830Y0022736D01*
X0028705Y0022587D01*
X0028584Y0022434D01*
X0028467Y0022279D01*
X0028354Y0022120D01*
X0028245Y0021959D01*
X0028140Y0021795D01*
X0028038Y0021629D01*
X0027941Y0021460D01*
X0027848Y0021290D01*
X0027759Y0021116D01*
X0027674Y0020941D01*
X0027594Y0020764D01*
X0027518Y0020585D01*
X0027446Y0020404D01*
X0027379Y0020221D01*
X0027316Y0020037D01*
X0027258Y0019851D01*
X0027204Y0019664D01*
X0027155Y0019476D01*
X0027110Y0019286D01*
X0027070Y0019096D01*
X0027035Y0018904D01*
X0027004Y0018712D01*
X0026978Y0018519D01*
X0026957Y0018325D01*
X0026940Y0018131D01*
X0026928Y0017937D01*
X0026921Y0017743D01*
X0026919Y0017548D01*
D16*
X0057919Y0017548D03*
D17*
X0139919Y0080548D03*
D18*
X0069119Y0162548D03*
X0069119Y0172548D03*
X0040719Y0172548D03*
X0040719Y0162548D03*
D19*
X0044919Y0071748D03*
X0034919Y0071748D03*
X0034919Y0043348D03*
X0044919Y0043348D03*
D20*
X0099989Y0073789D02*
X0099989Y0076942D01*
X0101040Y0077993D01*
X0103142Y0077993D01*
X0104192Y0076942D01*
X0104192Y0073789D01*
X0106294Y0073789D02*
X0099989Y0073789D01*
X0099989Y0080235D02*
X0099989Y0082336D01*
X0099989Y0081285D02*
X0106294Y0081285D01*
X0106294Y0080235D02*
X0106294Y0082336D01*
X0105243Y0084532D02*
X0106294Y0085582D01*
X0106294Y0087684D01*
X0105243Y0088735D01*
X0105243Y0090977D02*
X0106294Y0092028D01*
X0106294Y0094130D01*
X0105243Y0095181D01*
X0104192Y0095181D01*
X0103142Y0094130D01*
X0103142Y0093079D01*
X0103142Y0094130D02*
X0102091Y0095181D01*
X0101040Y0095181D01*
X0099989Y0094130D01*
X0099989Y0092028D01*
X0101040Y0090977D01*
X0101040Y0088735D02*
X0099989Y0087684D01*
X0099989Y0085582D01*
X0101040Y0084532D01*
X0105243Y0084532D01*
X0106294Y0097423D02*
X0102091Y0101626D01*
X0101040Y0101626D01*
X0099989Y0100575D01*
X0099989Y0098473D01*
X0101040Y0097423D01*
X0106294Y0097423D02*
X0106294Y0101626D01*
X0106294Y0103868D02*
X0099989Y0103868D01*
X0102091Y0105970D01*
X0099989Y0108072D01*
X0106294Y0108072D01*
X0106294Y0110314D02*
X0099989Y0114517D01*
X0101040Y0116759D02*
X0099989Y0117810D01*
X0099989Y0119912D01*
X0101040Y0120963D01*
X0102091Y0120963D01*
X0106294Y0116759D01*
X0106294Y0120963D01*
X0105243Y0123205D02*
X0106294Y0124255D01*
X0106294Y0126357D01*
X0105243Y0127408D01*
X0103142Y0127408D01*
X0102091Y0126357D01*
X0102091Y0125306D01*
X0103142Y0123205D01*
X0099989Y0123205D01*
X0099989Y0127408D01*
X0101040Y0129650D02*
X0099989Y0130701D01*
X0099989Y0132803D01*
X0101040Y0133854D01*
X0105243Y0129650D01*
X0106294Y0130701D01*
X0106294Y0132803D01*
X0105243Y0133854D01*
X0101040Y0133854D01*
X0099989Y0136096D02*
X0099989Y0140299D01*
X0102091Y0142541D02*
X0099989Y0144643D01*
X0106294Y0144643D01*
X0106294Y0142541D02*
X0106294Y0146745D01*
X0106294Y0148987D02*
X0102091Y0153190D01*
X0101040Y0153190D01*
X0099989Y0152139D01*
X0099989Y0150037D01*
X0101040Y0148987D01*
X0106294Y0148987D02*
X0106294Y0153190D01*
X0105243Y0155432D02*
X0104192Y0155432D01*
X0103142Y0156483D01*
X0103142Y0158585D01*
X0104192Y0159636D01*
X0105243Y0159636D01*
X0106294Y0158585D01*
X0106294Y0156483D01*
X0105243Y0155432D01*
X0103142Y0156483D02*
X0102091Y0155432D01*
X0101040Y0155432D01*
X0099989Y0156483D01*
X0099989Y0158585D01*
X0101040Y0159636D01*
X0102091Y0159636D01*
X0103142Y0158585D01*
X0103142Y0161878D02*
X0103142Y0165030D01*
X0104192Y0166081D01*
X0105243Y0166081D01*
X0106294Y0165030D01*
X0106294Y0161878D01*
X0099989Y0161878D01*
X0099989Y0165030D01*
X0101040Y0166081D01*
X0102091Y0166081D01*
X0103142Y0165030D01*
X0103142Y0138197D02*
X0103142Y0136096D01*
X0106294Y0136096D02*
X0099989Y0136096D01*
X0101040Y0129650D02*
X0105243Y0129650D01*
X0106294Y0114517D02*
X0099989Y0110314D01*
D21*
X0132990Y0026013D02*
X0132990Y0009083D01*
X0166848Y0009083D01*
X0166848Y0026013D01*
X0132990Y0026013D01*
X0145982Y0007706D02*
X0145982Y0001800D01*
X0147951Y0001800D01*
X0149919Y0003769D01*
X0151888Y0001800D01*
X0153856Y0001800D01*
X0153856Y0007706D01*
M02*
