G75*
%MOIN*%
%OFA0B0*%
%FSLAX25Y25*%
%IPPOS*%
%LPD*%
%AMOC8*
5,1,8,0,0,1.08239X$1,22.5*
%
%ADD10C,0.00000*%
%ADD11C,0.08200*%
%ADD12OC8,0.06000*%
%ADD13C,0.06000*%
%ADD14C,0.05950*%
%ADD15C,0.12020*%
%ADD16C,0.06000*%
%ADD17C,0.06737*%
%ADD18C,0.04762*%
D10*
X0004919Y0007548D02*
X0004919Y0204398D01*
X0201769Y0204398D01*
X0201769Y0007548D01*
X0004919Y0007548D01*
D11*
X0017419Y0037548D03*
X0017419Y0057548D03*
X0009919Y0072548D03*
X0009919Y0082548D03*
X0009919Y0092548D03*
X0009919Y0102548D03*
X0009919Y0112548D03*
X0009919Y0122548D03*
X0009919Y0132548D03*
X0009919Y0142548D03*
X0014919Y0197548D03*
X0024919Y0197548D03*
X0034919Y0197548D03*
X0044919Y0197548D03*
X0054919Y0197548D03*
X0074919Y0192548D03*
X0094919Y0192548D03*
X0074919Y0097548D03*
X0074919Y0087548D03*
X0074919Y0077548D03*
X0196919Y0072548D03*
X0196919Y0082548D03*
X0196919Y0092548D03*
X0196919Y0102548D03*
X0196919Y0112548D03*
X0196919Y0122548D03*
X0196919Y0132548D03*
X0196919Y0142548D03*
D12*
X0139919Y0072548D03*
X0119919Y0022548D03*
X0119919Y0012548D03*
X0107419Y0017548D03*
X0099919Y0012548D03*
X0099919Y0022548D03*
X0079919Y0022548D03*
X0079919Y0012548D03*
X0069919Y0042548D03*
X0069919Y0052548D03*
X0044919Y0037548D03*
X0034919Y0037548D03*
X0034919Y0022548D03*
X0034919Y0012548D03*
X0049919Y0017548D03*
X0044919Y0077548D03*
X0034919Y0077548D03*
X0034919Y0162548D03*
X0034919Y0172548D03*
X0019919Y0177548D03*
X0009919Y0177548D03*
X0074919Y0172548D03*
X0074919Y0162548D03*
X0112419Y0185048D03*
X0112419Y0195048D03*
D13*
X0139919Y0092548D03*
X0069919Y0017548D03*
D14*
X0142045Y0017548D03*
X0149919Y0017548D03*
X0157793Y0017548D03*
X0164840Y0041249D03*
X0169565Y0044398D03*
X0164840Y0047548D03*
X0169565Y0050698D03*
X0164840Y0053847D03*
D15*
X0184919Y0061918D03*
X0184919Y0033178D03*
D16*
X0120944Y0040973D02*
X0115744Y0040973D01*
X0115744Y0050973D02*
X0120944Y0050973D01*
X0120944Y0060973D02*
X0115744Y0060973D01*
X0115744Y0070973D02*
X0120944Y0070973D01*
X0120944Y0080973D02*
X0115744Y0080973D01*
X0115744Y0090973D02*
X0120944Y0090973D01*
X0120944Y0100973D02*
X0115744Y0100973D01*
X0115744Y0110973D02*
X0120944Y0110973D01*
X0120944Y0120973D02*
X0115744Y0120973D01*
X0115744Y0130973D02*
X0120944Y0130973D01*
X0120944Y0140973D02*
X0115744Y0140973D01*
X0115744Y0150973D02*
X0120944Y0150973D01*
X0120944Y0160973D02*
X0115744Y0160973D01*
X0115744Y0170973D02*
X0120944Y0170973D01*
X0090944Y0170973D02*
X0085744Y0170973D01*
X0085744Y0160973D02*
X0090944Y0160973D01*
X0090944Y0150973D02*
X0085744Y0150973D01*
X0085744Y0140973D02*
X0090944Y0140973D01*
X0090944Y0130973D02*
X0085744Y0130973D01*
X0085744Y0120973D02*
X0090944Y0120973D01*
X0090944Y0110973D02*
X0085744Y0110973D01*
X0085744Y0100973D02*
X0090944Y0100973D01*
X0090944Y0090973D02*
X0085744Y0090973D01*
X0085744Y0080973D02*
X0090944Y0080973D01*
X0090944Y0070973D02*
X0085744Y0070973D01*
X0085744Y0060973D02*
X0090944Y0060973D01*
X0090944Y0050973D02*
X0085744Y0050973D01*
X0085744Y0040973D02*
X0090944Y0040973D01*
D17*
X0134171Y0017548D03*
X0165667Y0017548D03*
D18*
X0077419Y0132548D03*
X0059919Y0147548D03*
X0063974Y0184713D03*
X0034919Y0102548D03*
M02*
