%
M48
M72
T01C0.02362
T02C0.03150
T03C0.03200
T04C0.03937
T05C0.04000
T06C0.07480
%
T01
X34919Y102548
X77419Y132548
X59919Y147548
X63974Y184713
T02
X164840Y53847
X169565Y50698
X164840Y47548
X169565Y44398
X164840Y41249
X157793Y17548
X149919Y17548
X142045Y17548
T03
X34919Y12548
X34919Y22548
X49919Y17548
X69919Y17548
X79919Y12548
X79919Y22548
X88344Y40973
X88344Y50973
X88344Y60973
X88344Y70973
X88344Y80973
X88344Y90973
X88344Y100973
X88344Y110973
X88344Y120973
X88344Y130973
X88344Y140973
X88344Y150973
X88344Y160973
X88344Y170973
X74919Y172548
X74919Y162548
X34919Y162548
X34919Y172548
X19919Y177548
X9919Y177548
X34919Y77548
X44919Y77548
X69919Y52548
X69919Y42548
X44919Y37548
X34919Y37548
X99919Y22548
X107419Y17548
X99919Y12548
X119919Y12548
X119919Y22548
X118344Y40973
X118344Y50973
X118344Y60973
X118344Y70973
X118344Y80973
X118344Y90973
X118344Y100973
X118344Y110973
X118344Y120973
X118344Y130973
X118344Y140973
X118344Y150973
X118344Y160973
X118344Y170973
X112419Y185048
X112419Y195048
X139919Y92548
X139919Y72548
T04
X134171Y17548
X165667Y17548
T05
X17419Y37548
X17419Y57548
X9919Y72548
X9919Y82548
X9919Y92548
X9919Y102548
X9919Y112548
X9919Y122548
X9919Y132548
X9919Y142548
X14919Y197548
X24919Y197548
X34919Y197548
X44919Y197548
X54919Y197548
X74919Y192548
X94919Y192548
X74919Y97548
X74919Y87548
X74919Y77548
X196919Y72548
X196919Y82548
X196919Y92548
X196919Y102548
X196919Y112548
X196919Y122548
X196919Y132548
X196919Y142548
T06
X184919Y61918
X184919Y33178
M30
